<svg id="visual" viewBox="0 0 960 540" width="960" height="540" xmlns="http://www.w3.org/2000/svg" xmlns:xlink="http://www.w3.org/1999/xlink" version="1.1"><rect x="0" y="0" width="960" height="540" fill="#F2D0BD"></rect><defs><linearGradient id="grad1_0" x1="43.8%" y1="100%" x2="100%" y2="0%"><stop offset="14.444444444444446%" stop-color="#ffffff" stop-opacity="1"></stop><stop offset="85.55555555555554%" stop-color="#ffffff" stop-opacity="1"></stop></linearGradient></defs><defs><linearGradient id="grad1_1" x1="43.8%" y1="100%" x2="100%" y2="0%"><stop offset="14.444444444444446%" stop-color="#ffffff" stop-opacity="1"></stop><stop offset="85.55555555555554%" stop-color="#fef8f5" stop-opacity="1"></stop></linearGradient></defs><defs><linearGradient id="grad1_2" x1="43.8%" y1="100%" x2="100%" y2="0%"><stop offset="14.444444444444446%" stop-color="#fcf1ec" stop-opacity="1"></stop><stop offset="85.55555555555554%" stop-color="#fef8f5" stop-opacity="1"></stop></linearGradient></defs><defs><linearGradient id="grad1_3" x1="43.8%" y1="100%" x2="100%" y2="0%"><stop offset="14.444444444444446%" stop-color="#fcf1ec" stop-opacity="1"></stop><stop offset="85.55555555555554%" stop-color="#faebe2" stop-opacity="1"></stop></linearGradient></defs><defs><linearGradient id="grad1_4" x1="43.8%" y1="100%" x2="100%" y2="0%"><stop offset="14.444444444444446%" stop-color="#f8e4d9" stop-opacity="1"></stop><stop offset="85.55555555555554%" stop-color="#faebe2" stop-opacity="1"></stop></linearGradient></defs><defs><linearGradient id="grad1_5" x1="43.8%" y1="100%" x2="100%" y2="0%"><stop offset="14.444444444444446%" stop-color="#f8e4d9" stop-opacity="1"></stop><stop offset="85.55555555555554%" stop-color="#f6ddd0" stop-opacity="1"></stop></linearGradient></defs><defs><linearGradient id="grad1_6" x1="43.8%" y1="100%" x2="100%" y2="0%"><stop offset="14.444444444444446%" stop-color="#f4d7c6" stop-opacity="1"></stop><stop offset="85.55555555555554%" stop-color="#f6ddd0" stop-opacity="1"></stop></linearGradient></defs><defs><linearGradient id="grad1_7" x1="43.8%" y1="100%" x2="100%" y2="0%"><stop offset="14.444444444444446%" stop-color="#f4d7c6" stop-opacity="1"></stop><stop offset="85.55555555555554%" stop-color="#f2d0bd" stop-opacity="1"></stop></linearGradient></defs><defs><linearGradient id="grad2_0" x1="0%" y1="100%" x2="56.3%" y2="0%"><stop offset="14.444444444444446%" stop-color="#ffffff" stop-opacity="1"></stop><stop offset="85.55555555555554%" stop-color="#ffffff" stop-opacity="1"></stop></linearGradient></defs><defs><linearGradient id="grad2_1" x1="0%" y1="100%" x2="56.3%" y2="0%"><stop offset="14.444444444444446%" stop-color="#fef8f5" stop-opacity="1"></stop><stop offset="85.55555555555554%" stop-color="#ffffff" stop-opacity="1"></stop></linearGradient></defs><defs><linearGradient id="grad2_2" x1="0%" y1="100%" x2="56.3%" y2="0%"><stop offset="14.444444444444446%" stop-color="#fef8f5" stop-opacity="1"></stop><stop offset="85.55555555555554%" stop-color="#fcf1ec" stop-opacity="1"></stop></linearGradient></defs><defs><linearGradient id="grad2_3" x1="0%" y1="100%" x2="56.3%" y2="0%"><stop offset="14.444444444444446%" stop-color="#faebe2" stop-opacity="1"></stop><stop offset="85.55555555555554%" stop-color="#fcf1ec" stop-opacity="1"></stop></linearGradient></defs><defs><linearGradient id="grad2_4" x1="0%" y1="100%" x2="56.3%" y2="0%"><stop offset="14.444444444444446%" stop-color="#faebe2" stop-opacity="1"></stop><stop offset="85.55555555555554%" stop-color="#f8e4d9" stop-opacity="1"></stop></linearGradient></defs><defs><linearGradient id="grad2_5" x1="0%" y1="100%" x2="56.3%" y2="0%"><stop offset="14.444444444444446%" stop-color="#f6ddd0" stop-opacity="1"></stop><stop offset="85.55555555555554%" stop-color="#f8e4d9" stop-opacity="1"></stop></linearGradient></defs><defs><linearGradient id="grad2_6" x1="0%" y1="100%" x2="56.3%" y2="0%"><stop offset="14.444444444444446%" stop-color="#f6ddd0" stop-opacity="1"></stop><stop offset="85.55555555555554%" stop-color="#f4d7c6" stop-opacity="1"></stop></linearGradient></defs><defs><linearGradient id="grad2_7" x1="0%" y1="100%" x2="56.3%" y2="0%"><stop offset="14.444444444444446%" stop-color="#f2d0bd" stop-opacity="1"></stop><stop offset="85.55555555555554%" stop-color="#f4d7c6" stop-opacity="1"></stop></linearGradient></defs><g transform="translate(960, 540)"><path d="M-486 0C-462.9 -27.4 -439.8 -54.7 -437.4 -87C-435 -119.3 -453.3 -156.4 -445.3 -184.5C-437.3 -212.5 -403.1 -231.3 -378.3 -252.8C-353.5 -274.2 -338 -298.3 -315.4 -315.4C-292.7 -332.5 -262.9 -342.7 -237.2 -355C-211.6 -367.4 -190.2 -382 -168 -405.6C-145.8 -429.2 -122.9 -461.8 -94.8 -476.7C-66.7 -491.6 -33.3 -488.8 0 -486L0 0Z" fill="#f3d3c2"></path><path d="M-425.2 0C-405.1 -24 -384.9 -47.9 -382.8 -76.1C-380.6 -104.4 -396.6 -136.9 -389.6 -161.4C-382.7 -185.9 -352.8 -202.4 -331 -221.2C-309.3 -240 -295.8 -261 -275.9 -275.9C-256.1 -290.9 -230 -299.8 -207.6 -310.7C-185.1 -321.5 -166.4 -334.2 -147 -354.9C-127.6 -375.5 -107.6 -404 -83 -417.1C-58.4 -430.1 -29.2 -427.7 0 -425.2L0 0Z" fill="#f5dacb"></path><path d="M-364.5 0C-347.2 -20.5 -329.9 -41.1 -328.1 -65.3C-326.3 -89.5 -340 -117.3 -334 -138.3C-328 -159.4 -302.4 -173.5 -283.7 -189.6C-265.1 -205.7 -253.5 -223.7 -236.5 -236.5C-219.5 -249.4 -197.1 -257 -177.9 -266.3C-158.7 -275.6 -142.6 -286.5 -126 -304.2C-109.4 -321.9 -92.2 -346.3 -71.1 -357.5C-50 -368.7 -25 -366.6 0 -364.5L0 0Z" fill="#f7e1d4"></path><path d="M-303.7 0C-289.3 -17.1 -274.9 -34.2 -273.4 -54.4C-271.9 -74.5 -283.3 -97.8 -278.3 -115.3C-273.3 -132.8 -252 -144.6 -236.4 -158C-220.9 -171.4 -211.3 -186.4 -197.1 -197.1C-182.9 -207.8 -164.3 -214.2 -148.3 -221.9C-132.2 -229.6 -118.9 -238.7 -105 -253.5C-91.1 -268.2 -76.8 -288.6 -59.3 -297.9C-41.7 -307.2 -20.8 -305.5 0 -303.7L0 0Z" fill="#f9e7de"></path><path d="M-243 0C-231.5 -13.7 -219.9 -27.4 -218.7 -43.5C-217.5 -59.6 -226.6 -78.2 -222.7 -92.2C-218.7 -106.2 -201.6 -115.7 -189.2 -126.4C-176.7 -137.1 -169 -149.1 -157.7 -157.7C-146.4 -166.2 -131.4 -171.3 -118.6 -177.5C-105.8 -183.7 -95.1 -191 -84 -202.8C-72.9 -214.6 -61.5 -230.9 -47.4 -238.3C-33.3 -245.8 -16.7 -244.4 0 -243L0 0Z" fill="#fbeee7"></path><path d="M-182.2 0C-173.6 -10.3 -164.9 -20.5 -164 -32.6C-163.1 -44.7 -170 -58.7 -167 -69.2C-164 -79.7 -151.2 -86.8 -141.9 -94.8C-132.6 -102.8 -126.8 -111.8 -118.3 -118.3C-109.8 -124.7 -98.6 -128.5 -89 -133.1C-79.3 -137.8 -71.3 -143.2 -63 -152.1C-54.7 -160.9 -46.1 -173.2 -35.6 -178.7C-25 -184.3 -12.5 -183.3 0 -182.2L0 0Z" fill="#fdf5f1"></path><path d="M-121.5 0C-115.7 -6.8 -110 -13.7 -109.4 -21.8C-108.8 -29.8 -113.3 -39.1 -111.3 -46.1C-109.3 -53.1 -100.8 -57.8 -94.6 -63.2C-88.4 -68.6 -84.5 -74.6 -78.8 -78.8C-73.2 -83.1 -65.7 -85.7 -59.3 -88.8C-52.9 -91.9 -47.5 -95.5 -42 -101.4C-36.5 -107.3 -30.7 -115.4 -23.7 -119.2C-16.7 -122.9 -8.3 -122.2 0 -121.5L0 0Z" fill="#fefcfa"></path><path d="M-60.7 0C-57.9 -3.4 -55 -6.8 -54.7 -10.9C-54.4 -14.9 -56.7 -19.6 -55.7 -23.1C-54.7 -26.6 -50.4 -28.9 -47.3 -31.6C-44.2 -34.3 -42.3 -37.3 -39.4 -39.4C-36.6 -41.6 -32.9 -42.8 -29.7 -44.4C-26.4 -45.9 -23.8 -47.7 -21 -50.7C-18.2 -53.6 -15.4 -57.7 -11.9 -59.6C-8.3 -61.4 -4.2 -61.1 0 -60.7L0 0Z" fill="#ffffff"></path></g><g transform="translate(0, 0)"><path d="M486 0C486.1 33 486.2 65.9 470.8 93.6C455.3 121.3 424.2 143.8 405.6 168C386.9 192.2 380.7 218.2 375 250.6C369.3 282.9 364.3 321.5 343.7 343.7C323.1 365.8 286.9 371.5 257.2 385C227.5 398.4 204.3 419.5 176.4 425.9C148.5 432.3 116 424 85.8 431.5C55.7 439.1 27.8 462.6 0 486L0 0Z" fill="#f3d3c2"></path><path d="M425.3 0C425.4 28.9 425.5 57.7 411.9 81.9C398.4 106.2 371.2 125.8 354.9 147C338.6 168.2 333.1 191 328.1 219.2C323.2 247.5 318.7 281.3 300.7 300.7C282.7 320.1 251.1 325.1 225.1 336.8C199.1 348.6 178.8 367.1 154.4 372.7C130 378.3 101.5 371 75.1 377.6C48.7 384.2 24.4 404.7 0 425.3L0 0Z" fill="#f5dacb"></path><path d="M364.5 0C364.6 24.7 364.7 49.5 353.1 70.2C341.5 91 318.2 107.8 304.2 126C290.2 144.2 285.5 163.7 281.2 187.9C277 212.2 273.2 241.1 257.7 257.7C242.3 274.4 215.2 278.7 192.9 288.7C170.7 298.8 153.2 314.6 132.3 319.4C111.4 324.2 87 318 64.4 323.7C41.7 329.3 20.9 346.9 0 364.5L0 0Z" fill="#f7e1d4"></path><path d="M303.8 0C303.8 20.6 303.9 41.2 294.2 58.5C284.6 75.8 265.2 89.9 253.5 105C241.8 120.1 237.9 136.4 234.4 156.6C230.8 176.8 227.7 200.9 214.8 214.8C201.9 228.6 179.3 232.2 160.8 240.6C142.2 249 127.7 262.2 110.3 266.2C92.8 270.2 72.5 265 53.6 269.7C34.8 274.4 17.4 289.1 0 303.8L0 0Z" fill="#f9e7de"></path><path d="M243 0C243.1 16.5 243.1 33 235.4 46.8C227.7 60.7 212.1 71.9 202.8 84C193.5 96.1 190.3 109.1 187.5 125.3C184.7 141.4 182.1 160.7 171.8 171.8C161.5 182.9 143.5 185.8 128.6 192.5C113.8 199.2 102.1 209.8 88.2 213C74.3 216.2 58 212 42.9 215.8C27.8 219.6 13.9 231.3 0 243L0 0Z" fill="#fbeee7"></path><path d="M182.3 0C182.3 12.4 182.3 24.7 176.5 35.1C170.7 45.5 159.1 53.9 152.1 63C145.1 72.1 142.7 81.8 140.6 94C138.5 106.1 136.6 120.6 128.9 128.9C121.1 137.2 107.6 139.3 96.5 144.4C85.3 149.4 76.6 157.3 66.2 159.7C55.7 162.1 43.5 159 32.2 161.8C20.9 164.7 10.4 173.5 0 182.3L0 0Z" fill="#fdf5f1"></path><path d="M121.5 0C121.5 8.2 121.6 16.5 117.7 23.4C113.8 30.3 106.1 35.9 101.4 42C96.7 48.1 95.2 54.6 93.7 62.6C92.3 70.7 91.1 80.4 85.9 85.9C80.8 91.5 71.7 92.9 64.3 96.2C56.9 99.6 51.1 104.9 44.1 106.5C37.1 108.1 29 106 21.5 107.9C13.9 109.8 7 115.6 0 121.5L0 0Z" fill="#fefcfa"></path><path d="M60.8 0C60.8 4.1 60.8 8.2 58.8 11.7C56.9 15.2 53 18 50.7 21C48.4 24 47.6 27.3 46.9 31.3C46.2 35.4 45.5 40.2 43 43C40.4 45.7 35.9 46.4 32.2 48.1C28.4 49.8 25.5 52.4 22.1 53.2C18.6 54 14.5 53 10.7 53.9C7 54.9 3.5 57.8 0 60.8L0 0Z" fill="#ffffff"></path></g></svg>