<svg id="visual" viewBox="0 0 540 960" width="540" height="960" xmlns="http://www.w3.org/2000/svg" xmlns:xlink="http://www.w3.org/1999/xlink" version="1.1"><rect x="0" y="0" width="540" height="960" fill="#F4D0BD"></rect><defs><linearGradient id="grad1_0" x1="0%" y1="0%" x2="100%" y2="100%"><stop offset="30%" stop-color="#ffffff" stop-opacity="1"></stop><stop offset="70%" stop-color="#ffffff" stop-opacity="1"></stop></linearGradient></defs><defs><linearGradient id="grad1_1" x1="0%" y1="0%" x2="100%" y2="100%"><stop offset="30%" stop-color="#ffffff" stop-opacity="1"></stop><stop offset="70%" stop-color="#fdf5f2" stop-opacity="1"></stop></linearGradient></defs><defs><linearGradient id="grad1_2" x1="0%" y1="0%" x2="100%" y2="100%"><stop offset="30%" stop-color="#fbece4" stop-opacity="1"></stop><stop offset="70%" stop-color="#fdf5f2" stop-opacity="1"></stop></linearGradient></defs><defs><linearGradient id="grad1_3" x1="0%" y1="0%" x2="100%" y2="100%"><stop offset="30%" stop-color="#fbece4" stop-opacity="1"></stop><stop offset="70%" stop-color="#f9e3d7" stop-opacity="1"></stop></linearGradient></defs><defs><linearGradient id="grad1_4" x1="0%" y1="0%" x2="100%" y2="100%"><stop offset="30%" stop-color="#f7d9ca" stop-opacity="1"></stop><stop offset="70%" stop-color="#f9e3d7" stop-opacity="1"></stop></linearGradient></defs><defs><linearGradient id="grad1_5" x1="0%" y1="0%" x2="100%" y2="100%"><stop offset="30%" stop-color="#f7d9ca" stop-opacity="1"></stop><stop offset="70%" stop-color="#f4d0bd" stop-opacity="1"></stop></linearGradient></defs><defs><linearGradient id="grad2_0" x1="0%" y1="0%" x2="100%" y2="100%"><stop offset="30%" stop-color="#ffffff" stop-opacity="1"></stop><stop offset="70%" stop-color="#ffffff" stop-opacity="1"></stop></linearGradient></defs><defs><linearGradient id="grad2_1" x1="0%" y1="0%" x2="100%" y2="100%"><stop offset="30%" stop-color="#fdf5f2" stop-opacity="1"></stop><stop offset="70%" stop-color="#ffffff" stop-opacity="1"></stop></linearGradient></defs><defs><linearGradient id="grad2_2" x1="0%" y1="0%" x2="100%" y2="100%"><stop offset="30%" stop-color="#fdf5f2" stop-opacity="1"></stop><stop offset="70%" stop-color="#fbece4" stop-opacity="1"></stop></linearGradient></defs><defs><linearGradient id="grad2_3" x1="0%" y1="0%" x2="100%" y2="100%"><stop offset="30%" stop-color="#f9e3d7" stop-opacity="1"></stop><stop offset="70%" stop-color="#fbece4" stop-opacity="1"></stop></linearGradient></defs><defs><linearGradient id="grad2_4" x1="0%" y1="0%" x2="100%" y2="100%"><stop offset="30%" stop-color="#f9e3d7" stop-opacity="1"></stop><stop offset="70%" stop-color="#f7d9ca" stop-opacity="1"></stop></linearGradient></defs><defs><linearGradient id="grad2_5" x1="0%" y1="0%" x2="100%" y2="100%"><stop offset="30%" stop-color="#f4d0bd" stop-opacity="1"></stop><stop offset="70%" stop-color="#f7d9ca" stop-opacity="1"></stop></linearGradient></defs><g transform="translate(540, 0)"><path d="M0 486C-57.6 454.7 -115.3 423.4 -162.3 391.7C-209.2 360.1 -245.5 328.2 -297 297C-348.4 265.8 -415 235.4 -449 186C-483 136.6 -484.5 68.3 -486 0L0 0Z" fill="#f5d5c3"></path><path d="M0 405C-48 378.9 -96.1 352.8 -135.2 326.4C-174.4 300.1 -204.6 273.5 -247.5 247.5C-290.4 221.5 -345.8 196.1 -374.2 155C-402.5 113.8 -403.8 56.9 -405 0L0 0Z" fill="#f8ded0"></path><path d="M0 324C-38.4 303.1 -76.9 282.2 -108.2 261.1C-139.5 240.1 -163.7 218.8 -198 198C-232.3 177.2 -276.7 156.9 -299.3 124C-322 91.1 -323 45.5 -324 0L0 0Z" fill="#fae7de"></path><path d="M0 243C-28.8 227.3 -57.6 211.7 -81.1 195.9C-104.6 180 -122.8 164.1 -148.5 148.5C-174.2 132.9 -207.5 117.7 -224.5 93C-241.5 68.3 -242.3 34.2 -243 0L0 0Z" fill="#fcf1eb"></path><path d="M0 162C-19.2 151.6 -38.4 141.1 -54.1 130.6C-69.7 120 -81.8 109.4 -99 99C-116.1 88.6 -138.3 78.5 -149.7 62C-161 45.5 -161.5 22.8 -162 0L0 0Z" fill="#fefaf8"></path><path d="M0 81C-9.6 75.8 -19.2 70.6 -27 65.3C-34.9 60 -40.9 54.7 -49.5 49.5C-58.1 44.3 -69.2 39.2 -74.8 31C-80.5 22.8 -80.8 11.4 -81 0L0 0Z" fill="#ffffff"></path></g><g transform="translate(0, 960)"><path d="M0 -486C48.2 -436.2 96.3 -386.4 150.4 -363.1C204.5 -339.8 264.5 -342.9 318.9 -318.9C373.3 -294.9 422.1 -243.7 449 -186C475.9 -128.3 481 -64.2 486 0L0 0Z" fill="#f5d5c3"></path><path d="M0 -405C40.1 -363.5 80.3 -322 125.3 -302.6C170.4 -283.1 220.4 -285.8 265.8 -265.8C311.1 -245.7 351.7 -203.1 374.2 -155C396.6 -106.9 400.8 -53.5 405 0L0 0Z" fill="#f8ded0"></path><path d="M0 -324C32.1 -290.8 64.2 -257.6 100.3 -242.1C136.3 -226.5 176.3 -228.6 212.6 -212.6C248.9 -196.6 281.4 -162.4 299.3 -124C317.3 -85.5 320.6 -42.8 324 0L0 0Z" fill="#fae7de"></path><path d="M0 -243C24.1 -218.1 48.2 -193.2 75.2 -181.5C102.2 -169.9 132.3 -171.5 159.5 -159.5C186.7 -147.4 211 -121.8 224.5 -93C238 -64.2 240.5 -32.1 243 0L0 0Z" fill="#fcf1eb"></path><path d="M0 -162C16.1 -145.4 32.1 -128.8 50.1 -121C68.2 -113.3 88.2 -114.3 106.3 -106.3C124.4 -98.3 140.7 -81.2 149.7 -62C158.6 -42.8 160.3 -21.4 162 0L0 0Z" fill="#fefaf8"></path><path d="M0 -81C8 -72.7 16.1 -64.4 25.1 -60.5C34.1 -56.6 44.1 -57.2 53.2 -53.2C62.2 -49.1 70.3 -40.6 74.8 -31C79.3 -21.4 80.2 -10.7 81 0L0 0Z" fill="#ffffff"></path></g></svg>