<svg id="visual" viewBox="0 0 960 540" width="960" height="540" xmlns="http://www.w3.org/2000/svg" xmlns:xlink="http://www.w3.org/1999/xlink" version="1.1"><rect x="0" y="0" width="960" height="540" fill="#F2D0BD"></rect><defs><linearGradient id="grad1_0" x1="43.8%" y1="100%" x2="100%" y2="0%"><stop offset="14.444444444444446%" stop-color="#ffffff" stop-opacity="1"></stop><stop offset="85.55555555555554%" stop-color="#ffffff" stop-opacity="1"></stop></linearGradient></defs><defs><linearGradient id="grad1_1" x1="43.8%" y1="100%" x2="100%" y2="0%"><stop offset="14.444444444444446%" stop-color="#ffffff" stop-opacity="1"></stop><stop offset="85.55555555555554%" stop-color="#fdf7f4" stop-opacity="1"></stop></linearGradient></defs><defs><linearGradient id="grad1_2" x1="43.8%" y1="100%" x2="100%" y2="0%"><stop offset="14.444444444444446%" stop-color="#fbefe9" stop-opacity="1"></stop><stop offset="85.55555555555554%" stop-color="#fdf7f4" stop-opacity="1"></stop></linearGradient></defs><defs><linearGradient id="grad1_3" x1="43.8%" y1="100%" x2="100%" y2="0%"><stop offset="14.444444444444446%" stop-color="#fbefe9" stop-opacity="1"></stop><stop offset="85.55555555555554%" stop-color="#f9e7de" stop-opacity="1"></stop></linearGradient></defs><defs><linearGradient id="grad1_4" x1="43.8%" y1="100%" x2="100%" y2="0%"><stop offset="14.444444444444446%" stop-color="#f7e0d3" stop-opacity="1"></stop><stop offset="85.55555555555554%" stop-color="#f9e7de" stop-opacity="1"></stop></linearGradient></defs><defs><linearGradient id="grad1_5" x1="43.8%" y1="100%" x2="100%" y2="0%"><stop offset="14.444444444444446%" stop-color="#f7e0d3" stop-opacity="1"></stop><stop offset="85.55555555555554%" stop-color="#f5d8c8" stop-opacity="1"></stop></linearGradient></defs><defs><linearGradient id="grad1_6" x1="43.8%" y1="100%" x2="100%" y2="0%"><stop offset="14.444444444444446%" stop-color="#f2d0bd" stop-opacity="1"></stop><stop offset="85.55555555555554%" stop-color="#f5d8c8" stop-opacity="1"></stop></linearGradient></defs><defs><linearGradient id="grad2_0" x1="0%" y1="100%" x2="56.3%" y2="0%"><stop offset="14.444444444444446%" stop-color="#ffffff" stop-opacity="1"></stop><stop offset="85.55555555555554%" stop-color="#ffffff" stop-opacity="1"></stop></linearGradient></defs><defs><linearGradient id="grad2_1" x1="0%" y1="100%" x2="56.3%" y2="0%"><stop offset="14.444444444444446%" stop-color="#fdf7f4" stop-opacity="1"></stop><stop offset="85.55555555555554%" stop-color="#ffffff" stop-opacity="1"></stop></linearGradient></defs><defs><linearGradient id="grad2_2" x1="0%" y1="100%" x2="56.3%" y2="0%"><stop offset="14.444444444444446%" stop-color="#fdf7f4" stop-opacity="1"></stop><stop offset="85.55555555555554%" stop-color="#fbefe9" stop-opacity="1"></stop></linearGradient></defs><defs><linearGradient id="grad2_3" x1="0%" y1="100%" x2="56.3%" y2="0%"><stop offset="14.444444444444446%" stop-color="#f9e7de" stop-opacity="1"></stop><stop offset="85.55555555555554%" stop-color="#fbefe9" stop-opacity="1"></stop></linearGradient></defs><defs><linearGradient id="grad2_4" x1="0%" y1="100%" x2="56.3%" y2="0%"><stop offset="14.444444444444446%" stop-color="#f9e7de" stop-opacity="1"></stop><stop offset="85.55555555555554%" stop-color="#f7e0d3" stop-opacity="1"></stop></linearGradient></defs><defs><linearGradient id="grad2_5" x1="0%" y1="100%" x2="56.3%" y2="0%"><stop offset="14.444444444444446%" stop-color="#f5d8c8" stop-opacity="1"></stop><stop offset="85.55555555555554%" stop-color="#f7e0d3" stop-opacity="1"></stop></linearGradient></defs><defs><linearGradient id="grad2_6" x1="0%" y1="100%" x2="56.3%" y2="0%"><stop offset="14.444444444444446%" stop-color="#f5d8c8" stop-opacity="1"></stop><stop offset="85.55555555555554%" stop-color="#f2d0bd" stop-opacity="1"></stop></linearGradient></defs><g transform="translate(960, 540)"><path d="M-486 0C-452.1 -25.9 -418.2 -51.8 -410 -81.5C-401.7 -111.3 -419.2 -144.8 -411.1 -170.3C-403.1 -195.8 -369.5 -213.1 -345.9 -231.1C-322.2 -249.1 -308.5 -267.7 -300.5 -300.5C-292.6 -333.4 -290.5 -380.4 -270 -404.1C-249.5 -427.8 -210.7 -428 -177.2 -427.8C-143.7 -427.5 -115.5 -426.8 -86.8 -436.4C-58.2 -446.1 -29.1 -466 0 -486L0 0Z" fill="#f3d4c2"></path><path d="M-416.6 0C-387.5 -22.2 -358.5 -44.4 -351.4 -69.9C-344.3 -95.4 -359.3 -124.1 -352.4 -146C-345.5 -167.8 -316.8 -182.7 -296.5 -198.1C-276.2 -213.5 -264.4 -229.4 -257.6 -257.6C-250.8 -285.7 -249 -326.1 -231.4 -346.4C-213.9 -366.6 -180.6 -366.8 -151.9 -366.6C-123.1 -366.4 -99 -365.8 -74.4 -374.1C-49.9 -382.4 -24.9 -399.5 0 -416.6L0 0Z" fill="#f6dccd"></path><path d="M-347.1 0C-322.9 -18.5 -298.7 -37 -292.8 -58.2C-287 -79.5 -299.4 -103.4 -293.7 -121.6C-287.9 -139.8 -264 -152.2 -247.1 -165.1C-230.2 -177.9 -220.3 -191.2 -214.7 -214.7C-209 -238.1 -207.5 -271.7 -192.9 -288.6C-178.2 -305.5 -150.5 -305.7 -126.6 -305.5C-102.6 -305.4 -82.5 -304.9 -62 -311.7C-41.6 -318.6 -20.8 -332.9 0 -347.1L0 0Z" fill="#f8e3d8"></path><path d="M-277.7 0C-258.3 -14.8 -239 -29.6 -234.3 -46.6C-229.6 -63.6 -239.5 -82.8 -234.9 -97.3C-230.3 -111.9 -211.2 -121.8 -197.7 -132.1C-184.1 -142.3 -176.3 -153 -171.7 -171.7C-167.2 -190.5 -166 -217.4 -154.3 -230.9C-142.6 -244.4 -120.4 -244.6 -101.2 -244.4C-82.1 -244.3 -66 -243.9 -49.6 -249.4C-33.2 -254.9 -16.6 -266.3 0 -277.7L0 0Z" fill="#faebe3"></path><path d="M-208.3 0C-193.8 -11.1 -179.2 -22.2 -175.7 -34.9C-172.2 -47.7 -179.6 -62.1 -176.2 -73C-172.7 -83.9 -158.4 -91.3 -148.2 -99.1C-138.1 -106.8 -132.2 -114.7 -128.8 -128.8C-125.4 -142.9 -124.5 -163 -115.7 -173.2C-106.9 -183.3 -90.3 -183.4 -75.9 -183.3C-61.6 -183.2 -49.5 -182.9 -37.2 -187C-24.9 -191.2 -12.5 -199.7 0 -208.3L0 0Z" fill="#fcf3ee"></path><path d="M-138.9 0C-129.2 -7.4 -119.5 -14.8 -117.1 -23.3C-114.8 -31.8 -119.8 -41.4 -117.5 -48.7C-115.2 -55.9 -105.6 -60.9 -98.8 -66C-92.1 -71.2 -88.1 -76.5 -85.9 -85.9C-83.6 -95.2 -83 -108.7 -77.1 -115.5C-71.3 -122.2 -60.2 -122.3 -50.6 -122.2C-41 -122.1 -33 -121.9 -24.8 -124.7C-16.6 -127.5 -8.3 -133.2 0 -138.9L0 0Z" fill="#fefbf9"></path><path d="M-69.4 0C-64.6 -3.7 -59.7 -7.4 -58.6 -11.6C-57.4 -15.9 -59.9 -20.7 -58.7 -24.3C-57.6 -28 -52.8 -30.4 -49.4 -33C-46 -35.6 -44.1 -38.2 -42.9 -42.9C-41.8 -47.6 -41.5 -54.3 -38.6 -57.7C-35.6 -61.1 -30.1 -61.1 -25.3 -61.1C-20.5 -61.1 -16.5 -61 -12.4 -62.3C-8.3 -63.7 -4.2 -66.6 0 -69.4L0 0Z" fill="#ffffff"></path></g><g transform="translate(0, 0)"><path d="M486 0C481.2 33 476.5 65.9 455.1 90.5C433.7 115.1 395.6 131.3 384.3 159.2C373 187.1 388.5 226.7 377.5 252.2C366.5 277.8 328.9 289.3 299.1 299.1C269.3 308.9 247.2 317 232.2 347.6C217.3 378.1 209.5 431.1 186 449C162.5 466.9 123.2 449.9 89.5 450.2C55.9 450.5 28 468.3 0 486L0 0Z" fill="#f3d4c2"></path><path d="M416.6 0C412.5 28.3 408.4 56.5 390.1 77.6C371.7 98.7 339.1 112.5 329.4 136.5C319.8 160.4 333 194.3 323.6 216.2C314.1 238.1 281.9 248 256.4 256.4C230.8 264.8 211.9 271.7 199.1 297.9C186.2 324.1 179.6 369.5 159.4 384.9C139.2 400.2 105.6 385.6 76.8 385.9C47.9 386.1 24 401.4 0 416.6L0 0Z" fill="#f6dccd"></path><path d="M347.1 0C343.7 23.5 340.3 47.1 325.1 64.7C309.8 82.2 282.6 93.8 274.5 113.7C266.5 133.6 277.5 161.9 269.6 180.2C261.8 198.4 234.9 206.6 213.6 213.6C192.3 220.7 176.6 226.4 165.9 248.3C155.2 270.1 149.7 307.9 132.8 320.7C116 333.5 88 321.3 64 321.6C39.9 321.8 20 334.5 0 347.1L0 0Z" fill="#f8e3d8"></path><path d="M277.7 0C275 18.8 272.3 37.7 260 51.7C247.8 65.8 226.1 75 219.6 91C213.2 106.9 222 129.5 215.7 144.1C209.4 158.7 188 165.3 170.9 170.9C153.9 176.5 141.2 181.2 132.7 198.6C124.2 216.1 119.7 246.3 106.3 256.6C92.8 266.8 70.4 257.1 51.2 257.2C32 257.4 16 267.6 0 277.7L0 0Z" fill="#faebe3"></path><path d="M208.3 0C206.2 14.1 204.2 28.3 195 38.8C185.9 49.3 169.6 56.3 164.7 68.2C159.9 80.2 166.5 97.1 161.8 108.1C157.1 119 141 124 128.2 128.2C115.4 132.4 105.9 135.9 99.5 149C93.1 162 89.8 184.7 79.7 192.4C69.6 200.1 52.8 192.8 38.4 192.9C24 193.1 12 200.7 0 208.3L0 0Z" fill="#fcf3ee"></path><path d="M138.9 0C137.5 9.4 136.1 18.8 130 25.9C123.9 32.9 113 37.5 109.8 45.5C106.6 53.5 111 64.8 107.9 72.1C104.7 79.4 94 82.7 85.5 85.5C76.9 88.3 70.6 90.6 66.4 99.3C62.1 108 59.9 123.2 53.1 128.3C46.4 133.4 35.2 128.5 25.6 128.6C16 128.7 8 133.8 0 138.9L0 0Z" fill="#fefbf9"></path><path d="M69.4 0C68.7 4.7 68.1 9.4 65 12.9C62 16.4 56.5 18.8 54.9 22.7C53.3 26.7 55.5 32.4 53.9 36C52.4 39.7 47 41.3 42.7 42.7C38.5 44.1 35.3 45.3 33.2 49.7C31 54 29.9 61.6 26.6 64.1C23.2 66.7 17.6 64.3 12.8 64.3C8 64.4 4 66.9 0 69.4L0 0Z" fill="#ffffff"></path></g></svg>