<svg id="visual" viewBox="0 0 540 960" width="540" height="960" xmlns="http://www.w3.org/2000/svg" xmlns:xlink="http://www.w3.org/1999/xlink" version="1.1"><rect x="0" y="0" width="540" height="960" fill="#F4D0BD"></rect><defs><linearGradient id="grad1_0" x1="0%" y1="0%" x2="100%" y2="100%"><stop offset="30%" stop-color="#ffffff" stop-opacity="1"></stop><stop offset="70%" stop-color="#ffffff" stop-opacity="1"></stop></linearGradient></defs><defs><linearGradient id="grad1_1" x1="0%" y1="0%" x2="100%" y2="100%"><stop offset="30%" stop-color="#ffffff" stop-opacity="1"></stop><stop offset="70%" stop-color="#fdf3ee" stop-opacity="1"></stop></linearGradient></defs><defs><linearGradient id="grad1_2" x1="0%" y1="0%" x2="100%" y2="100%"><stop offset="30%" stop-color="#fae7de" stop-opacity="1"></stop><stop offset="70%" stop-color="#fdf3ee" stop-opacity="1"></stop></linearGradient></defs><defs><linearGradient id="grad1_3" x1="0%" y1="0%" x2="100%" y2="100%"><stop offset="30%" stop-color="#fae7de" stop-opacity="1"></stop><stop offset="70%" stop-color="#f7dccd" stop-opacity="1"></stop></linearGradient></defs><defs><linearGradient id="grad1_4" x1="0%" y1="0%" x2="100%" y2="100%"><stop offset="30%" stop-color="#f4d0bd" stop-opacity="1"></stop><stop offset="70%" stop-color="#f7dccd" stop-opacity="1"></stop></linearGradient></defs><defs><linearGradient id="grad2_0" x1="0%" y1="0%" x2="100%" y2="100%"><stop offset="30%" stop-color="#ffffff" stop-opacity="1"></stop><stop offset="70%" stop-color="#ffffff" stop-opacity="1"></stop></linearGradient></defs><defs><linearGradient id="grad2_1" x1="0%" y1="0%" x2="100%" y2="100%"><stop offset="30%" stop-color="#fdf3ee" stop-opacity="1"></stop><stop offset="70%" stop-color="#ffffff" stop-opacity="1"></stop></linearGradient></defs><defs><linearGradient id="grad2_2" x1="0%" y1="0%" x2="100%" y2="100%"><stop offset="30%" stop-color="#fdf3ee" stop-opacity="1"></stop><stop offset="70%" stop-color="#fae7de" stop-opacity="1"></stop></linearGradient></defs><defs><linearGradient id="grad2_3" x1="0%" y1="0%" x2="100%" y2="100%"><stop offset="30%" stop-color="#f7dccd" stop-opacity="1"></stop><stop offset="70%" stop-color="#fae7de" stop-opacity="1"></stop></linearGradient></defs><defs><linearGradient id="grad2_4" x1="0%" y1="0%" x2="100%" y2="100%"><stop offset="30%" stop-color="#f7dccd" stop-opacity="1"></stop><stop offset="70%" stop-color="#f4d0bd" stop-opacity="1"></stop></linearGradient></defs><g transform="translate(540, 0)"><path d="M0 486C-49.7 445.4 -99.3 404.8 -160.3 387.1C-221.4 369.4 -293.8 374.5 -343.7 343.7C-393.5 312.8 -420.7 245.8 -440.7 182.5C-460.6 119.3 -473.3 59.6 -486 0L0 0Z" fill="#f6d6c5"></path><path d="M0 388.8C-39.7 356.3 -79.4 323.9 -128.3 309.7C-177.1 295.5 -235.1 299.6 -274.9 274.9C-314.8 250.2 -336.6 196.7 -352.6 146C-368.5 95.4 -378.7 47.7 -388.8 0L0 0Z" fill="#f9e1d5"></path><path d="M0 291.6C-29.8 267.2 -59.6 242.9 -96.2 232.3C-132.8 221.6 -176.3 224.7 -206.2 206.2C-236.1 187.7 -252.4 147.5 -264.4 109.5C-276.4 71.6 -284 35.8 -291.6 0L0 0Z" fill="#fcede6"></path><path d="M0 194.4C-19.9 178.2 -39.7 161.9 -64.1 154.8C-88.6 147.8 -117.5 149.8 -137.5 137.5C-157.4 125.1 -168.3 98.3 -176.3 73C-184.3 47.7 -189.3 23.9 -194.4 0L0 0Z" fill="#fef9f7"></path><path d="M0 97.2C-9.9 89.1 -19.9 81 -32.1 77.4C-44.3 73.9 -58.8 74.9 -68.7 68.7C-78.7 62.6 -84.1 49.2 -88.1 36.5C-92.1 23.9 -94.7 11.9 -97.2 0L0 0Z" fill="#ffffff"></path></g><g transform="translate(0, 960)"><path d="M0 -486C68.5 -482.7 137 -479.3 184.8 -446.2C232.6 -413.1 259.7 -350.3 305.5 -305.5C351.3 -260.7 415.8 -233.9 449 -186C482.2 -138.1 484.1 -69 486 0L0 0Z" fill="#f6d6c5"></path><path d="M0 -388.8C54.8 -386.1 109.6 -383.5 147.9 -357C186.1 -330.5 207.7 -280.2 244.4 -244.4C281 -208.5 332.6 -187.1 359.2 -148.8C385.8 -110.5 387.3 -55.2 388.8 0L0 0Z" fill="#f9e1d5"></path><path d="M0 -291.6C41.1 -289.6 82.2 -287.6 110.9 -267.7C139.6 -247.9 155.8 -210.2 183.3 -183.3C210.8 -156.4 249.5 -140.3 269.4 -111.6C289.3 -82.8 290.5 -41.4 291.6 0L0 0Z" fill="#fcede6"></path><path d="M0 -194.4C27.4 -193.1 54.8 -191.7 73.9 -178.5C93 -165.3 103.9 -140.1 122.2 -122.2C140.5 -104.3 166.3 -93.6 179.6 -74.4C192.9 -55.2 193.6 -27.6 194.4 0L0 0Z" fill="#fef9f7"></path><path d="M0 -97.2C13.7 -96.5 27.4 -95.9 37 -89.2C46.5 -82.6 51.9 -70.1 61.1 -61.1C70.3 -52.1 83.2 -46.8 89.8 -37.2C96.4 -27.6 96.8 -13.8 97.2 0L0 0Z" fill="#ffffff"></path></g></svg>