<svg id="visual" viewBox="0 0 960 540" width="960" height="540" xmlns="http://www.w3.org/2000/svg" xmlns:xlink="http://www.w3.org/1999/xlink" version="1.1"><rect x="0" y="0" width="960" height="540" fill="#F2D0BD"></rect><defs><linearGradient id="grad1_0" x1="43.8%" y1="100%" x2="100%" y2="0%"><stop offset="14.444444444444446%" stop-color="#ffffff" stop-opacity="1"></stop><stop offset="85.55555555555554%" stop-color="#ffffff" stop-opacity="1"></stop></linearGradient></defs><defs><linearGradient id="grad1_1" x1="43.8%" y1="100%" x2="100%" y2="0%"><stop offset="14.444444444444446%" stop-color="#ffffff" stop-opacity="1"></stop><stop offset="85.55555555555554%" stop-color="#fdf5f2" stop-opacity="1"></stop></linearGradient></defs><defs><linearGradient id="grad1_2" x1="43.8%" y1="100%" x2="100%" y2="0%"><stop offset="14.444444444444446%" stop-color="#fbece4" stop-opacity="1"></stop><stop offset="85.55555555555554%" stop-color="#fdf5f2" stop-opacity="1"></stop></linearGradient></defs><defs><linearGradient id="grad1_3" x1="43.8%" y1="100%" x2="100%" y2="0%"><stop offset="14.444444444444446%" stop-color="#fbece4" stop-opacity="1"></stop><stop offset="85.55555555555554%" stop-color="#f8e3d7" stop-opacity="1"></stop></linearGradient></defs><defs><linearGradient id="grad1_4" x1="43.8%" y1="100%" x2="100%" y2="0%"><stop offset="14.444444444444446%" stop-color="#f5d9ca" stop-opacity="1"></stop><stop offset="85.55555555555554%" stop-color="#f8e3d7" stop-opacity="1"></stop></linearGradient></defs><defs><linearGradient id="grad1_5" x1="43.8%" y1="100%" x2="100%" y2="0%"><stop offset="14.444444444444446%" stop-color="#f5d9ca" stop-opacity="1"></stop><stop offset="85.55555555555554%" stop-color="#f2d0bd" stop-opacity="1"></stop></linearGradient></defs><defs><linearGradient id="grad2_0" x1="0%" y1="100%" x2="56.3%" y2="0%"><stop offset="14.444444444444446%" stop-color="#ffffff" stop-opacity="1"></stop><stop offset="85.55555555555554%" stop-color="#ffffff" stop-opacity="1"></stop></linearGradient></defs><defs><linearGradient id="grad2_1" x1="0%" y1="100%" x2="56.3%" y2="0%"><stop offset="14.444444444444446%" stop-color="#fdf5f2" stop-opacity="1"></stop><stop offset="85.55555555555554%" stop-color="#ffffff" stop-opacity="1"></stop></linearGradient></defs><defs><linearGradient id="grad2_2" x1="0%" y1="100%" x2="56.3%" y2="0%"><stop offset="14.444444444444446%" stop-color="#fdf5f2" stop-opacity="1"></stop><stop offset="85.55555555555554%" stop-color="#fbece4" stop-opacity="1"></stop></linearGradient></defs><defs><linearGradient id="grad2_3" x1="0%" y1="100%" x2="56.3%" y2="0%"><stop offset="14.444444444444446%" stop-color="#f8e3d7" stop-opacity="1"></stop><stop offset="85.55555555555554%" stop-color="#fbece4" stop-opacity="1"></stop></linearGradient></defs><defs><linearGradient id="grad2_4" x1="0%" y1="100%" x2="56.3%" y2="0%"><stop offset="14.444444444444446%" stop-color="#f8e3d7" stop-opacity="1"></stop><stop offset="85.55555555555554%" stop-color="#f5d9ca" stop-opacity="1"></stop></linearGradient></defs><defs><linearGradient id="grad2_5" x1="0%" y1="100%" x2="56.3%" y2="0%"><stop offset="14.444444444444446%" stop-color="#f2d0bd" stop-opacity="1"></stop><stop offset="85.55555555555554%" stop-color="#f5d9ca" stop-opacity="1"></stop></linearGradient></defs><g transform="translate(960, 540)"><path d="M-486 0C-465.9 -29.2 -445.9 -58.4 -434.5 -86.4C-423.1 -114.4 -420.4 -141.2 -420.4 -174.1C-420.3 -207.1 -422.8 -246.2 -404.1 -270C-385.4 -293.8 -345.4 -302.3 -314 -314C-282.5 -325.6 -259.7 -340.4 -236.1 -353.4C-212.6 -366.4 -188.3 -377.6 -165.3 -399.1C-142.3 -420.7 -120.6 -452.6 -93.3 -468.8C-65.9 -485 -33 -485.5 0 -486L0 0Z" fill="#f4d5c3"></path><path d="M-405 0C-388.3 -24.3 -371.6 -48.7 -362.1 -72C-352.6 -95.3 -350.4 -117.6 -350.3 -145.1C-350.2 -172.6 -352.4 -205.2 -336.7 -225C-321.1 -244.8 -287.8 -251.9 -261.6 -261.6C-235.4 -271.3 -216.4 -283.7 -196.8 -294.5C-177.1 -305.3 -156.9 -314.6 -137.8 -332.6C-118.6 -350.6 -100.5 -377.2 -77.7 -390.7C-54.9 -404.2 -27.5 -404.6 0 -405L0 0Z" fill="#f7ded0"></path><path d="M-324 0C-310.6 -19.5 -297.2 -39 -289.7 -57.6C-282.1 -76.3 -280.3 -94.1 -280.2 -116.1C-280.2 -138 -281.9 -164.1 -269.4 -180C-256.9 -195.9 -230.3 -201.5 -209.3 -209.3C-188.4 -217.1 -173.1 -226.9 -157.4 -235.6C-141.7 -244.2 -125.5 -251.7 -110.2 -266.1C-94.9 -280.5 -80.4 -301.7 -62.2 -312.5C-43.9 -323.3 -22 -323.7 0 -324L0 0Z" fill="#f9e7de"></path><path d="M-243 0C-233 -14.6 -222.9 -29.2 -217.2 -43.2C-211.6 -57.2 -210.2 -70.6 -210.2 -87.1C-210.1 -103.5 -211.4 -123.1 -202 -135C-192.7 -146.9 -172.7 -151.2 -157 -157C-141.3 -162.8 -129.8 -170.2 -118.1 -176.7C-106.3 -183.2 -94.2 -188.8 -82.7 -199.6C-71.2 -210.3 -60.3 -226.3 -46.6 -234.4C-33 -242.5 -16.5 -242.8 0 -243L0 0Z" fill="#fcf1eb"></path><path d="M-162 0C-155.3 -9.7 -148.6 -19.5 -144.8 -28.8C-141 -38.1 -140.1 -47.1 -140.1 -58C-140.1 -69 -140.9 -82.1 -134.7 -90C-128.5 -97.9 -115.1 -100.8 -104.7 -104.7C-94.2 -108.5 -86.6 -113.5 -78.7 -117.8C-70.9 -122.1 -62.8 -125.9 -55.1 -133C-47.4 -140.2 -40.2 -150.9 -31.1 -156.3C-22 -161.7 -11 -161.8 0 -162L0 0Z" fill="#fefaf8"></path><path d="M-81 0C-77.7 -4.9 -74.3 -9.7 -72.4 -14.4C-70.5 -19.1 -70.1 -23.5 -70.1 -29C-70 -34.5 -70.5 -41 -67.3 -45C-64.2 -49 -57.6 -50.4 -52.3 -52.3C-47.1 -54.3 -43.3 -56.7 -39.4 -58.9C-35.4 -61.1 -31.4 -62.9 -27.6 -66.5C-23.7 -70.1 -20.1 -75.4 -15.5 -78.1C-11 -80.8 -5.5 -80.9 0 -81L0 0Z" fill="#ffffff"></path></g><g transform="translate(0, 0)"><path d="M486 0C452.5 25.3 418.9 50.5 416.8 82.9C414.7 115.3 444.1 154.8 437 181C429.9 207.2 386.4 220.2 363.4 242.8C340.4 265.4 337.9 297.6 322.4 322.4C307 347.3 278.5 364.7 249.5 373.3C220.4 381.9 190.8 381.6 166.1 401C141.4 420.3 121.7 459.2 94.8 476.7C68 494.1 34 490.1 0 486L0 0Z" fill="#f4d5c3"></path><path d="M405 0C377.1 21.1 349.1 42.1 347.4 69.1C345.6 96.1 370.1 129 364.2 150.8C358.2 172.7 322 183.5 302.8 202.3C283.6 221.1 281.6 248 268.7 268.7C255.8 289.4 232.1 304 207.9 311.1C183.7 318.3 159 318 138.4 334.1C117.8 350.2 101.4 382.7 79 397.2C56.6 411.8 28.3 408.4 0 405L0 0Z" fill="#f7ded0"></path><path d="M324 0C301.6 16.8 279.3 33.7 277.9 55.3C276.5 76.9 296.1 103.2 291.3 120.7C286.6 138.2 257.6 146.8 242.2 161.9C226.9 176.9 225.3 198.4 215 215C204.7 231.5 185.7 243.2 166.3 248.9C146.9 254.6 127.2 254.4 110.7 267.3C94.3 280.2 81.1 306.1 63.2 317.8C45.3 329.4 22.7 326.7 0 324L0 0Z" fill="#f9e7de"></path><path d="M243 0C226.2 12.6 209.5 25.3 208.4 41.5C207.4 57.6 222 77.4 218.5 90.5C214.9 103.6 193.2 110.1 181.7 121.4C170.2 132.7 169 148.8 161.2 161.2C153.5 173.6 139.3 182.4 124.7 186.7C110.2 191 95.4 190.8 83 200.5C70.7 210.1 60.8 229.6 47.4 238.3C34 247.1 17 245 0 243L0 0Z" fill="#fcf1eb"></path><path d="M162 0C150.8 8.4 139.6 16.8 138.9 27.6C138.2 38.4 148 51.6 145.7 60.3C143.3 69.1 128.8 73.4 121.1 80.9C113.5 88.5 112.6 99.2 107.5 107.5C102.3 115.8 92.8 121.6 83.2 124.4C73.5 127.3 63.6 127.2 55.4 133.7C47.1 140.1 40.6 153.1 31.6 158.9C22.7 164.7 11.3 163.4 0 162L0 0Z" fill="#fefaf8"></path><path d="M81 0C75.4 4.2 69.8 8.4 69.5 13.8C69.1 19.2 74 25.8 72.8 30.2C71.6 34.5 64.4 36.7 60.6 40.5C56.7 44.2 56.3 49.6 53.7 53.7C51.2 57.9 46.4 60.8 41.6 62.2C36.7 63.7 31.8 63.6 27.7 66.8C23.6 70 20.3 76.5 15.8 79.4C11.3 82.4 5.7 81.7 0 81L0 0Z" fill="#ffffff"></path></g></svg>