<svg id="visual" viewBox="0 0 540 960" width="540" height="960" xmlns="http://www.w3.org/2000/svg" xmlns:xlink="http://www.w3.org/1999/xlink" version="1.1"><rect x="0" y="0" width="540" height="960" fill="#F4D0BD"></rect><defs><linearGradient id="grad1_0" x1="0%" y1="0%" x2="100%" y2="100%"><stop offset="30%" stop-color="#ffffff" stop-opacity="1"></stop><stop offset="70%" stop-color="#ffffff" stop-opacity="1"></stop></linearGradient></defs><defs><linearGradient id="grad1_1" x1="0%" y1="0%" x2="100%" y2="100%"><stop offset="30%" stop-color="#ffffff" stop-opacity="1"></stop><stop offset="70%" stop-color="#fcefe9" stop-opacity="1"></stop></linearGradient></defs><defs><linearGradient id="grad1_2" x1="0%" y1="0%" x2="100%" y2="100%"><stop offset="30%" stop-color="#f8e0d3" stop-opacity="1"></stop><stop offset="70%" stop-color="#fcefe9" stop-opacity="1"></stop></linearGradient></defs><defs><linearGradient id="grad1_3" x1="0%" y1="0%" x2="100%" y2="100%"><stop offset="30%" stop-color="#f8e0d3" stop-opacity="1"></stop><stop offset="70%" stop-color="#f4d0bd" stop-opacity="1"></stop></linearGradient></defs><defs><linearGradient id="grad2_0" x1="0%" y1="0%" x2="100%" y2="100%"><stop offset="30%" stop-color="#ffffff" stop-opacity="1"></stop><stop offset="70%" stop-color="#ffffff" stop-opacity="1"></stop></linearGradient></defs><defs><linearGradient id="grad2_1" x1="0%" y1="0%" x2="100%" y2="100%"><stop offset="30%" stop-color="#fcefe9" stop-opacity="1"></stop><stop offset="70%" stop-color="#ffffff" stop-opacity="1"></stop></linearGradient></defs><defs><linearGradient id="grad2_2" x1="0%" y1="0%" x2="100%" y2="100%"><stop offset="30%" stop-color="#fcefe9" stop-opacity="1"></stop><stop offset="70%" stop-color="#f8e0d3" stop-opacity="1"></stop></linearGradient></defs><defs><linearGradient id="grad2_3" x1="0%" y1="0%" x2="100%" y2="100%"><stop offset="30%" stop-color="#f4d0bd" stop-opacity="1"></stop><stop offset="70%" stop-color="#f8e0d3" stop-opacity="1"></stop></linearGradient></defs><g transform="translate(540, 0)"><path d="M0 486C-61.6 466.4 -123.1 446.8 -172.6 416.7C-222.1 386.5 -259.4 345.7 -308.3 308.3C-357.2 270.9 -417.5 236.8 -449 186C-480.5 135.2 -483.3 67.6 -486 0L0 0Z" fill="#f6d8c8"></path><path d="M0 364.5C-46.2 349.8 -92.3 335.1 -129.4 312.5C-166.5 289.9 -194.6 259.3 -231.2 231.2C-267.9 203.2 -313.1 177.6 -336.8 139.5C-360.4 101.4 -362.5 50.7 -364.5 0L0 0Z" fill="#fae7de"></path><path d="M0 243C-30.8 233.2 -61.6 223.4 -86.3 208.3C-111 193.2 -129.7 172.9 -154.1 154.1C-178.6 135.4 -208.7 118.4 -224.5 93C-240.3 67.6 -241.6 33.8 -243 0L0 0Z" fill="#fef7f4"></path><path d="M0 121.5C-15.4 116.6 -30.8 111.7 -43.1 104.2C-55.5 96.6 -64.9 86.4 -77.1 77.1C-89.3 67.7 -104.4 59.2 -112.3 46.5C-120.1 33.8 -120.8 16.9 -121.5 0L0 0Z" fill="#ffffff"></path></g><g transform="translate(0, 960)"><path d="M0 -486C57.3 -459.3 114.6 -432.5 168.8 -407.4C223 -382.4 274 -359 323.9 -323.9C373.7 -288.7 422.2 -241.9 449 -186C475.8 -130.1 480.9 -65 486 0L0 0Z" fill="#f6d8c8"></path><path d="M0 -364.5C43 -344.4 85.9 -324.4 126.6 -305.6C167.2 -286.8 205.5 -269.2 242.9 -242.9C280.2 -216.6 316.6 -181.4 336.8 -139.5C356.9 -97.5 360.7 -48.8 364.5 0L0 0Z" fill="#fae7de"></path><path d="M0 -243C28.6 -229.6 57.3 -216.3 84.4 -203.7C111.5 -191.2 137 -179.5 161.9 -161.9C186.8 -144.4 211.1 -121 224.5 -93C237.9 -65 240.5 -32.5 243 0L0 0Z" fill="#fef7f4"></path><path d="M0 -121.5C14.3 -114.8 28.6 -108.1 42.2 -101.9C55.7 -95.6 68.5 -89.7 81 -81C93.4 -72.2 105.5 -60.5 112.3 -46.5C119 -32.5 120.2 -16.3 121.5 0L0 0Z" fill="#ffffff"></path></g></svg>