<svg id="visual" viewBox="0 0 960 540" width="960" height="540" xmlns="http://www.w3.org/2000/svg" xmlns:xlink="http://www.w3.org/1999/xlink" version="1.1"><rect x="0" y="0" width="960" height="540" fill="#F2D0BD"></rect><defs><linearGradient id="grad1_0" x1="43.8%" y1="100%" x2="100%" y2="0%"><stop offset="14.444444444444446%" stop-color="#ffffff" stop-opacity="1"></stop><stop offset="85.55555555555554%" stop-color="#ffffff" stop-opacity="1"></stop></linearGradient></defs><defs><linearGradient id="grad1_1" x1="43.8%" y1="100%" x2="100%" y2="0%"><stop offset="14.444444444444446%" stop-color="#ffffff" stop-opacity="1"></stop><stop offset="85.55555555555554%" stop-color="#fcf3ee" stop-opacity="1"></stop></linearGradient></defs><defs><linearGradient id="grad1_2" x1="43.8%" y1="100%" x2="100%" y2="0%"><stop offset="14.444444444444446%" stop-color="#f9e7de" stop-opacity="1"></stop><stop offset="85.55555555555554%" stop-color="#fcf3ee" stop-opacity="1"></stop></linearGradient></defs><defs><linearGradient id="grad1_3" x1="43.8%" y1="100%" x2="100%" y2="0%"><stop offset="14.444444444444446%" stop-color="#f9e7de" stop-opacity="1"></stop><stop offset="85.55555555555554%" stop-color="#f6dccd" stop-opacity="1"></stop></linearGradient></defs><defs><linearGradient id="grad1_4" x1="43.8%" y1="100%" x2="100%" y2="0%"><stop offset="14.444444444444446%" stop-color="#f2d0bd" stop-opacity="1"></stop><stop offset="85.55555555555554%" stop-color="#f6dccd" stop-opacity="1"></stop></linearGradient></defs><defs><linearGradient id="grad2_0" x1="0%" y1="100%" x2="56.3%" y2="0%"><stop offset="14.444444444444446%" stop-color="#ffffff" stop-opacity="1"></stop><stop offset="85.55555555555554%" stop-color="#ffffff" stop-opacity="1"></stop></linearGradient></defs><defs><linearGradient id="grad2_1" x1="0%" y1="100%" x2="56.3%" y2="0%"><stop offset="14.444444444444446%" stop-color="#fcf3ee" stop-opacity="1"></stop><stop offset="85.55555555555554%" stop-color="#ffffff" stop-opacity="1"></stop></linearGradient></defs><defs><linearGradient id="grad2_2" x1="0%" y1="100%" x2="56.3%" y2="0%"><stop offset="14.444444444444446%" stop-color="#fcf3ee" stop-opacity="1"></stop><stop offset="85.55555555555554%" stop-color="#f9e7de" stop-opacity="1"></stop></linearGradient></defs><defs><linearGradient id="grad2_3" x1="0%" y1="100%" x2="56.3%" y2="0%"><stop offset="14.444444444444446%" stop-color="#f6dccd" stop-opacity="1"></stop><stop offset="85.55555555555554%" stop-color="#f9e7de" stop-opacity="1"></stop></linearGradient></defs><defs><linearGradient id="grad2_4" x1="0%" y1="100%" x2="56.3%" y2="0%"><stop offset="14.444444444444446%" stop-color="#f6dccd" stop-opacity="1"></stop><stop offset="85.55555555555554%" stop-color="#f2d0bd" stop-opacity="1"></stop></linearGradient></defs><g transform="translate(960, 540)"><path d="M-486 0C-476.9 -31.1 -467.8 -62.3 -453.1 -90.1C-438.4 -118 -418.2 -142.7 -402.8 -166.8C-387.5 -191 -377 -214.8 -371.7 -248.3C-366.3 -281.9 -366 -325.2 -343.7 -343.7C-321.3 -362.1 -276.9 -355.8 -246.7 -369.2C-216.4 -382.5 -200.3 -415.6 -174.1 -420.4C-148 -425.2 -111.8 -401.8 -81.2 -408C-50.5 -414.2 -25.2 -450.1 0 -486L0 0Z" fill="#f4d6c5"></path><path d="M-388.8 0C-381.5 -24.9 -374.2 -49.8 -362.5 -72.1C-350.7 -94.4 -334.5 -114.1 -322.2 -133.5C-310 -152.8 -301.6 -171.8 -297.3 -198.7C-293 -225.5 -292.8 -260.1 -274.9 -274.9C-257.1 -289.7 -221.5 -284.7 -197.3 -295.3C-173.1 -306 -160.2 -332.4 -139.3 -336.3C-118.4 -340.1 -89.5 -321.4 -64.9 -326.4C-40.4 -331.4 -20.2 -360.1 0 -388.8L0 0Z" fill="#f8e1d5"></path><path d="M-291.6 0C-286.1 -18.7 -280.7 -37.4 -271.9 -54.1C-263.1 -70.8 -250.9 -85.6 -241.7 -100.1C-232.5 -114.6 -226.2 -128.9 -223 -149C-219.8 -169.1 -219.6 -195.1 -206.2 -206.2C-192.8 -217.3 -166.2 -213.5 -148 -221.5C-129.8 -229.5 -120.2 -249.3 -104.5 -252.2C-88.8 -255.1 -67.1 -241.1 -48.7 -244.8C-30.3 -248.5 -15.1 -270.1 0 -291.6L0 0Z" fill="#fbede6"></path><path d="M-194.4 0C-190.8 -12.5 -187.1 -24.9 -181.2 -36.1C-175.4 -47.2 -167.3 -57.1 -161.1 -66.7C-155 -76.4 -150.8 -85.9 -148.7 -99.3C-146.5 -112.7 -146.4 -130.1 -137.5 -137.5C-128.5 -144.9 -110.8 -142.3 -98.7 -147.7C-86.6 -153 -80.1 -166.2 -69.6 -168.1C-59.2 -170.1 -44.7 -160.7 -32.5 -163.2C-20.2 -165.7 -10.1 -180 0 -194.4L0 0Z" fill="#fef9f7"></path><path d="M-97.2 0C-95.4 -6.2 -93.6 -12.5 -90.6 -18C-87.7 -23.6 -83.6 -28.5 -80.6 -33.4C-77.5 -38.2 -75.4 -43 -74.3 -49.7C-73.3 -56.4 -73.2 -65 -68.7 -68.7C-64.3 -72.4 -55.4 -71.2 -49.3 -73.8C-43.3 -76.5 -40.1 -83.1 -34.8 -84.1C-29.6 -85 -22.4 -80.4 -16.2 -81.6C-10.1 -82.8 -5 -90 0 -97.2L0 0Z" fill="#ffffff"></path></g><g transform="translate(0, 0)"><path d="M486 0C455.8 27.1 425.6 54.2 413.9 82.3C402.2 110.5 409 139.8 404.7 167.6C400.4 195.5 385 221.9 365 243.9C345 265.9 320.4 283.4 295.6 295.6C270.7 307.8 245.7 314.7 230 344.2C214.3 373.8 207.9 426.1 186 449C164 471.9 126.5 465.6 92.9 466.9C59.3 468.1 29.6 477.1 0 486L0 0Z" fill="#f4d6c5"></path><path d="M388.8 0C364.6 21.7 340.5 43.3 331.1 65.9C321.7 88.4 327.2 111.8 323.7 134.1C320.3 156.4 308 177.5 292 195.1C276 212.7 256.3 226.7 236.5 236.5C216.6 246.2 196.6 251.7 184 275.4C171.4 299 166.4 340.9 148.8 359.2C131.2 377.6 101.2 372.5 74.3 373.5C47.4 374.5 23.7 381.7 0 388.8L0 0Z" fill="#f8e1d5"></path><path d="M291.6 0C273.5 16.2 255.4 32.5 248.3 49.4C241.3 66.3 245.4 83.9 242.8 100.6C240.2 117.3 231 133.2 219 146.3C207 159.5 192.2 170 177.3 177.3C162.4 184.7 147.4 188.8 138 206.5C128.6 224.3 124.8 255.6 111.6 269.4C98.4 283.2 75.9 279.3 55.7 280.1C35.6 280.9 17.8 286.2 0 291.6L0 0Z" fill="#fbede6"></path><path d="M194.4 0C182.3 10.8 170.2 21.7 165.6 32.9C160.9 44.2 163.6 55.9 161.9 67C160.1 78.2 154 88.8 146 97.6C138 106.3 128.2 113.3 118.2 118.2C108.3 123.1 98.3 125.9 92 137.7C85.7 149.5 83.2 170.4 74.4 179.6C65.6 188.8 50.6 186.2 37.1 186.7C23.7 187.3 11.9 190.8 0 194.4L0 0Z" fill="#fef9f7"></path><path d="M97.2 0C91.2 5.4 85.1 10.8 82.8 16.5C80.4 22.1 81.8 28 80.9 33.5C80.1 39.1 77 44.4 73 48.8C69 53.2 64.1 56.7 59.1 59.1C54.1 61.6 49.1 62.9 46 68.8C42.9 74.8 41.6 85.2 37.2 89.8C32.8 94.4 25.3 93.1 18.6 93.4C11.9 93.6 5.9 95.4 0 97.2L0 0Z" fill="#ffffff"></path></g></svg>