<svg id="visual" viewBox="0 0 540 960" width="540" height="960" xmlns="http://www.w3.org/2000/svg" xmlns:xlink="http://www.w3.org/1999/xlink" version="1.1"><rect x="0" y="0" width="540" height="960" fill="#F4D0BD"></rect><defs><linearGradient id="grad1_0" x1="0%" y1="0%" x2="100%" y2="100%"><stop offset="30%" stop-color="#ffffff" stop-opacity="1"></stop><stop offset="70%" stop-color="#ffffff" stop-opacity="1"></stop></linearGradient></defs><defs><linearGradient id="grad1_1" x1="0%" y1="0%" x2="100%" y2="100%"><stop offset="30%" stop-color="#ffffff" stop-opacity="1"></stop><stop offset="70%" stop-color="#fae7de" stop-opacity="1"></stop></linearGradient></defs><defs><linearGradient id="grad1_2" x1="0%" y1="0%" x2="100%" y2="100%"><stop offset="30%" stop-color="#f4d0bd" stop-opacity="1"></stop><stop offset="70%" stop-color="#fae7de" stop-opacity="1"></stop></linearGradient></defs><defs><linearGradient id="grad2_0" x1="0%" y1="0%" x2="100%" y2="100%"><stop offset="30%" stop-color="#ffffff" stop-opacity="1"></stop><stop offset="70%" stop-color="#ffffff" stop-opacity="1"></stop></linearGradient></defs><defs><linearGradient id="grad2_1" x1="0%" y1="0%" x2="100%" y2="100%"><stop offset="30%" stop-color="#fae7de" stop-opacity="1"></stop><stop offset="70%" stop-color="#ffffff" stop-opacity="1"></stop></linearGradient></defs><defs><linearGradient id="grad2_2" x1="0%" y1="0%" x2="100%" y2="100%"><stop offset="30%" stop-color="#fae7de" stop-opacity="1"></stop><stop offset="70%" stop-color="#f4d0bd" stop-opacity="1"></stop></linearGradient></defs><g transform="translate(540, 0)"><path d="M0 486C-54.5 456.8 -109 427.7 -169.1 408.4C-229.3 389 -295.1 379.5 -343.7 343.7C-392.2 307.8 -423.5 245.7 -444.4 184.1C-465.2 122.4 -475.6 61.2 -486 0L0 0Z" fill="#f7dccd"></path><path d="M0 324C-36.3 304.6 -72.7 285.1 -112.8 272.2C-152.9 259.3 -196.7 253 -229.1 229.1C-261.5 205.2 -282.4 163.8 -296.3 122.7C-310.2 81.6 -317.1 40.8 -324 0L0 0Z" fill="#fdf3ee"></path><path d="M0 162C-18.2 152.3 -36.3 142.6 -56.4 136.1C-76.4 129.7 -98.4 126.5 -114.6 114.6C-130.7 102.6 -141.2 81.9 -148.1 61.4C-155.1 40.8 -158.5 20.4 -162 0L0 0Z" fill="#ffffff"></path></g><g transform="translate(0, 960)"><path d="M0 -486C65 -477.4 129.9 -468.7 182.5 -440.7C235.1 -412.6 275.4 -365.2 321.7 -321.7C368.1 -278.3 420.6 -238.9 449 -186C477.4 -133 481.7 -66.5 486 0L0 0Z" fill="#f7dccd"></path><path d="M0 -324C43.3 -318.2 86.6 -312.5 121.7 -293.8C156.8 -275.1 183.6 -243.4 214.5 -214.5C245.4 -185.5 280.4 -159.3 299.3 -124C318.3 -88.7 321.1 -44.3 324 0L0 0Z" fill="#fdf3ee"></path><path d="M0 -162C21.7 -159.1 43.3 -156.2 60.8 -146.9C78.4 -137.5 91.8 -121.7 107.2 -107.2C122.7 -92.8 140.2 -79.6 149.7 -62C159.1 -44.3 160.6 -22.2 162 0L0 0Z" fill="#ffffff"></path></g></svg>