<svg id="visual" viewBox="0 0 960 540" width="960" height="540" xmlns="http://www.w3.org/2000/svg" xmlns:xlink="http://www.w3.org/1999/xlink" version="1.1"><rect x="0" y="0" width="960" height="540" fill="#F2D0BD"></rect><defs><linearGradient id="grad1_0" x1="43.8%" y1="100%" x2="100%" y2="0%"><stop offset="14.444444444444446%" stop-color="#ffffff" stop-opacity="1"></stop><stop offset="85.55555555555554%" stop-color="#ffffff" stop-opacity="1"></stop></linearGradient></defs><defs><linearGradient id="grad1_1" x1="43.8%" y1="100%" x2="100%" y2="0%"><stop offset="14.444444444444446%" stop-color="#ffffff" stop-opacity="1"></stop><stop offset="85.55555555555554%" stop-color="#fbefe9" stop-opacity="1"></stop></linearGradient></defs><defs><linearGradient id="grad1_2" x1="43.8%" y1="100%" x2="100%" y2="0%"><stop offset="14.444444444444446%" stop-color="#f7e0d3" stop-opacity="1"></stop><stop offset="85.55555555555554%" stop-color="#fbefe9" stop-opacity="1"></stop></linearGradient></defs><defs><linearGradient id="grad1_3" x1="43.8%" y1="100%" x2="100%" y2="0%"><stop offset="14.444444444444446%" stop-color="#f7e0d3" stop-opacity="1"></stop><stop offset="85.55555555555554%" stop-color="#f2d0bd" stop-opacity="1"></stop></linearGradient></defs><defs><linearGradient id="grad2_0" x1="0%" y1="100%" x2="56.3%" y2="0%"><stop offset="14.444444444444446%" stop-color="#ffffff" stop-opacity="1"></stop><stop offset="85.55555555555554%" stop-color="#ffffff" stop-opacity="1"></stop></linearGradient></defs><defs><linearGradient id="grad2_1" x1="0%" y1="100%" x2="56.3%" y2="0%"><stop offset="14.444444444444446%" stop-color="#fbefe9" stop-opacity="1"></stop><stop offset="85.55555555555554%" stop-color="#ffffff" stop-opacity="1"></stop></linearGradient></defs><defs><linearGradient id="grad2_2" x1="0%" y1="100%" x2="56.3%" y2="0%"><stop offset="14.444444444444446%" stop-color="#fbefe9" stop-opacity="1"></stop><stop offset="85.55555555555554%" stop-color="#f7e0d3" stop-opacity="1"></stop></linearGradient></defs><defs><linearGradient id="grad2_3" x1="0%" y1="100%" x2="56.3%" y2="0%"><stop offset="14.444444444444446%" stop-color="#f2d0bd" stop-opacity="1"></stop><stop offset="85.55555555555554%" stop-color="#f7e0d3" stop-opacity="1"></stop></linearGradient></defs><g transform="translate(960, 540)"><path d="M-486 0C-488.3 -33.6 -490.7 -67.2 -473.7 -94.2C-456.7 -121.3 -420.4 -141.8 -401 -166.1C-381.5 -190.3 -378.9 -218.3 -372.5 -248.9C-366.1 -279.5 -356.1 -312.9 -336.6 -336.6C-317.1 -360.3 -288.2 -374.3 -262.2 -392.5C-236.2 -410.6 -213 -432.9 -185.6 -448.1C-158.2 -463.3 -126.5 -471.5 -94.8 -476.7C-63.2 -481.8 -31.6 -483.9 0 -486L0 0Z" fill="#f5d8c8"></path><path d="M-364.5 0C-366.3 -25.2 -368 -50.4 -355.3 -70.7C-342.6 -91 -315.3 -106.4 -300.7 -124.6C-286.1 -142.7 -284.1 -163.7 -279.4 -186.7C-274.6 -209.7 -267 -234.7 -252.4 -252.4C-237.8 -270.2 -216.2 -280.7 -196.7 -294.3C-177.2 -307.9 -159.8 -324.6 -139.2 -336.1C-118.6 -347.5 -94.8 -353.6 -71.1 -357.5C-47.4 -361.4 -23.7 -362.9 0 -364.5L0 0Z" fill="#f9e7de"></path><path d="M-243 0C-244.2 -16.8 -245.3 -33.6 -236.9 -47.1C-228.4 -60.6 -210.2 -70.9 -200.5 -83C-190.7 -95.2 -189.4 -109.1 -186.2 -124.4C-183.1 -139.8 -178 -156.4 -168.3 -168.3C-158.6 -180.1 -144.1 -187.2 -131.1 -196.2C-118.1 -205.3 -106.5 -216.4 -92.8 -224C-79.1 -231.7 -63.2 -235.8 -47.4 -238.3C-31.6 -240.9 -15.8 -242 0 -243L0 0Z" fill="#fdf7f4"></path><path d="M-121.5 0C-122.1 -8.4 -122.7 -16.8 -118.4 -23.6C-114.2 -30.3 -105.1 -35.5 -100.2 -41.5C-95.4 -47.6 -94.7 -54.6 -93.1 -62.2C-91.5 -69.9 -89 -78.2 -84.1 -84.1C-79.3 -90.1 -72.1 -93.6 -65.6 -98.1C-59.1 -102.6 -53.3 -108.2 -46.4 -112C-39.5 -115.8 -31.6 -117.9 -23.7 -119.2C-15.8 -120.5 -7.9 -121 0 -121.5L0 0Z" fill="#ffffff"></path></g><g transform="translate(0, 0)"><path d="M486 0C454 25.3 422.1 50.6 422.7 84.1C423.3 117.6 456.5 159.3 449 186C441.5 212.7 393.2 224.3 366.7 245C340.2 265.7 335.5 295.3 320.3 320.3C305.2 345.3 279.5 365.6 251.1 375.8C222.7 386 191.5 386.1 164.9 398.2C138.4 410.3 116.5 434.5 89.7 451.2C63 467.8 31.5 476.9 0 486L0 0Z" fill="#f5d8c8"></path><path d="M364.5 0C340.5 19 316.6 37.9 317 63.1C317.5 88.2 342.4 119.5 336.8 139.5C331.1 159.5 294.9 168.3 275 183.8C255.1 199.3 251.6 221.5 240.2 240.2C228.9 259 209.6 274.2 188.3 281.9C167 289.5 143.6 289.6 123.7 298.6C103.8 307.7 87.3 325.9 67.3 338.4C47.3 350.9 23.6 357.7 0 364.5L0 0Z" fill="#f9e7de"></path><path d="M243 0C227 12.6 211 25.3 211.4 42C211.7 58.8 228.3 79.6 224.5 93C220.7 106.3 196.6 112.2 183.3 122.5C170.1 132.8 167.7 147.7 160.2 160.2C152.6 172.7 139.8 182.8 125.6 187.9C111.4 193 95.7 193 82.5 199.1C69.2 205.2 58.2 217.3 44.9 225.6C31.5 233.9 15.8 238.5 0 243L0 0Z" fill="#fdf7f4"></path><path d="M121.5 0C113.5 6.3 105.5 12.6 105.7 21C105.8 29.4 114.1 39.8 112.3 46.5C110.4 53.2 98.3 56.1 91.7 61.3C85 66.4 83.9 73.8 80.1 80.1C76.3 86.3 69.9 91.4 62.8 94C55.7 96.5 47.9 96.5 41.2 99.5C34.6 102.6 29.1 108.6 22.4 112.8C15.8 117 7.9 119.2 0 121.5L0 0Z" fill="#ffffff"></path></g></svg>