<svg id="visual" viewBox="0 0 540 960" width="540" height="960" xmlns="http://www.w3.org/2000/svg" xmlns:xlink="http://www.w3.org/1999/xlink" version="1.1"><rect x="0" y="0" width="540" height="960" fill="#F4D0BD"></rect><defs><linearGradient id="grad1_0" x1="0%" y1="0%" x2="100%" y2="100%"><stop offset="30%" stop-color="#ffffff" stop-opacity="1"></stop><stop offset="70%" stop-color="#ffffff" stop-opacity="1"></stop></linearGradient></defs><defs><linearGradient id="grad1_1" x1="0%" y1="0%" x2="100%" y2="100%"><stop offset="30%" stop-color="#ffffff" stop-opacity="1"></stop><stop offset="70%" stop-color="#f4d0bd" stop-opacity="1"></stop></linearGradient></defs><defs><linearGradient id="grad2_0" x1="0%" y1="0%" x2="100%" y2="100%"><stop offset="30%" stop-color="#ffffff" stop-opacity="1"></stop><stop offset="70%" stop-color="#ffffff" stop-opacity="1"></stop></linearGradient></defs><defs><linearGradient id="grad2_1" x1="0%" y1="0%" x2="100%" y2="100%"><stop offset="30%" stop-color="#f4d0bd" stop-opacity="1"></stop><stop offset="70%" stop-color="#ffffff" stop-opacity="1"></stop></linearGradient></defs><g transform="translate(540, 0)"><path d="M0 486C-64.6 473 -129.3 459.9 -177.2 427.8C-225.1 395.6 -256.4 344.2 -304.1 304.1C-351.8 263.9 -415.9 234.8 -449 186C-482.1 137.2 -484 68.6 -486 0L0 0Z" fill="#fae7de"></path><path d="M0 243C-32.3 236.5 -64.6 230 -88.6 213.9C-112.6 197.8 -128.2 172.1 -152 152C-175.9 131.9 -208 117.4 -224.5 93C-241 68.6 -242 34.3 -243 0L0 0Z" fill="#ffffff"></path></g><g transform="translate(0, 960)"><path d="M0 -486C58.7 -468.4 117.3 -450.8 178.3 -430.5C239.3 -410.2 302.7 -387.2 343.7 -343.7C384.6 -300.1 403.1 -236 423.1 -175.3C443.1 -114.6 464.6 -57.3 486 0L0 0Z" fill="#fae7de"></path><path d="M0 -243C29.3 -234.2 58.7 -225.4 89.2 -215.3C119.7 -205.1 151.4 -193.6 171.8 -171.8C192.3 -150 201.6 -118 211.6 -87.6C221.6 -57.3 232.3 -28.6 243 0L0 0Z" fill="#ffffff"></path></g></svg>