<?xml version="1.0" encoding="UTF-8"?>
<svg xmlns="http://www.w3.org/2000/svg" viewBox="0 0 64 64" width="512" height="512"><g id="Layer_32" data-name="Layer 32"><path d="M25,1.97a2.856,2.856,0,0,0-5,1.884,5.313,5.313,0,0,0,2.117,4.233L24.4,9.8a1,1,0,0,0,1.2,0l2.283-1.712A5.316,5.316,0,0,0,30,3.854,2.856,2.856,0,0,0,25,1.97Zm3,1.884a3.31,3.31,0,0,1-1.316,2.634L25,7.75,23.316,6.487A3.306,3.306,0,0,1,22,3.854a.854.854,0,0,1,1.618-.382l.487.975a1.042,1.042,0,0,0,1.79,0l.487-.974A.854.854,0,0,1,28,3.854Z"/><path d="M39,1.97a2.856,2.856,0,0,0-5,1.884,5.313,5.313,0,0,0,2.117,4.233L38.4,9.8a1,1,0,0,0,1.2,0l2.283-1.712A5.316,5.316,0,0,0,44,3.854,2.856,2.856,0,0,0,39,1.97Zm3,1.884a3.31,3.31,0,0,1-1.316,2.634L39,7.75,37.316,6.487A3.306,3.306,0,0,1,36,3.854a.854.854,0,0,1,1.618-.382l.487.975a1.042,1.042,0,0,0,1.79,0l.487-.974A.854.854,0,0,1,42,3.854Z"/><path d="M50,41H14a3,3,0,0,0,0,6H26v3a1,1,0,0,0,1,1H37a1,1,0,0,0,1-1V47H50a3,3,0,0,0,0-6ZM36,49H28V47h8Zm14-4H14a1,1,0,0,1,0-2H50a1,1,0,0,1,0,2Z"/><path d="M57.625,37.219A1,1,0,0,0,57,37H55.636a8.91,8.91,0,0,0-2.993-3.442,17.938,17.938,0,0,0,8.2-7.028A1,1,0,0,0,60,25h-.567a12.342,12.342,0,0,1-10.525-5.835,4.607,4.607,0,0,0-.987-1.113A6,6,0,0,0,36,19a12.449,12.449,0,0,0,2.718,7.748l.2.256a6,6,0,0,0-5.832,5H31a4.672,4.672,0,0,0-3.745-4.569L26,27.18V26a.987.987,0,0,0-.722-.944,7.922,7.922,0,0,0,1.314-7.441l-.14-.42A5.375,5.375,0,0,0,27,14.838V13a1,1,0,0,0-1.316-.949L22.838,13H19.5a5.5,5.5,0,0,0-4.4,8.8L17,24.333V25a1,1,0,0,0-1,1v1.18l-1.255.251A4.672,4.672,0,0,0,11,32v1.817A8.9,8.9,0,0,0,8.379,37H7a1,1,0,0,0-.625.219A14.254,14.254,0,0,0,1,48.4V50a5,5,0,0,0,5,5H8v4a4,4,0,0,0,4,4h4a4,4,0,0,0,4-4V55H44v4a4,4,0,0,0,4,4h4a4,4,0,0,0,4-4V55h2a5,5,0,0,0,5-5V48.4A14.254,14.254,0,0,0,57.625,37.219ZM61,48.4V49H58V47h2.919A12.552,12.552,0,0,1,61,48.4ZM58,45V40.368A12.186,12.186,0,0,1,60.507,45Zm.116-18.059A15.914,15.914,0,0,1,45.566,33H39.175A14.55,14.55,0,0,0,42,24.343V22a3,3,0,0,1,3-3,2.6,2.6,0,0,1,2.213,1.226A14.322,14.322,0,0,0,58.116,26.941ZM38,19a3.987,3.987,0,0,1,7.46-1.971c-.152-.015-.3-.029-.46-.029a5.006,5.006,0,0,0-5,5v2.343c0,.244-.022.484-.035.726A10.436,10.436,0,0,1,38,19Zm1,10h.111a12.535,12.535,0,0,1-1.7,3H35.142A4,4,0,0,1,39,29ZM24.9,19.1a5.874,5.874,0,0,1-1.643,5.23L23,24.586V23a1,1,0,0,0-.105-.447L22,20.764V20h1a1,1,0,0,0,.316-.051A5.389,5.389,0,0,0,24.9,19.1ZM18.8,23.4l-2.1-2.8A3.5,3.5,0,0,1,19.5,15H23a1,1,0,0,0,.316-.051L25,14.387v.451A3.381,3.381,0,0,1,22.827,18H21a1,1,0,0,0-1,1v2a1,1,0,0,0,.105.447L21,23.236V25H19V24A1,1,0,0,0,18.8,23.4ZM13,32a2.667,2.667,0,0,1,2.138-2.608L17.2,28.98A1,1,0,0,0,18,28V27h6v1a1,1,0,0,0,.8.98l2.058.412A2.667,2.667,0,0,1,29,32H16.385A8.954,8.954,0,0,0,13,32.682Zm3.385,2H36.009A.973.973,0,0,0,37,35h8.566a18.184,18.184,0,0,0,4.466-.556A6.924,6.924,0,0,1,53.334,37H10.685A6.9,6.9,0,0,1,16.385,34ZM3.081,47H6v2H3v-.6A12.552,12.552,0,0,1,3.081,47ZM6,40.368V45H3.493A12.186,12.186,0,0,1,6,40.368ZM18,59a2,2,0,0,1-2,2H12a2,2,0,0,1-2-2V55h8Zm36,0a2,2,0,0,1-2,2H48a2,2,0,0,1-2-2V55h8Zm4-6H6a3,3,0,0,1-2.815-2H7a1,1,0,0,0,1-1V39H56V50a1,1,0,0,0,1,1h3.816A3,3,0,0,1,58,53Z"/></g></svg>
