<svg id="Layer_1" enable-background="new 0 0 91 91" viewBox="0 0 91 91" xmlns="http://www.w3.org/2000/svg"><g><path d="m37.3 11c1.3 1.4 2.8 2.7 4.8 4.1.3.2.7.3 1 .3s.8-.2 1.1-.4c1.8-1.3 3.2-2.4 4.4-3.7.7-.7 1.5-1.6 2.1-2.8.3-.6.6-1.3.6-2.3 0-1.8-.8-3.3-2.1-4.4-1.7-1.4-4.4-1.4-6.1-.1-1.1-.8-2.5-1.2-3.9-.9-1.5.3-2.7 1.1-3.5 2.4-1.4 2.3-.9 4.2-.2 5.4.5.8 1.1 1.6 1.8 2.4zm2.6-6.9c1.4-.2 1.8 1.1 1.8 1.1.3.5.8.9 1.5.8.6 0 1.2-.4 1.5-.9.1-.3.2-.4.4-.6.5-.5 1.5-.6 2.1-.1s.9 1.1.9 1.9c0 .9-1.3 2.1-1.8 2.7-.9.9-1.9 1.8-3.1 2.7-1.4-1-2.5-2-3.4-3-.6-.6-1-1.2-1.3-1.7-.4-.6-.8-2.7 1.4-2.9z"/><path d="m26.5 30c-.6.7-.4 1.8.3 2.3.9.7 2.5 1.5 4.5 1.5 1.4 0 2.9-.4 4.3-1.4.8-.5.9-1.6.4-2.3-.5-.8-1.6-.9-2.3-.4-2.4 1.7-4.6.2-4.8 0-.8-.5-1.8-.4-2.4.3z"/><path d="m27.6 27.2c1.1 0 1.9-.9 1.9-1.9s-.9-1.9-1.9-1.9-1.9.9-1.9 1.9c0 1.1.8 1.9 1.9 1.9z"/><circle cx="34.9" cy="25.3" r="1.9"/><path d="m14.1 66.1c2.1-3.4 3.3-7.3 3.7-8.4v27.2c0 3.2 2.6 5.8 5.8 5.8 1.6 0 3.1-.7 4.2-1.8 1.1 1.1 2.5 1.8 4.2 1.8 3.2 0 5.8-2.6 5.8-5.8v-24c.8 3 1.4 4.6 1.8 5.6 0 0 1.7 4.3 5.1 2.3 1.8-.3 3-.8 4.4-3.1.3-.6.9-1.4 1.5-2.3l-1.5 12.4c-.1.5.1.9.4 1.3s.8.6 1.2.6h1v7.1c0 3.2 2.6 5.8 5.8 5.8 1.6 0 3.1-.7 4.2-1.8 1.1 1.1 2.5 1.8 4.2 1.8 3.2 0 5.8-2.6 5.8-5.8v-7.1h2c.5 0 1-.2 1.3-.6s.4-.9.4-1.4l-1.1-5.9c.3.1.8.2 1.1.2 1.3-.1 2.4-.6 3.2-1.8 1.1-1.8 1.4-4.9 1.2-8.1 5.6-7.9 5.4-25.4 2.4-33.2-2.7-7.1-7.6-12.1-13.3-13.9-1.8-.5-5.9-1.5-8.8-.3-12 .1-16.3 10.3-16.3 17.2 0 3.5.3 7 .7 10.3.3 2.9.5 5.7.6 8.5-.6-2.1-1.1-3.8-1.4-4.4-1.3-2.7-3.4-5-5.9-6.6 3.1-2.8 5-6.8 5-11.2 0-8.2-6.7-14.9-15-14.9-8.2 0-14.9 6.7-14.9 14.9 0 4.4 1.9 8.4 5 11.2-2.5 1.7-4.5 4-5.9 6.6-.7 1.4-7.2 17.8-4.3 22.4.6.9 3.8 3.2 6.4-.6zm33.6-26.2c-.1-1.5-.3-3-.4-4.5.7 3 2.4 5.6 4.6 7.6-1.4.9-2.6 2-3.7 3.3-.1-2.1-.3-4.2-.5-6.4zm10.5-19.2c1.3 2.4 3.7 3.8 6.2 5.4 2.8 1.7 6.1 3.7 8.8 7.5-.6 3.8-3.1 7.2-6.7 8.8-.8.4-1.2 1.4-.8 2.2s1.4 1.2 2.2.8c.3-.1.5-.3.8-.4.5.3 1.1.6 1.6 1-4.5 4.3-11.6 4.2-15.9-.2-.1-.1-.2-.2-.2-.3.3-.2.6-.4.9-.5 1 .5 2 .9 3.1 1.2.1 0 .3.1.4.1.7 0 1.4-.5 1.6-1.3.2-.9-.3-1.8-1.2-2-5.1-1.3-8.7-5.9-8.7-11.2-.1-5.2 3.3-9.5 7.9-11.1zm3.7-.6c5.1 0 9.4 3.3 10.9 7.9-2.3-2.1-4.6-3.6-6.6-4.8-2-1.1-3.4-2-4.3-3.1zm-4.2 67.3c-1.4 0-2.5-1.1-2.5-2.5v-7.1h5v7.2c0 1.3-1.1 2.4-2.5 2.4zm10.8-2.5c0 1.4-1.1 2.5-2.5 2.5s-2.5-1.1-2.5-2.4v-7.2h5zm6.8-18.3c-.9.1-1.3-3.6-1.6-5-.6-2.8-1-4.6-1.6-5.8-.5-1-1-1.8-2.2-1.7-.9.2-1.5 1-1.3 1.9l3.3 18.3h-19.2l2.1-17.7c.1-.9-.5-1.7-1.5-1.9-.5-.1-.9.1-1.3.4-1.4 1.5-3.7 5.4-5.1 7.6 0-1.6-.1-3.4-.3-5.3.1-.1 1.4-5 4.8-9.9 0 0 .3.3.5.5 2.9 2.9 6.6 4.3 10.4 4.3 3.7 0 7.5-1.4 10.3-4.2.7.9 1.4 1.8 1.9 2.8 2.5 5.1 2.9 15.6.8 15.7zm-7.4-50.4c4.7 1.4 8.8 5.7 11.2 11.9 2.3 5.9 2.7 18.4 0 26.3-.4-2.1-1-3.9-1.4-4.8-1.3-2.7-3.4-5-5.9-6.6 1.7-1.5 3-3.4 3.9-5.5.4.8.7 1.6 1 2.4.3.9 1.3 1.3 2.1 1 .9-.3 1.3-1.3 1-2.1-.9-2.4-1.9-4.4-3.1-6.1 0-.3.1-.6.1-.9 0-8.2-6.7-14.9-14.9-14.9-.4 0-.9 0-1.3.1 0-.5.2-.7.3-.8.9-1 3.9-.9 7 0zm-10.7.2v1.2c-5.2 1.7-9.2 6.2-10.1 11.6.2-4.4 2.6-11.4 10.1-12.8zm-24.7 26.5v1.7l-2.2-.7zm-16.3-16.4c0-6.4 5.2-11.6 11.6-11.6s11.6 5.2 11.6 11.6c0 4.6-2.7 8.8-6.9 10.6-.8.4-1.2 1.4-.8 2.2 0 .1.1.1.1.2l-3.5 1.6-2.4-1.1c0-.1.1-.2.1-.3.2-.9-.3-1.8-1.2-2-5-1.3-8.6-5.9-8.6-11.2zm7.9 16.4 2.2 1-2.2.7zm-9.1 2.9c1.3-2.5 3.3-4.6 5.8-6 0 .1-.1 7-.1 7 0 .5.3 1 .7 1.3.3.2 1 .4 1.5.2l5.4-1.7 5.2 1.6c.4.1 1.1.2 1.7-.2.4-.3.7-.8.7-1.3v-6.4c2 1.3 3.7 3.2 4.8 5.3 1.9 3.7 4.2 20 2.6 20-1 .4-3.1-12-5.2-15.3-.4-.6-1.1-1-1.8-.9-.9.2-1.7.7-1.7 1.7v33.7c0 1.4-1.1 2.5-2.5 2.5s-2.4-1.1-2.5-2.4v-18.6c0-.9-.7-1.7-1.7-1.7-.9 0-1.7.7-1.7 1.7v18.6c0 1.3-1.1 2.4-2.5 2.4s-2.5-1.1-2.5-2.5v-34c0-.9-.7-1.7-1.7-1.7-.6 0-1.1.3-1.4.8-.6 1.1-6.1 15.6-7.6 14.9-1.6-.8 2.4-14.8 4.5-19z"/><path d="m53.7 33.3c-.6.7-.4 1.8.3 2.3.9.7 2.5 1.5 4.5 1.5 1.4 0 2.9-.4 4.3-1.4.8-.5.9-1.6.4-2.3s-1.6-.9-2.3-.4c-2.4 1.7-4.6.2-4.8 0-.8-.6-1.9-.4-2.4.3z"/><circle cx="54.8" cy="28.6" r="1.9"/><path d="m62.1 30.5c1.1 0 1.9-.9 1.9-1.9 0-1.1-.9-1.9-1.9-1.9s-1.9.9-1.9 1.9.8 1.9 1.9 1.9z"/></g></svg>