<svg height="511pt" viewBox="0 -80 511.99989 511" width="511pt" xmlns="http://www.w3.org/2000/svg"><g fill="rgb(0,0,0)"><path d="m203.703125 127.890625c0 6.207031-5.03125 11.238281-11.238281 11.238281-6.207032 0-11.238282-5.03125-11.238282-11.238281s5.03125-11.238281 11.238282-11.238281c6.207031 0 11.238281 5.03125 11.238281 11.238281zm0 0"/><path d="m511.203125 220.488281c-.179687-2.222656-1.328125-4.257812-3.140625-5.5625-1.8125-1.300781-4.109375-1.742187-6.273438-1.203125l-79.054687 19.667969c34.351563-50.945313 32.855469-153.914063 28.097656-216.464844-.554687-7.261719-5.394531-13.378906-12.339843-15.582031-6.925782-2.203125-14.386719-.003906-19.015626 5.589844-19.144531 23.144531-50.59375 41.496094-73.605468 52.8125-6.148438 3.023437-12.289063 6.285156-18.253906 9.695312-3.644532 2.082032-4.914063 6.722656-2.828126 10.367188 2.082032 3.644531 6.722657 4.910156 10.367188 2.828125 5.695312-3.253907 11.554688-6.363281 17.421875-9.25 35.414063-17.417969 61.863281-36.515625 78.609375-56.765625.894531-1.078125 1.964844-1.027344 2.703125-.792969.613281.195313 1.667969.75 1.78125 2.25 1.625 21.398437 2.988281 49.671875 2.21875 79.25-11.195313 13.820313-36.621094 15.234375-37.105469 15.257813-4.1875.1875-7.4375 3.734374-7.253906 7.921874.175781 4.082032 3.539062 7.273438 7.585938 7.273438.109374 0 .222656-.003906.335937-.007812 1.03125-.042969 19.84375-.996094 35.5625-10.21875-.5 8.121093-1.183594 16.242187-2.097656 24.253906-.164063 1.453125-.339844 2.886718-.519531 4.308594-12.605469 12.230468-37.421876 11.414062-37.679688 11.398437-4.203125-.183594-7.726562 3.078125-7.90625 7.269531s3.074219 7.738282 7.269531 7.917969c.171875.007813.84375.03125 1.925781.03125 5.210938 0 19.878907-.597656 33.289063-6.640625-7.117187 37.875-19.734375 63.644531-36.984375 75.148438-.800781.53125-1.613281 1.050781-2.433594 1.5625-1.035156.644531-1.898437 1.527343-2.515625 2.578124-64.839843 109.488282-136.820312 97.757813-173.957031 81.023438-5.449219-2.457031-10.585938-5.761719-15.265625-9.816406-3.171875-2.746094-7.96875-2.40625-10.71875.765625s-2.40625 7.972656.765625 10.722656c5.792969 5.023437 12.179688 9.121094 18.972656 12.183594 13.824219 6.230469 32.65625 12.128906 54.425782 12.128906 11.941406 0 24.769531-1.777344 38.132812-6.246094 17.726562-5.925781 34.597656-15.976562 50.515625-30.039062.296875-.015625.59375-.042969.894531-.09375 66.117188-11.324219 133.636719 14.5625 134.304688 14.824219.90625.351562 1.839844.523437 2.765625.523437 2.683593 0 5.261719-1.429687 6.640625-3.898437 19.847656-35.558594 14.59375-104.070313 14.363281-106.972657zm-14.773437 38.855469c-1.070313 23.175781-4.527344 41.984375-10.066407 54.96875-17.148437-5.804688-64.945312-19.773438-116.6875-15.644531 11.152344-12.519531 21.777344-27.179688 31.832031-43.964844.320313-.207031.640626-.417969.960938-.628906.164062-.03125.328125-.054688.492188-.097657l93.566406-23.28125c.257812 6.902344.429687 17.171876-.097656 28.648438zm0 0"/><path d="m165.246094 235.828125c-.007813-.136719-.019532-.277344-.039063-.414063l-7.339843-62.46875c4.476562-8.46875 10.71875-26.71875-2.242188-48.335937 5.519531-17.589844 21.84375-29.839844 40.773438-29.839844 23.570312 0 42.746093 19.175781 42.746093 42.746094 0 2.46875-.226562 5-.675781 7.523437-.601562 3.371094 1.128906 6.730469 4.222656 8.199219 1.042969.496094 2.15625.734375 3.257813.734375 2.164062 0 4.285156-.921875 5.765625-2.644531 16.929687-19.703125 36.546875-37.441406 58.308594-52.726563 3.4375-2.414062 4.265624-7.152343 1.851562-10.589843-2.410156-3.433594-7.152344-4.261719-10.585938-1.851563-17.347656 12.183594-33.402343 25.863282-47.90625 40.808594-4.96875-26.9375-28.632812-47.402344-56.984374-47.402344-27.015626 0-50.113282 18.425782-56.324219 44.328125l-12.273438 6.53125c-3.128906-9.3125-7.585937-18-13.152343-25.851562.09375-.46875.171874-.9375.226562-1.410157 12.292969-2.464843 19.632812-18.730468 17.175781-38.582031-1.09375-8.8125-4.046875-16.980469-8.316406-22.996093-5.171875-7.285157-12.097656-10.976563-18.976563-10.121094-6.890624.851562-12.699218 6.121094-15.933593 14.449218-2.671875 6.875-3.542969 15.515626-2.449219 24.328126.375 3.039062.953125 5.9375 1.707031 8.667968-6.21875-4.085937-12.9375-7.492187-20.050781-10.125.472656-10.503906-8.496094-22.523437-23.488281-30.226562-18.367188-9.433594-36.738281-7.75-42.734375 3.917968-5.996094 11.667969 3.335937 27.585938 21.703125 37.019532 7.652343 3.933594 15.789062 6.082031 22.992187 6.082031.230469 0 .460938-.003906.691406-.007813 5.054688-.097656 9.46875-1.308593 12.925782-3.453124 1.441406.480468 2.871094.992187 4.273437 1.546874-4.230469 1.449219-8.085937 3.34375-11.3125 5.632813-7.289062 5.171875-10.976562 12.089844-10.125 18.980469 1.414063 11.382812 14.335938 18.855468 31.257813 18.855468 2.433594 0 4.949218-.15625 7.523437-.476562 9.519531-1.175781 17.6875-4.34375 23.542969-8.699219 3.753906 6.101563 6.761719 12.714844 8.886719 19.722657l-16.855469 8.964843c-2.597656 1.382813-4.160156 4.132813-4.023438 7.070313.136719 2.9375 1.957032 5.527344 4.667969 6.660156l19.570313 8.148438c-.441406 5.617187-1.441406 11.207031-3 16.671874-3.113282 10.914063-8.277344 20.886719-15.152344 29.496094.023438-.160156.054688-.316406.078125-.476562 2.734375-20.46875-5.007813-37.214844-18.011719-38.953125-6.878906-.917969-13.832031 2.703125-19.074218 9.941406-4.328126 5.976563-7.355469 14.113281-8.53125 22.914063-1.175782 8.804687-.390626 17.449218 2.214843 24.351562 1.378907 3.644531 3.25 6.710938 5.492188 9.089844-16.386719 5.828125-34.132813 6.449218-51.199219 1.585937-4.03125-1.152343-8.242188 1.1875-9.394531 5.222657-1.152344 4.035156 1.1875 8.242187 5.226562 9.394531 9.054688 2.582031 18.269531 3.859375 27.433594 3.859375 12.40625 0 24.707031-2.347656 36.359375-6.972656 4.332031 8.800781 16.003906 15.839843 31.167969 17.867187 2.667969.355469 5.316406.53125 7.914062.53125 5.964844 0 11.625-.933594 16.433594-2.75 8.363281-3.15625 13.683594-8.914063 14.601563-15.792969.921874-6.878906-2.703126-13.832031-9.941407-19.074218-5.617187-4.070313-13.160156-6.96875-21.359375-8.28125 9.355469-10.816407 16.324219-23.625 20.359375-37.785157 1.382813-4.847656 2.386719-9.777343 3.019531-14.746093l11.136719 4.636718 6.785157 57.742188c.226562 3.242187 2.789062 34.921875 18.460937 63.585937 1.378906 2.523438 3.988281 3.953125 6.675781 3.953125 1.230469 0 2.480469-.300781 3.640625-.933594 3.683594-2.015624 5.035157-6.632812 3.019531-10.316406-14.515624-26.546875-16.617187-57.15625-16.636718-57.457031zm-62.253906-184.40625c1.3125-3.382813 2.925781-4.78125 3.632812-4.871094.03125-.003906.0625-.003906.09375-.003906.769531 0 2.605469 1 4.621094 3.839844 2.796875 3.941406 4.847656 9.796875 5.621094 16.066406 1.609374 12.976563-2.796876 21.527344-5.164063 21.820313-2.402344.269531-8.730469-6.925782-10.335937-19.902344-.777344-6.265625-.21875-12.445313 1.53125-16.949219zm-56.089844 18.945313c-4.832032.089843-10.828125-1.507813-16.445313-4.394532-11.632812-5.972656-16.21875-14.429687-15.128906-16.550781.496094-.960937 2.726563-1.734375 6.097656-1.734375 4.074219 0 9.808594 1.125 16.171875 4.390625 11.632813 5.976563 16.214844 14.433594 15.125 16.554687-.324218.632813-2.191406 1.667969-5.820312 1.734376zm32.964844 41.203124c-12.980469 1.605469-21.527344-2.796874-21.820313-5.167968-.089844-.707032.875-2.609375 3.832031-4.710938 3.941406-2.796875 9.800782-4.847656 16.066406-5.625 2.742188-.339844 5.269532-.398437 7.578126-.277344 3.835937 3.015626 7.398437 6.347657 10.652343 9.96875-3.320312 2.402344-8.859375 4.890626-16.308593 5.8125zm-10.964844 98.5625c.835937-6.261718 2.941406-12.097656 5.777344-16.011718 2.03125-2.808594 3.871093-3.796875 4.644531-3.796875.039062 0 .070312.003906.101562.007812 2.367188.316407 6.691407 8.90625 4.960938 21.867188-.835938 6.261719-2.941407 12.097656-5.777344 16.011719-2.128906 2.941406-4.046875 3.890624-4.75 3.789062-.707031-.09375-2.304687-1.507812-3.585937-4.902344-1.707032-4.523437-2.207032-10.707031-1.371094-16.964844zm56.117187 42.359376c-.09375.703124-1.507812 2.304687-4.902343 3.585937-4.523438 1.707031-10.707032 2.207031-16.96875 1.371094-11.324219-1.515625-18.214844-6.613281-19.5625-9.453125 3.066406-1.789063 6.015624-3.722656 8.84375-5.792969 2.027343-.390625 4.34375-.636719 6.921874-.636719 1.832032 0 3.796876.121094 5.867188.398438 6.261719.835937 12.097656 2.941406 16.011719 5.777344 2.9375 2.128906 3.882812 4.042968 3.789062 4.75zm-6.382812-99.972657 26.875-14.300781c4.488281 11.046875 2.257812 20.195312-.027344 25.480469zm0 0"/></g></svg>