<svg id="Capa_1" enable-background="new 0 0 512 512" height="512" viewBox="0 0 512 512" width="512" xmlns="http://www.w3.org/2000/svg"><g><g><path d="m78.754 164.94c-2.776 14.097-12.73 26.42-25.358 31.396-3.821 1.506-6.334 5.195-6.334 9.304v157.097c0 5.247 4.056 9.602 9.289 9.975 11.31.807 19.904 8.73 22.431 20.681.991 4.687 5.127 7.933 9.773 7.933.529 0 1.065-.042 1.604-.129l287.798-46.435c4.13-.666 7.409-3.833 8.219-7.938 2.778-14.092 12.728-26.409 25.346-31.381 3.822-1.506 6.335-5.195 6.335-9.304v-157.098c0-5.247-4.056-9.602-9.289-9.975-11.312-.807-19.902-8.733-22.417-20.687-1.1-5.225-6.114-8.664-11.379-7.812l-287.799 46.433c-4.131.666-7.411 3.834-8.219 7.94zm290.673-33.253c5.34 12.75 15.592 22.013 28.429 25.695v142.43c-13.715 7.531-24.577 20.865-29.519 36.242l-272.842 44.022c-5.349-12.741-15.602-21.999-28.434-25.681v-142.429c13.724-7.536 24.591-20.876 29.531-36.26z"/><path d="m310.786 291.705-157.855 27.585c-5.44.95-9.08 6.132-8.129 11.572.849 4.858 5.07 8.28 9.839 8.28.571 0 1.151-.05 1.733-.151l157.855-27.586c5.44-.95 9.08-6.132 8.129-11.572-.95-5.44-6.132-9.08-11.572-8.128z"/><path d="m502 121.822h-38.462v-61.565c0-2.931-1.285-5.714-3.517-7.613-2.23-1.899-5.184-2.729-8.076-2.259l-186.762 30.133c-5.452.88-9.159 6.013-8.279 11.465.879 5.453 6.017 9.157 11.465 8.279l175.169-28.262v299.66l-423.538 68.338v-299.663l161.899-26.122c5.452-.88 9.159-6.013 8.279-11.465-.879-5.452-6.017-9.162-11.465-8.279l-170.306 27.479c-4.845.781-8.407 4.964-8.407 9.872v319.922c0 5.437 4.569 10.002 10 10.002h492c5.522 0 10-4.478 10-10v-319.922c0-5.523-4.478-10-10-10zm-10 319.922h-357.249l320.38-51.691c4.787-.772 8.409-5.023 8.409-9.877v-238.354h28.46z"/><path d="m136.847 260.456c10.355 8.702 29.381 11.949 50.321 11.949 15.056 0 31.104-1.68 45.621-4.219 48.396-8.465 100.483-29.635 100.483-56.112 0-4.296-1.386-10.581-7.986-16.127-17.8-14.959-61.232-13.801-95.942-7.73-48.396 8.465-100.483 29.635-100.483 56.112-.001 4.296 1.385 10.582 7.986 16.127zm33.505-33.22c16.568-8.312 38.742-15.173 62.438-19.317 21.576-3.774 42.223-4.855 58.141-3.049 16.4 1.862 21.692 6.104 22.34 7.279-.128 1.496-3.955 8.223-21.488 17.02-16.568 8.312-38.742 15.173-62.438 19.317-21.576 3.774-42.223 4.856-58.141 3.049-16.4-1.862-21.692-6.104-22.34-7.279.127-1.497 3.954-8.223 21.488-17.02z"/><path d="m214.359 101.18c3.527 8.459 16.119 7.892 18.8-.92 2.632-8.65-7.145-16.078-14.797-11.416-4.135 2.52-5.866 7.868-4.003 12.336z"/></g></g></svg>