<svg id="Capa_1" data-name="Capa 1" xmlns="http://www.w3.org/2000/svg" viewBox="0 0 283.46 283.46"><defs><style>.cls-1{fill:#fff;}.cls-1,.cls-2,.cls-3{stroke:#fff;stroke-miterlimit:10;}.cls-2{fill:#1d1d1b;}.cls-3{fill:#3b3130;}</style></defs><path class="cls-1" d="M250.32,160.42c-3-1.89-6.49.69-9,2.44l-.77.61c-3.74,3.82-8.44,7.38-13.89,7.93-2.09.12-5.38.48-6.32-1.74-.76-2.25.2-4.94.68-7.26,1.24-5,2.7-10,4.24-15,1.1-3.75,4.33-11.91,1.05-15-4.79-3-11.33,5.83-13.91,9.24A72.68,72.68,0,0,0,205.58,154c.5-1.86,1-3.73,1.45-5.61.77-4.16,4.18-13.92-.54-16.5a3.94,3.94,0,0,0-3.34.45A13.39,13.39,0,0,0,198.8,136a105.18,105.18,0,0,0-15.92,23.76l1.27-5.44c2.51-3.74,4.81-7.61,6.94-11.56.73-1.36,1.44-2.72,2.11-4.11.35-.71.65-1.35,1-2.14a5.21,5.21,0,0,0-.1-3.41c-1.06-3.19-5.53-2.79-6.37.3-2.16,6.59-3.56,13.36-5.22,20l0,.15c-.85,1.26-1.72,2.49-2.61,3.71-6.08,8.39-11.31,12.54-22,13.09a43,43,0,0,1-15.58-1.38,9.5,9.5,0,0,0,2.2-1.63c1.57-1.7,3.11-4.09,2.69-6.61-.26-1.86-2.41-2.7-4-2.39a7.3,7.3,0,0,0-4,2.54,6.27,6.27,0,0,0-4.92-2.46c-3.73,0-4.52,3.61-2.56,6.33a12.16,12.16,0,0,0,4.91,4.21c-.83.17-1.66.33-2.47.51-12,2.44-29.24-.38-39.25-7.58a36.72,36.72,0,0,1-7.08-7.33c-.69-.82-1.41-1.57-2.13-2.32a14.14,14.14,0,0,0,2.33-.2c3.42-.59,6.85-1.12,10.3-1.8s7.31-1.66,9.77-4.54a7.84,7.84,0,0,0-.41-10.51c-13.21-12.93-52.5,5-34.36,14.36-9.41-5.07-2-11.41,4.35-14.41a36.78,36.78,0,0,1,20.06-3.11,16.45,16.45,0,0,1,8.93,4.12,6.31,6.31,0,0,1,.18,8.46c-2.15,2.37-5.55,3.13-8.89,3.82s-6.81,1.25-10.23,1.83a11,11,0,0,1-1.63.17c1.36-1.6,2.69-3.22,4-4.91a12.28,12.28,0,0,0,1.78-3.91c.09-.45.28-1,0-1.44.07.22-.08.43-.18.62a15.22,15.22,0,0,1-2.2,2.61q-2.7,3.48-5.59,6.86l-.18-.21a2.78,2.78,0,0,0-2.76-1.42c-1.7.33-2.44,1.94-.91,2.88a18.3,18.3,0,0,0,2.32.49c-1.48,1.69-3,3.36-4.53,5-2.22,2.27-5.28,5.83-7.75,7.73a22.59,22.59,0,0,1-14.94,4.85c-7.09-.17-14.83-1.41-20.1-6.53-4.47-4.22-4.45-10.75,2-12.86-6.91,1.84-7.08,8.88-2.64,13.5,5.26,5.58,13.31,7.69,20.77,7.69,7.74.44,15.19-3.38,20.19-9.11l3.83-4c1.6-1.74,3.2-3.48,4.77-5.25.88.92,1.76,1.82,2.55,2.76.4.5,1.28,1.53,1.62,2a33.21,33.21,0,0,0,15.18,10.52c10,3.44,20.81,5,31.24,3,1.67-.37,3.41-.66,5.08-1.15l.1,0a57.37,57.37,0,0,0,9.08,2,47,47,0,0,0,18.53-1.66c6.08-2,10.37-7.14,14.06-12.09a1,1,0,0,0,.08-.11c-1.24,5.29-3,13-3,13a.9.9,0,0,0,1.75.42,69.37,69.37,0,0,1,3.81-10,101.13,101.13,0,0,1,5.07-9.46,107.2,107.2,0,0,1,11.17-15.11,11.85,11.85,0,0,1,3.83-3.29c.78-.41,1.41-.6,1.82-.4,3,2.25.12,11-.51,14.41-1.72,7-3.75,13.93-5.88,20.81a7.61,7.61,0,0,0-.22,2.75,1.21,1.21,0,0,0,.5.73c1,.59,1.89-.53,2.16-1.29,2.38-9.93,6.18-19.83,12-28.24,2.26-3,6.89-9.33,10.83-9.1,1.81.53,1.15,4.34.94,5.86a68.27,68.27,0,0,1-2.13,7.42c-1.57,5-2.86,10.07-4,15.18-.5,2.66-1.4,5.34-.41,8.11,1.26,2.9,5.1,2.61,7.66,2.33a18.15,18.15,0,0,0,7.44-2.85,32.33,32.33,0,0,0,6.68-5.76l.74-.63c2.34-1.77,5.6-4.42,8.6-2.72a5,5,0,0,1,1.92,3.25A5.07,5.07,0,0,0,250.32,160.42Zm-117.13,3.44c-1.06-1.51-1.31-3.58,1.08-3.56a4.86,4.86,0,0,1,4.09,2.64.9.9,0,0,0,1.62,0h0a6.09,6.09,0,0,1,3.36-2.71c4-.5,1.46,4.49-.11,5.95a8.91,8.91,0,0,1-3.72,2.12A11.42,11.42,0,0,1,133.19,163.86Zm55.54-27.68c.44-1.13.52-2.73,1.64-3.34a1.53,1.53,0,0,1,2.15,1.32,3.15,3.15,0,0,1,0,1.73c-.89,2-2,4.08-3,6.05q-1.94,3.59-4.07,7.06C186.47,144.7,187.53,140.4,188.73,136.18Z"/><path class="cls-2" d="M149.94,161.78c3.41-3.62,8.89-4.76,13.66-3.82.68.15,1.36.34,2,.54-5.42-.69-11.15,0-15.68,3.28Z"/><path class="cls-2" d="M149.94,164.34a14.54,14.54,0,0,1,10.74-1.63,52.14,52.14,0,0,0-10.74,1.63Z"/><path class="cls-2" d="M149.92,166.42c5.11-1.08,11-1.36,15.64,1.25-5.05-1.61-10.4-1.3-15.64-1.25Z"/><path class="cls-2" d="M128.25,161.68c-4.71-3.26-10.61-4-16.19-3.28.69-.2,1.38-.39,2.09-.54,4.9-.93,10.51.17,14.1,3.82Z"/><path class="cls-2" d="M128.25,164.24a55.4,55.4,0,0,0-11.08-1.63,15.44,15.44,0,0,1,11.08,1.63Z"/><path class="cls-2" d="M128.26,166.32c-5.4,0-10.91-.37-16.13,1.26,4.87-2.62,10.86-2.34,16.13-1.26Z"/><path class="cls-3" d="M83.7,108.36l-4.94.46L78,110.26l3.62,2-.49.89-8.67-4.71,1.48-2.73a3.61,3.61,0,0,1,1.9-1.86,2.78,2.78,0,0,1,2.26.27,2.74,2.74,0,0,1,1.39,1.57,3.23,3.23,0,0,1-.23,2.22l5-.53Zm-6.37,1.55,1-1.77c.78-1.43.56-2.47-.64-3.12s-2.24-.29-3,1.14l-1,1.76Z"/><path class="cls-3" d="M84.17,95.35a3,3,0,0,1,2,.08l-1.65-1.3.61-.78,6,4.73-.61.78-1.65-1.3a3.08,3.08,0,0,1,.54,1.9,3.38,3.38,0,0,1-.78,2,3.74,3.74,0,0,1-1.56,1.2,3.32,3.32,0,0,1-1.88.18,4.59,4.59,0,0,1-1.92-.92,4.38,4.38,0,0,1-1.35-1.67,3.25,3.25,0,0,1-.26-1.86,3.87,3.87,0,0,1,.81-1.78A3.35,3.35,0,0,1,84.17,95.35Zm-1.56,3.72a3.51,3.51,0,0,0,3.51,2.76,2.76,2.76,0,0,0,1.95-1.15,2.92,2.92,0,0,0,.64-1.41,2.71,2.71,0,0,0-.2-1.48,3.21,3.21,0,0,0-1-1.3A3.36,3.36,0,0,0,86,95.8a2.69,2.69,0,0,0-1.49.16,3,3,0,0,0-1.23.94A2.83,2.83,0,0,0,82.61,99.07Z"/><path class="cls-3" d="M94.26,84.53l5.09,5.7-.75.67-1.26-1.41a2.64,2.64,0,0,1,.19,1.86,3.17,3.17,0,0,1-1,1.58,3.06,3.06,0,0,1-2.23.86A3.41,3.41,0,0,1,92,92.5l-3-3.32.75-.67,2.9,3.26a2.68,2.68,0,0,0,1.77,1,2.4,2.4,0,0,0,1.76-.68,2.46,2.46,0,0,0,.9-1.8,3,3,0,0,0-.92-2.07l-2.7-3Zm-2.32-1-1.06,3.22-.49-.54,1-3.3Z"/><path class="cls-3" d="M98.22,78.31l5.85,8.55-.85.58-5.84-8.56Z"/><path class="cls-3" d="M120.68,78.68l-3.29-1.59.08.17a2.86,2.86,0,0,1-.09,2.16A2.54,2.54,0,0,1,116,80.6a3.17,3.17,0,0,1-1.56.22,2.69,2.69,0,0,1-1.36-.56,3,3,0,0,1-.91-1.29,3.08,3.08,0,0,1-.22-1.52,2.29,2.29,0,0,1,.53-1.22,2.68,2.68,0,0,1,1.09-.77,2.37,2.37,0,0,1,.54-.13l-.38-.2a4.75,4.75,0,0,1-1-.63,2.26,2.26,0,0,1-.6-.91,2,2,0,0,1,.4-2.12,2.8,2.8,0,0,1,1.15-.77,2.55,2.55,0,0,1,2-.09,2.45,2.45,0,0,1,1.23,1.19,2.59,2.59,0,0,1,.29.63l-.9.35a1.08,1.08,0,0,0-.06-.2.81.81,0,0,0-.08-.18,1.66,1.66,0,0,0-.85-1,1.64,1.64,0,0,0-1.28,0,1.51,1.51,0,0,0-.91.79,1.37,1.37,0,0,0,0,1.07,1.77,1.77,0,0,0,.47.71,4.36,4.36,0,0,0,.82.51l7.32,3.75Zm-3.87.11a1.84,1.84,0,0,0,0-1.49,2,2,0,0,0-.68-.89,2.1,2.1,0,0,0-1-.41,2.15,2.15,0,0,0-1.08.12,1.86,1.86,0,0,0-1.07,1,1.88,1.88,0,0,0,0,1.54,2,2,0,0,0,1.11,1.2,2.11,2.11,0,0,0,1.58,0A2,2,0,0,0,116.81,78.79Z"/><path class="cls-3" d="M140.47,65.75l.71,9.63-1,.08-.59-8.07-2.83,8.32-.9.06-4-7.79.59,8-1,.07-.71-9.63,1.19-.09,4.34,8.15,3.07-8.69Z"/><path class="cls-3" d="M151.09,75a2.06,2.06,0,0,0,1-1.29l1,.13a3.06,3.06,0,0,1-1.41,1.82,4,4,0,0,1-2.54.46,4.06,4.06,0,0,1-1.91-.7,3.29,3.29,0,0,1-1.19-1.51,4.35,4.35,0,0,1-.24-2.13,4.25,4.25,0,0,1,.73-2,3.29,3.29,0,0,1,1.5-1.19,4.12,4.12,0,0,1,2-.24,4,4,0,0,1,1.92.7,3.22,3.22,0,0,1,1.12,1.4,3.78,3.78,0,0,1,.09,2.44l-6.43-.75a3.11,3.11,0,0,0,.21,1.65,2.39,2.39,0,0,0,.91,1.07,3,3,0,0,0,1.32.47A2.93,2.93,0,0,0,151.09,75Zm-2.47-5.73a2.45,2.45,0,0,0-1.13.82,3.12,3.12,0,0,0-.6,1.52l5.49.65a2.76,2.76,0,0,0-.13-1.61,2.35,2.35,0,0,0-.88-1.06,3.31,3.31,0,0,0-2.75-.32Z"/><path class="cls-3" d="M161.09,70.91a3.53,3.53,0,0,1,1.9,0l-.27,1-.32-.09a2.86,2.86,0,0,0-2,.09,2.32,2.32,0,0,0-1.22,1.67l-1.09,4-1-.27,2-7.38,1,.27-.42,1.52A2.64,2.64,0,0,1,161.09,70.91Z"/><path class="cls-3" d="M172.83,75.62a3.19,3.19,0,0,1,.29,2.35l-1-.41a2.21,2.21,0,0,0-.24-1.67,3.13,3.13,0,0,0-2.82-1.42,2.4,2.4,0,0,0-1.35.54,3.53,3.53,0,0,0-1,1.41,3.46,3.46,0,0,0-.33,1.71,2.52,2.52,0,0,0,.53,1.35,3,3,0,0,0,1.15.86,2.9,2.9,0,0,0,1.83.22,2.18,2.18,0,0,0,1.37-1l1,.41a3.18,3.18,0,0,1-1.91,1.41,3.85,3.85,0,0,1-2.57-.28,4,4,0,0,1-1.64-1.22,3.33,3.33,0,0,1-.71-1.78,4.45,4.45,0,0,1,.38-2.12,4.32,4.32,0,0,1,1.28-1.72,3.26,3.26,0,0,1,1.79-.71,4.16,4.16,0,0,1,2,.35A3.93,3.93,0,0,1,172.83,75.62Z"/><path class="cls-3" d="M179.94,86.37a2.08,2.08,0,0,0,1.49-.7l.89.58a3.14,3.14,0,0,1-2.08,1,4,4,0,0,1-2.48-.72,4.1,4.1,0,0,1-1.4-1.48,3.29,3.29,0,0,1-.4-1.88,4.42,4.42,0,0,1,.74-2,4.29,4.29,0,0,1,1.56-1.48,3.33,3.33,0,0,1,1.87-.4,4.12,4.12,0,0,1,1.92.7,4,4,0,0,1,1.41,1.48,3.22,3.22,0,0,1,.38,1.75,3.37,3.37,0,0,1-.57,1.66,3.88,3.88,0,0,1-.44.57l-5.42-3.55a3.05,3.05,0,0,0-.54,1.58,2.39,2.39,0,0,0,.33,1.36,3,3,0,0,0,1,1A3,3,0,0,0,179.94,86.37Zm.34-6.24a2.45,2.45,0,0,0-1.37.23,3.16,3.16,0,0,0-1.23,1.1l4.64,3a2.81,2.81,0,0,0,.6-1.5,2.28,2.28,0,0,0-.32-1.34,3.28,3.28,0,0,0-2.32-1.52Z"/><path class="cls-3" d="M193,89.57a3,3,0,0,1-.26,1.94l3.3-3.51.73.69-7.1,7.55-.73-.69L190.42,94a2.94,2.94,0,0,1-1.92.38,3.35,3.35,0,0,1-1.89-1,3.69,3.69,0,0,1-1.06-1.65,3.28,3.28,0,0,1,0-1.89,5,5,0,0,1,2.86-3,3.33,3.33,0,0,1,1.87-.1,4,4,0,0,1,1.72,1A3.39,3.39,0,0,1,193,89.57Zm-3.57-1.87A3.53,3.53,0,0,0,186.41,91a2.79,2.79,0,0,0,1,2,3,3,0,0,0,1.35.76,2.65,2.65,0,0,0,1.5-.07,3.21,3.21,0,0,0,1.37-.9,3.27,3.27,0,0,0,.82-1.43,2.73,2.73,0,0,0,0-1.5,3,3,0,0,0-.83-1.3A2.8,2.8,0,0,0,189.47,87.7Z"/><path class="cls-3" d="M196.87,103.14a2.13,2.13,0,0,0,1.64-.15l.63.85a3.09,3.09,0,0,1-2.29.23,3.89,3.89,0,0,1-2.08-1.53,4.14,4.14,0,0,1-.82-1.87,3.39,3.39,0,0,1,.28-1.9,4.75,4.75,0,0,1,3.36-2.5,3.25,3.25,0,0,1,1.9.27,4.19,4.19,0,0,1,1.56,1.31,3.94,3.94,0,0,1,.81,1.87,3.1,3.1,0,0,1-.24,1.77,3.37,3.37,0,0,1-1.11,1.38,4.56,4.56,0,0,1-.6.38L196,98.05a3.22,3.22,0,0,0-1.05,1.3,2.5,2.5,0,0,0-.16,1.39,3.14,3.14,0,0,0,.57,1.28A3,3,0,0,0,196.87,103.14Zm2.46-5.74a2.45,2.45,0,0,0-1.37-.26,3.16,3.16,0,0,0-1.53.61l3.32,4.44a2.69,2.69,0,0,0,1.07-1.2,2.34,2.34,0,0,0,.17-1.37,3.12,3.12,0,0,0-.58-1.29A3,3,0,0,0,199.33,97.4Z"/><path class="cls-3" d="M207.6,109.78a2.79,2.79,0,0,1-1.13,1.66l-.45-.85a1.89,1.89,0,0,0,.8-1.12,2.06,2.06,0,0,0-.24-1.5,1.8,1.8,0,0,0-.89-.9,1.21,1.21,0,0,0-1.08.07,1,1,0,0,0-.53.59,1.68,1.68,0,0,0-.05.81,8.61,8.61,0,0,0,.25,1.13,11.56,11.56,0,0,1,.29,1.42,2.22,2.22,0,0,1-.15,1.08,1.72,1.72,0,0,1-.87.88,1.86,1.86,0,0,1-1.64.08,2.76,2.76,0,0,1-1.37-1.37,3.53,3.53,0,0,1-.45-2.26,2.59,2.59,0,0,1,1.11-1.72l.45.86a1.77,1.77,0,0,0-.78,1.17,2.46,2.46,0,0,0,.32,1.63,1.66,1.66,0,0,0,.87.85,1.28,1.28,0,0,0,1.06-.08,1.08,1.08,0,0,0,.56-.62,1.81,1.81,0,0,0,.07-.84c-.05-.29-.13-.68-.26-1.16a9.69,9.69,0,0,1-.28-1.39,2.21,2.21,0,0,1,.13-1,1.67,1.67,0,0,1,.84-.84,1.84,1.84,0,0,1,1.66-.08,2.94,2.94,0,0,1,1.4,1.43A3.07,3.07,0,0,1,207.6,109.78Z"/><path class="cls-3" d="M109,200.44a2.65,2.65,0,0,1,1.36,2.18,6.26,6.26,0,0,1-.9,3.65A6.34,6.34,0,0,1,107,209a2.57,2.57,0,0,1-4-2.07,5.94,5.94,0,0,1,.82-3.45,6.3,6.3,0,0,1,2.63-3A2.74,2.74,0,0,1,109,200.44Zm-4.28,8.06a2,2,0,0,0,2.11-.24,6.34,6.34,0,0,0,2-2.39,6.24,6.24,0,0,0,.82-3,1.92,1.92,0,0,0-1-1.87,2,2,0,0,0-2.07.24,6,6,0,0,0-2,2.38,6.26,6.26,0,0,0-.85,3A1.94,1.94,0,0,0,104.73,208.5Z"/><path class="cls-3" d="M113.08,204.35l.3-.79a3.59,3.59,0,0,1,2.44,0,2.82,2.82,0,0,1,1.62,1.46,2.61,2.61,0,0,1,.09,2.12q-.8,2.13-5.58,4.6l4.26,1.61L116,214l-5.81-2.19q5.73-2.38,6.68-4.88a2,2,0,0,0-.07-1.61,2.18,2.18,0,0,0-1.25-1.11,2.34,2.34,0,0,0-1.12-.16A5.49,5.49,0,0,0,113.08,204.35Z"/><path class="cls-3" d="M120.35,213.77l-.37,1.31-.89-.25.36-1.31Z"/><path class="cls-3" d="M128.24,207.13l-1.69,9.4-.72-.13,1.69-9.4Z"/><path class="cls-3" d="M133,209.44l0-.84a3.64,3.64,0,0,1,2.33-.75,2.88,2.88,0,0,1,2,.91,2.6,2.6,0,0,1,.72,2c-.08,1.52-1.39,3.54-3.93,6.08l4.55.24,0,.65-6.2-.33q4.76-4,4.9-6.66a2,2,0,0,0-.55-1.52,2.18,2.18,0,0,0-1.53-.68,2.57,2.57,0,0,0-1.12.18A5.89,5.89,0,0,0,133,209.44Z"/><path class="cls-3" d="M142.74,216.23l0,1.36-.93,0,0-1.36Z"/><path class="cls-3" d="M145.2,209.53l-.1-.84a3.61,3.61,0,0,1,2.15-1.15,2.84,2.84,0,0,1,2.12.54,2.64,2.64,0,0,1,1.07,1.83c.19,1.5-.74,3.73-2.79,6.67l4.52-.57.08.65-6.16.78c2.64-3.2,3.85-5.67,3.63-7.43a2,2,0,0,0-.82-1.39,2.12,2.12,0,0,0-1.62-.4,2.37,2.37,0,0,0-1.07.38A5.45,5.45,0,0,0,145.2,209.53Z"/><path class="cls-3" d="M155.92,205.94a2.65,2.65,0,0,1,2.47.69,6.31,6.31,0,0,1,1.78,3.32,6.25,6.25,0,0,1,0,3.64,2.6,2.6,0,0,1-1.81,1.83,2.65,2.65,0,0,1-2.52-.7,6,6,0,0,1-1.71-3.1,6.27,6.27,0,0,1,0-4A2.75,2.75,0,0,1,155.92,205.94Zm2.24,8.84a2,2,0,0,0,1.4-1.6,6.32,6.32,0,0,0-.11-3.12,6.4,6.4,0,0,0-1.37-2.75,2,2,0,0,0-2-.73,2,2,0,0,0-1.37,1.57,6,6,0,0,0,.1,3.13,6.19,6.19,0,0,0,1.4,2.8A1.93,1.93,0,0,0,158.16,214.78Z"/><path class="cls-3" d="M161.56,206.09l-.31-.78a3.61,3.61,0,0,1,1.81-1.64,2.8,2.8,0,0,1,2.18,0,2.59,2.59,0,0,1,1.49,1.5c.56,1.42.21,3.8-1,7.16l4.23-1.67.24.61-5.78,2.28q2.66-5.62,1.68-8.1a2,2,0,0,0-1.13-1.14,2.18,2.18,0,0,0-1.68,0,2.42,2.42,0,0,0-.94.64A5.91,5.91,0,0,0,161.56,206.09Z"/><path class="cls-3" d="M169.47,202.31l-.33-.6a3.48,3.48,0,0,1,1.51-1.53,3.15,3.15,0,0,1,2.17-.41,2.15,2.15,0,0,1,1.54,1.12,2.21,2.21,0,0,1,.25,1.4,2.52,2.52,0,0,1-.76,1.38l0,0a2.43,2.43,0,0,1,2.83,1.22,2.53,2.53,0,0,1,.2,2.18,3.07,3.07,0,0,1-1.45,1.63,5.29,5.29,0,0,1-2.21.67l-.31-.57a5.26,5.26,0,0,0,2.12-.64,2.42,2.42,0,0,0,1.18-1.28,1.86,1.86,0,0,0-.16-1.6,1.92,1.92,0,0,0-1.33-1,2.68,2.68,0,0,0-1.89.4l-.32-.59a2.67,2.67,0,0,0,1.27-1.31,1.68,1.68,0,0,0-.05-1.47,1.58,1.58,0,0,0-1.18-.81,2.44,2.44,0,0,0-1.65.32A3.53,3.53,0,0,0,169.47,202.31Z"/></svg>