<?xml version="1.0" encoding="UTF-8"?>
<svg xmlns="http://www.w3.org/2000/svg" viewBox="0 0 64 64" width="512" height="512"><g id="avatar-woman-girl-user-female"><path d="M49.29,43.46,37,40.23V37a13.017,13.017,0,0,0,7.84-10.09,4.97,4.97,0,0,0,2.79-8.33A15.97,15.97,0,0,0,38.82,7.54a6.979,6.979,0,0,0-13.66.01,16.049,16.049,0,0,0-8.79,11.02,4.978,4.978,0,0,0,2.79,8.34A13.017,13.017,0,0,0,27,37v3.23L14.7,43.46A9.03,9.03,0,0,0,8,52.17V61a1,1,0,0,0,1,1H55a1,1,0,0,0,1-1V52.17A9.028,9.028,0,0,0,49.29,43.46ZM47,22a2.994,2.994,0,0,1-2,2.81V19.18a3.179,3.179,0,0,1,1.12.69A3.013,3.013,0,0,1,47,22ZM32,4a4.912,4.912,0,0,1,4.38,2.62A16.038,16.038,0,0,0,32,6a15.7,15.7,0,0,0-4.4.63A5,5,0,0,1,32,4ZM19,24.82a3,3,0,0,1-1.13-4.94,3.1,3.1,0,0,1,1.13-.7Zm-.13-7.68A14.058,14.058,0,0,1,32,8a14.07,14.07,0,0,1,13.13,9.14,4.928,4.928,0,0,0-.87-.11L32.38,12.08a.916.916,0,0,0-.76,0L19.74,17.03A4.928,4.928,0,0,0,18.87,17.14ZM21,25V18.67l11-4.59,11,4.59V25a11,11,0,0,1-22,0ZM31,60H22a4,4,0,0,1,0-8V50a5.99,5.99,0,0,0-4.46,10H10V52.17a7.019,7.019,0,0,1,5.21-6.77l8.53-2.25L31,50.41ZM25.98,42.57l2.27-.6A1.014,1.014,0,0,0,29,41V37.64a12.68,12.68,0,0,0,6,0V41a1.014,1.014,0,0,0,.75.97l2.27.6L32,48.59ZM54,60H46.46A5.99,5.99,0,0,0,42,50v2a4,4,0,0,1,0,8H33V50.41l7.26-7.26,8.52,2.25A7.017,7.017,0,0,1,54,52.17Z"/><path d="M26,21a3,3,0,0,0-3,3h2a1,1,0,0,1,2,0h2A3,3,0,0,0,26,21Z"/><path d="M38,23a1,1,0,0,1,1,1h2a3,3,0,0,0-6,0h2A1,1,0,0,1,38,23Z"/><path d="M35,30H33a1,1,0,0,1-2,0H29a3,3,0,0,0,6,0Z"/></g></svg>
