<?xml version="1.0" encoding="utf-8"?>
<!-- Generator: Adobe Illustrator 25.1.0, SVG Export Plug-In . SVG Version: 6.00 Build 0)  -->
<svg version="1.1" id="Capa_1" xmlns="http://www.w3.org/2000/svg" xmlns:xlink="http://www.w3.org/1999/xlink" x="0px" y="0px"
	 viewBox="0 0 100 100" style="enable-background:new 0 0 100 100;" xml:space="preserve">
<style type="text/css">
	.st0{fill:#1D1D1B;}
</style>
<g>
	<g>
		<g>
			<path class="st0" d="M73.2,55.7c0.2-0.5,0.4-1.1,0.6-1.6c-2.6,1.4-5.6,2.2-9.7,2.3c-3.9,0.3-7.8,0-11.5-0.8
				c0.6-0.2,1.1-0.6,1.6-1c1.1-1,2.3-2.5,2-4c-0.2-1.1-1.8-1.6-3-1.4c-1.2,0.2-2.2,0.8-3,1.5c-0.9-0.9-2.2-1.5-3.7-1.5
				c-2.8,0-3.4,2.2-1.9,3.8c0.9,1.1,2.2,2,3.7,2.5c-0.6,0.1-1.2,0.2-1.8,0.3c-5.8,1-13.3,0.6-19.8-1c-0.1,0.3-0.2,0.7-0.3,1
				c6.6,1.6,13.7,2.2,20.5,1.1c1.2-0.2,2.5-0.4,3.7-0.7h0c2.2,0.4,4.4,1,6.7,1.2c4.6,0.3,9.3,0.2,13.7-1
				C71.7,56.2,72.5,56,73.2,55.7z M50.5,55.1c-1.9-0.5-3.7-1.3-4.7-2.7c-0.8-0.9-1-2.2,0.8-2.1c1.3,0,2.4,0.7,3,1.6
				c0.6,0.7,1.2,0,1.2,0c0.4-0.8,1.8-1.5,2.5-1.6c3-0.3,1.1,2.7-0.1,3.6C52.5,54.4,51.6,54.8,50.5,55.1z"/>
			<g>
				<g>
					<path class="st0" d="M58.2,51.2c2.5-2.2,6.6-2.9,10.1-2.3c0.5,0.1,1,0.2,1.5,0.3C65.8,48.8,61.6,49.2,58.2,51.2L58.2,51.2z"/>
				</g>
				<g>
					<path class="st0" d="M58.2,52.7c2.4-1,5.3-1.6,7.9-1C63.4,51.8,60.9,52.3,58.2,52.7L58.2,52.7z"/>
				</g>
				<g>
					<path class="st0" d="M58.2,54c3.8-0.6,8.1-0.8,11.5,0.8C66,53.7,62.1,53.9,58.2,54L58.2,54z"/>
				</g>
				<g>
					<path class="st0" d="M42.2,51.1c-3.5-2-7.8-2.4-12-2c0.5-0.1,1-0.2,1.5-0.3C35.4,48.2,39.5,48.9,42.2,51.1L42.2,51.1z"/>
				</g>
				<g>
					<path class="st0" d="M42.2,52.7c-2.8-0.5-5.4-1-8.2-1C36.7,51,39.7,51.6,42.2,52.7L42.2,52.7z"/>
				</g>
				<g>
					<path class="st0" d="M42.2,53.9c-4,0-8.1-0.2-11.9,0.8C33.8,53.1,38.3,53.3,42.2,53.9L42.2,53.9z"/>
				</g>
			</g>
		</g>
	</g>
</g>
</svg>
