<?xml version="1.0" encoding="utf-8"?>
<!-- Generator: Adobe Illustrator 25.1.0, SVG Export Plug-In . SVG Version: 6.00 Build 0)  -->
<svg version="1.1" id="Capa_1" xmlns="http://www.w3.org/2000/svg" xmlns:xlink="http://www.w3.org/1999/xlink" x="0px" y="0px"
	 viewBox="0 0 100 100" style="enable-background:new 0 0 100 100;" xml:space="preserve">
<style type="text/css">
	.st0{fill:#FFFFFF;}
</style>
<g>
	<g>
		<g>
			<path class="st0" d="M96.9,56.4c0.4-1.3,0.8-2.7,1.2-4c-5.2,3.5-11.3,5.4-19.7,5.8c-7.9,0.7-15.8,0.1-23.4-2.1
				c1.2-0.6,2.3-1.4,3.3-2.4c2.3-2.6,4.7-6.1,4-9.9c-0.4-2.8-3.6-4-6.1-3.6c-2.4,0.6-4.5,1.9-6,3.8c-1.8-2.2-4.4-3.8-7.4-3.7
				c-5.6,0-6.8,5.4-3.8,9.5c1.8,2.8,4.5,4.9,7.4,6.3c-1.2,0.3-2.5,0.5-3.7,0.8c-11.8,2.4-27,1.4-40.2-2.6c-0.2,0.8-0.5,1.7-0.7,2.5
				c13.4,3.9,27.7,5.5,41.5,2.7c2.5-0.6,5.1-1,7.6-1.7c0,0,0.1,0,0.1,0c4.5,1.1,9,2.6,13.6,2.9c9.3,0.8,18.8,0.4,27.8-2.5
				C94,57.8,95.5,57.1,96.9,56.4z M50.9,55c-3.8-1.2-7.4-3.3-9.5-6.6c-1.6-2.3-2-5.4,1.6-5.3c2.6-0.1,4.8,1.8,6.1,4
				c1.2,1.8,2.4,0,2.4,0c0.8-1.9,3.7-3.8,5-4.1c6-0.7,2.2,6.7-0.2,8.9C55,53.3,53.1,54.3,50.9,55z"/>
			<g>
				<g>
					<path class="st0" d="M66.6,45.2c5.1-5.4,13.3-7.1,20.5-5.7c1,0.2,2,0.5,3,0.8C82,39.3,73.4,40.4,66.6,45.2L66.6,45.2z"/>
				</g>
				<g>
					<path class="st0" d="M66.6,49.1c4.8-2.6,10.7-4,16.1-2.4C77.1,46.7,72,47.9,66.6,49.1L66.6,49.1z"/>
				</g>
				<g>
					<path class="st0" d="M66.5,52.2c7.7-1.6,16.4-2,23.4,1.9C82.4,51.6,74.4,52.1,66.5,52.2L66.5,52.2z"/>
				</g>
				<g>
					<path class="st0" d="M34.1,45.1c-7.1-4.9-15.9-5.9-24.3-4.9c1-0.3,2.1-0.6,3.1-0.8C20.3,37.9,28.7,39.6,34.1,45.1L34.1,45.1z"
						/>
				</g>
				<g>
					<path class="st0" d="M34.1,48.9c-5.6-1.2-10.9-2.4-16.6-2.4C23,44.9,29.1,46.3,34.1,48.9L34.1,48.9z"/>
				</g>
				<g>
					<path class="st0" d="M34.1,52C26,52,17.7,51.5,9.9,53.9C17.2,50,26.2,50.4,34.1,52L34.1,52z"/>
				</g>
			</g>
		</g>
	</g>
</g>
</svg>
