<svg xmlns="http://www.w3.org/2000/svg" xmlns:xlink="http://www.w3.org/1999/xlink" width="40" zoomAndPan="magnify" viewBox="0 0 30 30.000001" height="40" preserveAspectRatio="xMidYMid meet" version="1.0"><defs><clipPath id="323eaa4193"><path d="M 0.484375 0 L 29.515625 0 L 29.515625 29.03125 L 0.484375 29.03125 Z M 0.484375 0 " clip-rule="nonzero"/></clipPath></defs><g clip-path="url(#323eaa4193)"><path fill="#000000" d="M 23.574219 0 L 6.425781 0 C 3.148438 0 0.484375 2.667969 0.484375 5.945312 L 0.484375 23.089844 C 0.484375 26.367188 3.148438 29.03125 6.425781 29.03125 L 23.574219 29.03125 C 26.851562 29.03125 29.515625 26.367188 29.515625 23.089844 L 29.515625 5.945312 C 29.515625 2.667969 26.851562 0 23.574219 0 Z M 27.808594 23.089844 C 27.808594 25.425781 25.90625 27.324219 23.574219 27.324219 L 6.425781 27.324219 C 4.09375 27.324219 2.191406 25.425781 2.191406 23.089844 L 2.191406 5.945312 C 2.191406 3.609375 4.09375 1.707031 6.425781 1.707031 L 23.574219 1.707031 C 25.90625 1.707031 27.808594 3.609375 27.808594 5.945312 Z M 27.808594 23.089844 " fill-opacity="1" fill-rule="nonzero"/></g><path fill="#000000" d="M 9.308594 11.535156 L 5.890625 11.535156 C 5.421875 11.535156 5.039062 11.917969 5.039062 12.386719 L 5.039062 23.515625 C 5.039062 23.988281 5.421875 24.371094 5.890625 24.371094 L 9.308594 24.371094 C 9.777344 24.371094 10.160156 23.988281 10.160156 23.515625 L 10.160156 12.386719 C 10.160156 11.917969 9.777344 11.535156 9.308594 11.535156 Z M 8.453125 22.664062 L 6.746094 22.664062 L 6.746094 13.242188 L 8.453125 13.242188 Z M 8.453125 22.664062 " fill-opacity="1" fill-rule="nonzero"/><path fill="#000000" d="M 16.992188 13.054688 L 16.992188 12.386719 C 16.992188 11.917969 16.609375 11.535156 16.136719 11.535156 L 12.722656 11.535156 C 12.25 11.535156 11.867188 11.917969 11.867188 12.386719 L 11.867188 23.515625 C 11.867188 23.988281 12.25 24.371094 12.722656 24.371094 L 16.136719 24.371094 C 16.609375 24.371094 16.992188 23.988281 16.992188 23.515625 L 16.992188 19.449219 C 16.992188 18.664062 17.628906 18.023438 18.414062 18.023438 C 19.199219 18.023438 19.839844 18.664062 19.839844 19.449219 L 19.839844 23.515625 C 19.839844 23.988281 20.222656 24.371094 20.691406 24.371094 L 24.109375 24.371094 C 24.578125 24.371094 24.960938 23.988281 24.960938 23.515625 L 24.960938 19.449219 C 24.960938 15.277344 21.085938 12.144531 16.992188 13.054688 Z M 23.253906 22.664062 L 21.546875 22.664062 L 21.546875 19.449219 C 21.546875 17.722656 20.140625 16.316406 18.414062 16.316406 C 16.6875 16.316406 15.285156 17.722656 15.285156 19.449219 L 15.285156 22.664062 L 13.578125 22.664062 L 13.578125 13.242188 L 15.285156 13.242188 L 15.285156 14.230469 C 15.285156 14.847656 15.917969 15.257812 16.480469 15.011719 C 19.648438 13.625 23.253906 15.945312 23.253906 19.449219 Z M 23.253906 22.664062 " fill-opacity="1" fill-rule="nonzero"/><path fill="#000000" d="M 7.601562 4.660156 C 6.1875 4.660156 5.039062 5.808594 5.039062 7.222656 C 5.039062 8.636719 6.1875 9.785156 7.601562 9.785156 C 9.011719 9.785156 10.160156 8.636719 10.160156 7.222656 C 10.160156 5.808594 9.011719 4.660156 7.601562 4.660156 Z M 7.601562 8.078125 C 7.128906 8.078125 6.746094 7.691406 6.746094 7.222656 C 6.746094 6.75 7.128906 6.367188 7.601562 6.367188 C 8.070312 6.367188 8.453125 6.75 8.453125 7.222656 C 8.453125 7.691406 8.070312 8.078125 7.601562 8.078125 Z M 7.601562 8.078125 " fill-opacity="1" fill-rule="nonzero"/></svg>