<svg id="visual" viewBox="0 0 960 540" width="960" height="540" xmlns="http://www.w3.org/2000/svg" xmlns:xlink="http://www.w3.org/1999/xlink" version="1.1"><rect x="0" y="0" width="960" height="540" fill="#077A83"></rect><path d="M598 0L598 0L598 270L598 270L598 540L0 540L0 270L0 270L0 0L0 0Z" fill="#077a83"></path><path d="M524 0L524 0L524 270L524 270L524 540L0 540L0 270L0 270L0 0L0 0Z" fill="#418c94"></path><path d="M449 0L449 0L449 270L449 270L449 540L0 540L0 270L0 270L0 0L0 0Z" fill="#649fa5"></path><path d="M374 0L374 0L374 270L374 270L374 540L0 540L0 270L0 270L0 0L0 0Z" fill="#84b2b6"></path><path d="M300 0L300 0L300 270L300 270L300 540L0 540L0 270L0 270L0 0L0 0Z" fill="#a2c5c8"></path><path d="M225 0L225 0L225 270L225 270L225 540L0 540L0 270L0 270L0 0L0 0Z" fill="#c1d8da"></path><path d="M150 0L150 0L150 270L150 270L150 540L0 540L0 270L0 270L0 0L0 0Z" fill="#e0ebec"></path><path d="M76 0L76 0L76 270L76 270L76 540L0 540L0 270L0 270L0 0L0 0Z" fill="#ffffff"></path></svg>