<svg id="visual" viewBox="0 0 540 960" width="540" height="960" xmlns="http://www.w3.org/2000/svg" xmlns:xlink="http://www.w3.org/1999/xlink" version="1.1"><rect x="0" y="0" width="540" height="960" fill="#077A83"></rect><path d="M0 397L270 397L270 397L540 397L540 397L540 961L540 961L270 961L270 961L0 961Z" fill="#077a83"></path><path d="M0 473L270 473L270 473L540 473L540 473L540 961L540 961L270 961L270 961L0 961Z" fill="#478f97"></path><path d="M0 549L270 549L270 549L540 549L540 549L540 961L540 961L270 961L270 961L0 961Z" fill="#6fa5ab"></path><path d="M0 624L270 624L270 624L540 624L540 624L540 961L540 961L270 961L270 961L0 961Z" fill="#93bbbf"></path><path d="M0 700L270 700L270 700L540 700L540 700L540 961L540 961L270 961L270 961L0 961Z" fill="#b7d1d4"></path><path d="M0 775L270 775L270 775L540 775L540 775L540 961L540 961L270 961L270 961L0 961Z" fill="#dbe8e9"></path><path d="M0 851L270 851L270 851L540 851L540 851L540 961L540 961L270 961L270 961L0 961Z" fill="#ffffff"></path></svg>