<svg id="visual" viewBox="0 0 960 540" width="960" height="540" xmlns="http://www.w3.org/2000/svg" xmlns:xlink="http://www.w3.org/1999/xlink" version="1.1"><path d="M0 66L14.5 67.8C29 69.7 58 73.3 87.2 74.2C116.3 75 145.7 73 174.8 72C204 71 233 71 262 70.2C291 69.3 320 67.7 349 66.8C378 66 407 66 436.2 64.2C465.3 62.3 494.7 58.7 523.8 54.2C553 49.7 582 44.3 611 44.3C640 44.3 669 49.7 698 54.2C727 58.7 756 62.3 785.2 63.2C814.3 64 843.7 62 872.8 58.3C902 54.7 931 49.3 945.5 46.7L960 44L960 0L945.5 0C931 0 902 0 872.8 0C843.7 0 814.3 0 785.2 0C756 0 727 0 698 0C669 0 640 0 611 0C582 0 553 0 523.8 0C494.7 0 465.3 0 436.2 0C407 0 378 0 349 0C320 0 291 0 262 0C233 0 204 0 174.8 0C145.7 0 116.3 0 87.2 0C58 0 29 0 14.5 0L0 0Z" fill="#034656"></path><path d="M0 120L14.5 118.2C29 116.3 58 112.7 87.2 110.8C116.3 109 145.7 109 174.8 109.8C204 110.7 233 112.3 262 110.5C291 108.7 320 103.3 349 101.7C378 100 407 102 436.2 100.2C465.3 98.3 494.7 92.7 523.8 89.8C553 87 582 87 611 87C640 87 669 87 698 88.8C727 90.7 756 94.3 785.2 100.7C814.3 107 843.7 116 872.8 117C902 118 931 111 945.5 107.5L960 104L960 42L945.5 44.7C931 47.3 902 52.7 872.8 56.3C843.7 60 814.3 62 785.2 61.2C756 60.3 727 56.7 698 52.2C669 47.7 640 42.3 611 42.3C582 42.3 553 47.7 523.8 52.2C494.7 56.7 465.3 60.3 436.2 62.2C407 64 378 64 349 64.8C320 65.7 291 67.3 262 68.2C233 69 204 69 174.8 70C145.7 71 116.3 73 87.2 72.2C58 71.3 29 67.7 14.5 65.8L0 64Z" fill="#336f78"></path><path d="M0 201L14.5 204.5C29 208 58 215 87.2 217.7C116.3 220.3 145.7 218.7 174.8 220.5C204 222.3 233 227.7 262 226.8C291 226 320 219 349 216.3C378 213.7 407 215.3 436.2 219.8C465.3 224.3 494.7 231.7 523.8 230.8C553 230 582 221 611 216.5C640 212 669 212 698 218.2C727 224.3 756 236.7 785.2 235.7C814.3 234.7 843.7 220.3 872.8 219.5C902 218.7 931 231.3 945.5 237.7L960 244L960 102L945.5 105.5C931 109 902 116 872.8 115C843.7 114 814.3 105 785.2 98.7C756 92.3 727 88.7 698 86.8C669 85 640 85 611 85C582 85 553 85 523.8 87.8C494.7 90.7 465.3 96.3 436.2 98.2C407 100 378 98 349 99.7C320 101.3 291 106.7 262 108.5C233 110.3 204 108.7 174.8 107.8C145.7 107 116.3 107 87.2 108.8C58 110.7 29 114.3 14.5 116.2L0 118Z" fill="#5f9a99"></path><path d="M0 325L14.5 332.2C29 339.3 58 353.7 87.2 354.5C116.3 355.3 145.7 342.7 174.8 336.3C204 330 233 330 262 336.3C291 342.7 320 355.3 349 354.5C378 353.7 407 339.3 436.2 333C465.3 326.7 494.7 328.3 523.8 329.2C553 330 582 330 611 327.3C640 324.7 669 319.3 698 322.2C727 325 756 336 785.2 341.5C814.3 347 843.7 347 872.8 344.2C902 341.3 931 335.7 945.5 332.8L960 330L960 242L945.5 235.7C931 229.3 902 216.7 872.8 217.5C843.7 218.3 814.3 232.7 785.2 233.7C756 234.7 727 222.3 698 216.2C669 210 640 210 611 214.5C582 219 553 228 523.8 228.8C494.7 229.7 465.3 222.3 436.2 217.8C407 213.3 378 211.7 349 214.3C320 217 291 224 262 224.8C233 225.7 204 220.3 174.8 218.5C145.7 216.7 116.3 218.3 87.2 215.7C58 213 29 206 14.5 202.5L0 199Z" fill="#90c7bb"></path><path d="M0 347L14.5 354.2C29 361.3 58 375.7 87.2 378.3C116.3 381 145.7 372 174.8 365.7C204 359.3 233 355.7 262 361C291 366.3 320 380.7 349 380.7C378 380.7 407 366.3 436.2 360C465.3 353.7 494.7 355.3 523.8 358C553 360.7 582 364.3 611 361.7C640 359 669 350 698 352.7C727 355.3 756 369.7 785.2 376C814.3 382.3 843.7 380.7 872.8 378C902 375.3 931 371.7 945.5 369.8L960 368L960 328L945.5 330.8C931 333.7 902 339.3 872.8 342.2C843.7 345 814.3 345 785.2 339.5C756 334 727 323 698 320.2C669 317.3 640 322.7 611 325.3C582 328 553 328 523.8 327.2C494.7 326.3 465.3 324.7 436.2 331C407 337.3 378 351.7 349 352.5C320 353.3 291 340.7 262 334.3C233 328 204 328 174.8 334.3C145.7 340.7 116.3 353.3 87.2 352.5C58 351.7 29 337.3 14.5 330.2L0 323Z" fill="#9ad0c2"></path><path d="M0 384L14.5 388.5C29 393 58 402 87.2 402C116.3 402 145.7 393 174.8 389.5C204 386 233 388 262 394.3C291 400.7 320 411.3 349 410.3C378 409.3 407 396.7 436.2 391.3C465.3 386 494.7 388 523.8 390.8C553 393.7 582 397.3 611 393.7C640 390 669 379 698 379.8C727 380.7 756 393.3 785.2 398.8C814.3 404.3 843.7 402.7 872.8 400C902 397.3 931 393.7 945.5 391.8L960 390L960 366L945.5 367.8C931 369.7 902 373.3 872.8 376C843.7 378.7 814.3 380.3 785.2 374C756 367.7 727 353.3 698 350.7C669 348 640 357 611 359.7C582 362.3 553 358.7 523.8 356C494.7 353.3 465.3 351.7 436.2 358C407 364.3 378 378.7 349 378.7C320 378.7 291 364.3 262 359C233 353.7 204 357.3 174.8 363.7C145.7 370 116.3 379 87.2 376.3C58 373.7 29 359.3 14.5 352.2L0 345Z" fill="#90c7bb"></path><path d="M0 433L14.5 434.8C29 436.7 58 440.3 87.2 438.5C116.3 436.7 145.7 429.3 174.8 426.7C204 424 233 426 262 430.5C291 435 320 442 349 440.2C378 438.3 407 427.7 436.2 425C465.3 422.3 494.7 427.7 523.8 431.2C553 434.7 582 436.3 611 433.7C640 431 669 424 698 426.8C727 429.7 756 442.3 785.2 444.2C814.3 446 843.7 437 872.8 432.5C902 428 931 428 945.5 428L960 428L960 388L945.5 389.8C931 391.7 902 395.3 872.8 398C843.7 400.7 814.3 402.3 785.2 396.8C756 391.3 727 378.7 698 377.8C669 377 640 388 611 391.7C582 395.3 553 391.7 523.8 388.8C494.7 386 465.3 384 436.2 389.3C407 394.7 378 407.3 349 408.3C320 409.3 291 398.7 262 392.3C233 386 204 384 174.8 387.5C145.7 391 116.3 400 87.2 400C58 400 29 391 14.5 386.5L0 382Z" fill="#5f9a99"></path><path d="M0 471L14.5 473.7C29 476.3 58 481.7 87.2 480.7C116.3 479.7 145.7 472.3 174.8 467C204 461.7 233 458.3 262 462C291 465.7 320 476.3 349 477.2C378 478 407 469 436.2 466.3C465.3 463.7 494.7 467.3 523.8 471C553 474.7 582 478.3 611 476.5C640 474.7 669 467.3 698 467.3C727 467.3 756 474.7 785.2 473.8C814.3 473 843.7 464 872.8 462.2C902 460.3 931 465.7 945.5 468.3L960 471L960 426L945.5 426C931 426 902 426 872.8 430.5C843.7 435 814.3 444 785.2 442.2C756 440.3 727 427.7 698 424.8C669 422 640 429 611 431.7C582 434.3 553 432.7 523.8 429.2C494.7 425.7 465.3 420.3 436.2 423C407 425.7 378 436.3 349 438.2C320 440 291 433 262 428.5C233 424 204 422 174.8 424.7C145.7 427.3 116.3 434.7 87.2 436.5C58 438.3 29 434.7 14.5 432.8L0 431Z" fill="#336f78"></path><path d="M0 541L14.5 541C29 541 58 541 87.2 541C116.3 541 145.7 541 174.8 541C204 541 233 541 262 541C291 541 320 541 349 541C378 541 407 541 436.2 541C465.3 541 494.7 541 523.8 541C553 541 582 541 611 541C640 541 669 541 698 541C727 541 756 541 785.2 541C814.3 541 843.7 541 872.8 541C902 541 931 541 945.5 541L960 541L960 469L945.5 466.3C931 463.7 902 458.3 872.8 460.2C843.7 462 814.3 471 785.2 471.8C756 472.7 727 465.3 698 465.3C669 465.3 640 472.7 611 474.5C582 476.3 553 472.7 523.8 469C494.7 465.3 465.3 461.7 436.2 464.3C407 467 378 476 349 475.2C320 474.3 291 463.7 262 460C233 456.3 204 459.7 174.8 465C145.7 470.3 116.3 477.7 87.2 478.7C58 479.7 29 474.3 14.5 471.7L0 469Z" fill="#034656"></path></svg>