<?xml version="1.0"?>
<svg xmlns="http://www.w3.org/2000/svg" viewBox="0 0 512 512" width="512" height="512"><g id="outline"><path d="M234.343,290.262l-8.081,8.081a8,8,0,0,0,11.314,11.314l8.081-8.082a8,8,0,1,0-11.314-11.313Z"/><path d="M282.343,242.262l-24.081,24.081a8,8,0,0,0,11.314,11.314l24.081-24.082a8,8,0,0,0-11.314-11.313Z"/><path d="M456.876,213.562A25.818,25.818,0,0,0,418.5,248H387.648a55.568,55.568,0,0,0-46.127-86.53,55.764,55.764,0,0,0-24.315,5.633,55.483,55.483,0,0,0-66.414,9.168l-25.247,25.248L200.3,176.271A55.552,55.552,0,0,0,115.925,248h-6.691L95.155,219.842A8,8,0,0,0,88,215.42H24A8,8,0,0,0,16.845,227L31.056,255.42,16.845,283.842A8,8,0,0,0,24,295.42H88A8,8,0,0,0,95.155,291l13.5-27H130.9l88.988,88.987a8,8,0,0,0,11.314,0l19.331-19.332,20.8,20.8a8,8,0,0,0,11.314,0L373.507,263.6A8,8,0,0,0,376,264h42.5a25.819,25.819,0,0,0,38.375,34.438l36.781-36.781a8,8,0,0,0,0-11.314ZM51.346,279.42h-14.4L44.654,264h14.4ZM45.234,248l-8.29-16.58H51.056L59.346,248Zm37.822,31.42H69.234L76.944,264H90.766ZM77.234,248l-8.29-16.58H83.056L91.346,248Zm167.65,68.677-.008.008-.007.008-19.324,19.324L153.528,264H208a8,8,0,0,0,0-16H137.528l-4.48-4.48a39.552,39.552,0,0,1,55.934-55.936l30.906,30.905a8,8,0,0,0,11.314,0l30.9-30.9a39.552,39.552,0,0,1,55.936,55.935h0Zm124.6-71.687-92.5,92.5-15.145-15.144,67.508-67.509h0a55.48,55.48,0,0,0,2.277-76.09,39.542,39.542,0,0,1,37.857,66.247Zm76.074,42.134a9.819,9.819,0,1,1-13.885-13.886l11.58-11.581a8,8,0,0,0,0-11.314l-11.58-11.581a9.819,9.819,0,1,1,13.885-13.886L476.687,256Z"/></g></svg>
