<svg height="512" viewBox="0 0 64 64" width="512" xmlns="http://www.w3.org/2000/svg"><g id="smartphone"><path d="m32 41a14 14 0 1 1 14-14 14.01572 14.01572 0 0 1 -14 14zm0-26a12 12 0 1 0 12 12 12.01343 12.01343 0 0 0 -12-12z"/><path d="m32 34.48535a.99672.99672 0 0 1 -.707-.293l-5.65723-5.65674a5.00055 5.00055 0 0 1 6.36423-7.65961 5.00956 5.00956 0 0 1 6.36426.58838 5.00823 5.00823 0 0 1 0 7.07128l-5.65726 5.65672a.99672.99672 0 0 1 -.707.29297zm-2.8291-12.48389a2.99854 2.99854 0 0 0 -2.1211 5.12012l4.9502 4.94971 4.9502-4.94971a3.00037 3.00037 0 0 0 -4.2432-4.24316.99964.99964 0 0 1 -1.41406 0 2.99329 2.99329 0 0 0 -2.12204-.87696z"/><path d="m48 5h-32a3.00328 3.00328 0 0 0 -3 3v48a3.00328 3.00328 0 0 0 3 3h32a3.00328 3.00328 0 0 0 3-3v-48a3.00328 3.00328 0 0 0 -3-3zm-32 2h32a1.001 1.001 0 0 1 1 1v39h-34v-39a1.001 1.001 0 0 1 1-1zm32 50h-32a1.001 1.001 0 0 1 -1-1v-7h34v7a1.001 1.001 0 0 1 -1 1z"/><path d="m35 54h-6a1 1 0 0 1 0-2h6a1 1 0 0 1 0 2z"/><path d="m46 15a.99974.99974 0 0 1 -1-1v-4a1 1 0 0 1 2 0v4a.99974.99974 0 0 1 -1 1z"/><circle cx="46" cy="18" r="1"/></g></svg>