<svg id="Capa_1" enable-background="new 0 0 512 512" height="512" viewBox="0 0 512 512" width="512" xmlns="http://www.w3.org/2000/svg"><g><path d="m264.646 512c-6.841 0-66.838-.659-66.838-23.5 0-18.972 41.395-22.641 59.338-23.339v-34.387c-4.978-2.6-7.735-7.744-9.966-12.656-22.545-49.655-55.892-79.447-88.14-108.259-42.654-38.107-82.942-74.102-82.942-148.547 0-63.471 37.833-117.387 101.204-144.226 3.815-1.616 8.216.168 9.831 3.981 1.615 3.814-.167 8.216-3.981 9.831-57.641 24.412-92.054 73.164-92.054 130.413 0 67.731 36.117 99.999 77.936 137.361 31.852 28.456 67.952 60.709 91.805 113.243 2.057 4.53 3.063 5.411 3.278 5.559.004-.008.174.024.53.024.424 0 .582-.046.583-.047.112-.084 1.117-.895 3.224-5.536 23.853-52.534 59.953-84.787 91.804-113.243 41.82-37.362 77.937-69.63 77.937-137.361 0-11.516-1.374-22.814-4.086-33.602-2.646-4.551-4.718-11.09-7.134-18.718-1.348-4.253-3.351-10.578-4.464-12.517-1.41-.999-5.613-2.852-8.45-4.102-10.088-4.445-19.615-8.644-19.615-17.021 0-3.688 1.847-6.566 4.774-9.013-32.213-32.73-80.7-51.338-134.574-51.338-16.971 0-33.624 1.868-49.497 5.552-4.04.939-8.065-1.575-9.001-5.61-.937-4.034 1.575-8.064 5.61-9.001 16.983-3.942 34.777-5.941 52.888-5.941 59.538 0 113.185 21.388 148.189 58.871.407-.18.815-.359 1.225-.54 2.838-1.25 7.04-3.103 8.45-4.102 1.113-1.938 3.116-8.264 4.464-12.517 4.694-14.821 8.086-25.529 16.925-25.529 8.84 0 12.231 10.709 16.927 25.53 1.347 4.253 3.35 10.577 4.463 12.516 1.41.999 5.612 2.852 8.45 4.102 10.087 4.445 19.615 8.644 19.615 17.022s-9.527 12.576-19.615 17.021c-2.837 1.25-7.04 3.103-8.45 4.102-1.113 1.938-3.116 8.263-4.463 12.516-3.326 10.499-5.997 18.935-10.415 22.961 1.849 9.548 2.783 19.387 2.783 29.359 0 74.445-40.288 110.439-82.942 148.547-32.248 28.812-65.594 58.604-88.14 108.259-2.23 4.912-4.987 10.057-9.966 12.656v34.387c17.942.698 59.338 4.367 59.338 23.339 0 22.841-59.997 23.5-66.838 23.5zm-50.632-23.5c5.398 3.468 22.87 8.5 50.632 8.5 27.763 0 45.233-5.032 50.632-8.5-5.398-3.468-22.869-8.5-50.632-8.5-27.762 0-45.234 5.032-50.632 8.5zm102.794 1.315h.011zm96.153-414.461c2.397 1.202 5.224 2.447 7.146 3.295 6.47 2.851 10.567 4.73 13.167 7.329 2.998 2.999 4.805 8.401 7.999 18.486.728 2.296 1.662 5.25 2.625 8.038.964-2.789 1.899-5.742 2.627-8.039 3.193-10.085 5-15.486 7.998-18.485 2.6-2.599 6.697-4.479 13.167-7.329 1.923-.848 4.749-2.093 7.146-3.295-2.398-1.203-5.225-2.448-7.147-3.296-6.47-2.851-10.566-4.73-13.166-7.329-2.998-2.999-4.805-8.4-7.998-18.485-.728-2.297-1.663-5.25-2.627-8.039-.963 2.788-1.897 5.742-2.625 8.038-3.194 10.085-5.001 15.487-7.999 18.486-2.6 2.599-6.696 4.479-13.166 7.329-1.922.847-4.748 2.092-7.147 3.296zm-216.484 372.146c-12.407 0-22.5-10.094-22.5-22.5s10.093-22.5 22.5-22.5 22.5 10.094 22.5 22.5-10.093 22.5-22.5 22.5zm0-30c-4.136 0-7.5 3.364-7.5 7.5s3.364 7.5 7.5 7.5 7.5-3.364 7.5-7.5-3.364-7.5-7.5-7.5zm211.407-22.549c-12.406 0-22.5-10.094-22.5-22.5s10.094-22.5 22.5-22.5 22.5 10.094 22.5 22.5-10.093 22.5-22.5 22.5zm0-30c-4.136 0-7.5 3.364-7.5 7.5s3.364 7.5 7.5 7.5 7.5-3.364 7.5-7.5-3.364-7.5-7.5-7.5zm41.342-37.144c-4.143 0-7.5-3.357-7.5-7.5v-15.5h-11.5c-4.143 0-7.5-3.357-7.5-7.5s3.357-7.5 7.5-7.5h11.5v-15.5c0-4.143 3.357-7.5 7.5-7.5s7.5 3.357 7.5 7.5v15.5h11.5c4.143 0 7.5 3.357 7.5 7.5s-3.357 7.5-7.5 7.5h-11.5v15.5c0 4.142-3.357 7.5-7.5 7.5zm-369.931-8c-12.407 0-22.5-10.094-22.5-22.5s10.093-22.5 22.5-22.5 22.5 10.094 22.5 22.5-10.093 22.5-22.5 22.5zm0-30c-4.135 0-7.5 3.364-7.5 7.5s3.365 7.5 7.5 7.5c4.136 0 7.5-3.364 7.5-7.5s-3.364-7.5-7.5-7.5zm185.351-1.51c-83.117 0-150.738-57.143-150.738-127.38s67.621-127.379 150.738-127.379 150.738 57.142 150.738 127.379c0 58.806-47.112 109.67-114.568 123.692-4.055.849-8.027-1.76-8.869-5.816-.844-4.056 1.761-8.026 5.816-8.869 60.422-12.562 102.621-57.386 102.621-109.007 0-61.966-60.892-112.379-135.738-112.379s-135.738 50.413-135.738 112.379c0 61.967 60.892 112.38 135.738 112.38 4.143 0 7.5 3.357 7.5 7.5s-3.357 7.5-7.5 7.5zm45.125-38.548c-1.676 0-3.352-.56-4.729-1.679-7.585-6.163-14.697-11.69-20.972-16.567-14.948-11.618-26.974-20.966-35.323-31.076-1.155.899-2.329 1.812-3.522 2.739-6.275 4.877-13.388 10.405-20.975 16.569-2.755 2.238-6.703 2.238-9.458 0-7.586-6.163-14.699-11.691-20.974-16.568-30.302-23.552-48.593-37.768-48.593-67.939 0-24.283 19.756-44.039 44.04-44.039 11.379 0 22.162 4.383 30.256 12.038 8.094-7.656 18.877-12.038 30.256-12.038 19.377 0 35.872 12.578 41.746 30 6.815 1.93 13.079 5.483 18.248 10.372 8.095-7.656 18.877-12.038 30.257-12.038 24.283 0 44.039 19.756 44.039 44.039 0 30.172-18.291 44.389-48.595 67.941-6.274 4.877-13.387 10.404-20.972 16.567-1.377 1.119-3.053 1.679-4.729 1.679zm-49.226-58.673c6.897 8.289 17.57 16.802 32.729 28.584 5.021 3.901 10.571 8.216 16.496 12.956 5.926-4.74 11.477-9.055 16.496-12.957 30.445-23.662 42.8-34.141 42.8-56.098 0-16.012-13.027-29.039-29.039-29.039-9.639 0-18.629 4.771-24.051 12.761-1.396 2.058-3.72 3.289-6.206 3.289s-4.811-1.231-6.206-3.289c-2.571-3.79-5.946-6.855-9.812-9.031-.967 22.825-13.044 36.369-33.207 52.824zm-71.28-84.888c-16.013 0-29.04 13.027-29.04 29.039 0 21.957 12.354 32.435 42.798 56.096 5.02 3.902 10.572 8.217 16.498 12.958 5.927-4.741 11.478-9.057 16.499-12.959 1.563-1.215 3.076-2.394 4.544-3.541-3.33-7.042-5.089-14.864-5.089-24.22 0-22.548 17.033-41.192 38.908-43.742-5.142-8.182-14.249-13.631-24.606-13.631-9.638 0-18.629 4.771-24.05 12.761-1.396 2.057-3.72 3.289-6.207 3.289-2.486 0-4.811-1.231-6.206-3.289-5.421-7.99-14.412-12.761-24.049-12.761zm89.544 28.343c-15.688.377-28.333 13.255-28.333 29.03 0 5.38.741 10.068 2.309 14.433 18.301-15.212 26.033-25.397 26.033-42.767-.001-.232-.004-.464-.009-.696zm-233.663 107.814c-4.142 0-7.5-3.357-7.5-7.5v-15.5h-11.5c-4.142 0-7.5-3.357-7.5-7.5s3.358-7.5 7.5-7.5h11.5v-15.5c0-4.143 3.358-7.5 7.5-7.5s7.5 3.357 7.5 7.5v15.5h11.5c4.142 0 7.5 3.357 7.5 7.5s-3.358 7.5-7.5 7.5h-11.5v15.5c0 4.142-3.358 7.5-7.5 7.5zm39.149-178.807c-12.407 0-22.5-10.094-22.5-22.5s10.093-22.5 22.5-22.5 22.5 10.094 22.5 22.5-10.093 22.5-22.5 22.5zm0-30c-4.135 0-7.5 3.364-7.5 7.5s3.365 7.5 7.5 7.5c4.136 0 7.5-3.364 7.5-7.5s-3.364-7.5-7.5-7.5z"/></g></svg>