<svg id="Capa_1" data-name="Capa 1" xmlns="http://www.w3.org/2000/svg" viewBox="0 0 500 500"><defs><style>.cls-1{fill:#d66d54;}.cls-1,.cls-2,.cls-3{fill-rule:evenodd;opacity:0.34;}.cls-2{fill:#fff;}.cls-3{fill:#c65641;}</style></defs><path class="cls-1" d="M475.92,164c-12.93-33.87-58.76-50.87-119.37-49.72C342.67,55.2,314.87,15,278.86,10.84a55.5,55.5,0,0,0-20.79,1.67c-28.47,6.26-56.07,34.16-78,76.06C125,72.41,79,76.47,57.77,104.2c-21,27.46-13.24,72.36,16,120.7-41.8,38-62,78.84-49.7,111.15C37,369.92,82.84,386.92,143.45,385.77c13.88,59,41.68,99.24,77.69,103.39a55.5,55.5,0,0,0,20.79-1.67c28.47-6.26,56.07-34.16,78-76.06,55,16.16,101.07,12.1,122.29-15.63,21-27.46,13.24-72.36-16-120.7C468,237.09,488.26,196.26,475.92,164Z"/><path class="cls-2" d="M257.57,310a53.09,53.09,0,0,1,30.71-13.18c6.3-.54,11.32-2.77,14.41-6.84s3.86-9.4,2.74-15.54a52.06,52.06,0,0,1,4.6-32.59c2.78-5.59,3.48-11,1.66-15.68-2-5.24-6.89-9-13.75-11.21a49.28,49.28,0,0,1-26.28-20.26c-3.9-6.05-8.76-9.81-14.34-10.44-5.07-.56-10.16,1.54-14.88,5.73a53.17,53.17,0,0,1-30.71,13.17c-6.3.55-11.32,2.78-14.42,6.85s-3.87,9.4-2.75,15.54A51.94,51.94,0,0,1,190,258.14c-2.78,5.59-3.48,11-1.67,15.69,2,5.23,6.91,9,13.76,11.19a49.44,49.44,0,0,1,26.28,20.27c3.9,6.06,8.77,9.82,14.34,10.45C247.75,316.3,252.83,314.2,257.57,310Z"/><path class="cls-3" d="M231,340.9s-33.17,98.81-15.41,97.46S231,340.9,231,340.9ZM172.57,191.62S93.48,123.73,88.06,140.7s84.51,50.92,84.51,50.92Zm88.16-20.68s22.35-101.81,4.84-98.55-4.84,98.55-4.84,98.55ZM166.24,281.35S63.77,300.44,73.59,315.29,166.24,281.35,166.24,281.35Zm164.07-62.12s94.33-18.55,91.8-36.19-91.8,36.19-91.8,36.19Zm63.12,155.89c14-11-77.35-61.26-77.35-61.26S379.45,386.17,393.43,375.12Z"/></svg>