<svg id="Capa_1" data-name="Capa 1" xmlns="http://www.w3.org/2000/svg" viewBox="0 0 500 500"><defs><style>.cls-1{fill:#8ab35d;fill-rule:evenodd;opacity:0.34;}</style></defs><path class="cls-1" d="M41.11,130.66a138.21,138.21,0,0,1,180,95.73c-13.1-8.06-27.48-16.51-42.73-25-36.14-20.18-69.47-36.49-93.2-46.11,20.64,15.16,52,35,88.15,55.16,15.24,8.51,30,16.32,43.71,23.24a138.22,138.22,0,0,1-175.93-103Z"/><path class="cls-1" d="M240.65,10.58a138.21,138.21,0,0,1,17.69,203.1c-.37-15.38-1.12-32-2.28-49.47-2.75-41.3-7.21-78.13-12.06-103.28-1.48,25.57-1,62.67,1.72,104,1.16,17.43,2.63,34,4.3,49.33a138.21,138.21,0,0,1-9.37-203.65Z"/><path class="cls-1" d="M458.89,133.66a138.21,138.21,0,0,1-177,101.23c13.8-6.78,28.62-14.45,43.95-22.81,36.34-19.81,67.9-39.31,88.7-54.26-23.83,9.38-57.32,25.35-93.66,45.17-15.33,8.36-29.8,16.66-43,24.59a138.21,138.21,0,0,1,181-93.92Z"/><path class="cls-1" d="M456,396.16A138.21,138.21,0,0,1,290.12,277.6c11.93,9.72,25.08,20,39.08,30.42,33.17,24.76,64.06,45.3,86.33,58-18.47-17.74-47-41.51-80.14-66.26-14-10.44-27.57-20.12-40.28-28.79A138.19,138.19,0,0,1,456,396.16Z"/><path class="cls-1" d="M267.73,489.42A138.21,138.21,0,0,1,243.42,287c.87,15.36,2.16,32,3.89,49.36,4.1,41.19,9.76,77.86,15.43,102.83.64-25.6-1-62.67-5.12-103.85-1.73-17.38-3.74-33.94-5.91-49.17a138.2,138.2,0,0,1,16,203.24Z"/><path class="cls-1" d="M41.62,354.46a138.19,138.19,0,0,1,182.12-91.62c-14.15,6-29.35,12.89-45.11,20.42-37.35,17.84-69.91,35.63-91.47,49.44,24.29-8.09,58.59-22.25,95.94-40.09,15.75-7.53,30.64-15,44.23-22.25a138.21,138.21,0,0,1-185.71,84.1Z"/></svg>