<svg id="visual" viewBox="0 0 540 960" width="540" height="960" xmlns="http://www.w3.org/2000/svg" xmlns:xlink="http://www.w3.org/1999/xlink" version="1.1"><rect x="0" y="0" width="540" height="960" fill="#f2d0bd"></rect><defs><linearGradient id="grad1_0" x1="0%" y1="100%" x2="100%" y2="0%"><stop offset="30%" stop-color="#ffffff" stop-opacity="1"></stop><stop offset="70%" stop-color="#ffffff" stop-opacity="1"></stop></linearGradient></defs><defs><linearGradient id="grad1_1" x1="0%" y1="100%" x2="100%" y2="0%"><stop offset="30%" stop-color="#ffffff" stop-opacity="1"></stop><stop offset="70%" stop-color="#fcf3ee" stop-opacity="1"></stop></linearGradient></defs><defs><linearGradient id="grad1_2" x1="0%" y1="100%" x2="100%" y2="0%"><stop offset="30%" stop-color="#f9e7de" stop-opacity="1"></stop><stop offset="70%" stop-color="#fcf3ee" stop-opacity="1"></stop></linearGradient></defs><defs><linearGradient id="grad1_3" x1="0%" y1="100%" x2="100%" y2="0%"><stop offset="30%" stop-color="#f9e7de" stop-opacity="1"></stop><stop offset="70%" stop-color="#f6dccd" stop-opacity="1"></stop></linearGradient></defs><defs><linearGradient id="grad1_4" x1="0%" y1="100%" x2="100%" y2="0%"><stop offset="30%" stop-color="#f2d0bd" stop-opacity="1"></stop><stop offset="70%" stop-color="#f6dccd" stop-opacity="1"></stop></linearGradient></defs><defs><linearGradient id="grad2_0" x1="0%" y1="100%" x2="100%" y2="0%"><stop offset="30%" stop-color="#ffffff" stop-opacity="1"></stop><stop offset="70%" stop-color="#ffffff" stop-opacity="1"></stop></linearGradient></defs><defs><linearGradient id="grad2_1" x1="0%" y1="100%" x2="100%" y2="0%"><stop offset="30%" stop-color="#fcf3ee" stop-opacity="1"></stop><stop offset="70%" stop-color="#ffffff" stop-opacity="1"></stop></linearGradient></defs><defs><linearGradient id="grad2_2" x1="0%" y1="100%" x2="100%" y2="0%"><stop offset="30%" stop-color="#fcf3ee" stop-opacity="1"></stop><stop offset="70%" stop-color="#f9e7de" stop-opacity="1"></stop></linearGradient></defs><defs><linearGradient id="grad2_3" x1="0%" y1="100%" x2="100%" y2="0%"><stop offset="30%" stop-color="#f6dccd" stop-opacity="1"></stop><stop offset="70%" stop-color="#f9e7de" stop-opacity="1"></stop></linearGradient></defs><defs><linearGradient id="grad2_4" x1="0%" y1="100%" x2="100%" y2="0%"><stop offset="30%" stop-color="#f6dccd" stop-opacity="1"></stop><stop offset="70%" stop-color="#f2d0bd" stop-opacity="1"></stop></linearGradient></defs><g transform="translate(540, 960)"><path d="M-459 0C-394.5 -27.1 -330 -54.2 -328.1 -106.6C-326.2 -159 -387 -236.6 -371.3 -269.8C-355.7 -303 -263.6 -291.8 -206.3 -284C-149 -276.2 -126.5 -271.7 -98 -301.5C-69.4 -331.2 -34.7 -395.1 0 -459L0 0Z" fill="#f4d6c5"></path><path d="M-367.2 0C-315.6 -21.7 -264 -43.4 -262.5 -85.3C-261 -127.2 -309.6 -189.3 -297.1 -215.8C-284.5 -242.4 -210.9 -233.4 -165.1 -227.2C-119.2 -220.9 -101.2 -217.4 -78.4 -241.2C-55.5 -265 -27.7 -316.1 0 -367.2L0 0Z" fill="#f8e1d5"></path><path d="M-275.4 0C-236.7 -16.3 -198 -32.5 -196.9 -64C-195.7 -95.4 -232.2 -142 -222.8 -161.9C-213.4 -181.8 -158.2 -175.1 -123.8 -170.4C-89.4 -165.7 -75.9 -163 -58.8 -180.9C-41.6 -198.7 -20.8 -237.1 0 -275.4L0 0Z" fill="#fbede6"></path><path d="M-183.6 0C-157.8 -10.8 -132 -21.7 -131.2 -42.6C-130.5 -63.6 -154.8 -94.6 -148.5 -107.9C-142.3 -121.2 -105.4 -116.7 -82.5 -113.6C-59.6 -110.5 -50.6 -108.7 -39.2 -120.6C-27.7 -132.5 -13.9 -158 0 -183.6L0 0Z" fill="#fef9f7"></path><path d="M-91.8 0C-78.9 -5.4 -66 -10.8 -65.6 -21.3C-65.2 -31.8 -77.4 -47.3 -74.3 -54C-71.1 -60.6 -52.7 -58.4 -41.3 -56.8C-29.8 -55.2 -25.3 -54.3 -19.6 -60.3C-13.9 -66.2 -6.9 -79 0 -91.8L0 0Z" fill="#ffffff"></path></g><g transform="translate(0, 0)"><path d="M459 0C462.2 52.8 465.4 105.6 436.5 141.8C407.7 178.1 346.7 197.8 309.9 225.1C273 252.5 260.3 287.5 237.5 326.8C214.7 366.2 181.9 410 140.6 432.7C99.4 455.5 49.7 457.2 0 459L0 0Z" fill="#f4d6c5"></path><path d="M367.2 0C369.8 42.2 372.3 84.5 349.2 113.5C326.1 142.5 277.4 158.2 247.9 180.1C218.4 202 208.2 230 190 261.5C171.7 293 145.5 328 112.5 346.2C79.5 364.4 39.7 365.8 0 367.2L0 0Z" fill="#f8e1d5"></path><path d="M275.4 0C277.3 31.7 279.2 63.4 261.9 85.1C244.6 106.9 208 118.7 185.9 135.1C163.8 151.5 156.2 172.5 142.5 196.1C128.8 219.7 109.1 246 84.4 259.6C59.6 273.3 29.8 274.3 0 275.4L0 0Z" fill="#fbede6"></path><path d="M183.6 0C184.9 21.1 186.2 42.2 174.6 56.7C163.1 71.2 138.7 79.1 123.9 90C109.2 101 104.1 115 95 130.7C85.9 146.5 72.7 164 56.2 173.1C39.7 182.2 19.9 182.9 0 183.6L0 0Z" fill="#fef9f7"></path><path d="M91.8 0C92.4 10.6 93.1 21.1 87.3 28.4C81.5 35.6 69.3 39.6 62 45C54.6 50.5 52.1 57.5 47.5 65.4C42.9 73.2 36.4 82 28.1 86.5C19.9 91.1 9.9 91.4 0 91.8L0 0Z" fill="#ffffff"></path></g></svg>