<svg id="visual" viewBox="0 0 960 540" width="960" height="540" xmlns="http://www.w3.org/2000/svg" xmlns:xlink="http://www.w3.org/1999/xlink" version="1.1"><rect x="0" y="0" width="960" height="540" fill="#f2d0bd"></rect><defs><linearGradient id="grad1_0" x1="43.8%" y1="100%" x2="100%" y2="0%"><stop offset="14.444444444444446%" stop-color="#ffffff" stop-opacity="1"></stop><stop offset="85.55555555555554%" stop-color="#ffffff" stop-opacity="1"></stop></linearGradient></defs><defs><linearGradient id="grad1_1" x1="43.8%" y1="100%" x2="100%" y2="0%"><stop offset="14.444444444444446%" stop-color="#ffffff" stop-opacity="1"></stop><stop offset="85.55555555555554%" stop-color="#fcf3ee" stop-opacity="1"></stop></linearGradient></defs><defs><linearGradient id="grad1_2" x1="43.8%" y1="100%" x2="100%" y2="0%"><stop offset="14.444444444444446%" stop-color="#f9e7de" stop-opacity="1"></stop><stop offset="85.55555555555554%" stop-color="#fcf3ee" stop-opacity="1"></stop></linearGradient></defs><defs><linearGradient id="grad1_3" x1="43.8%" y1="100%" x2="100%" y2="0%"><stop offset="14.444444444444446%" stop-color="#f9e7de" stop-opacity="1"></stop><stop offset="85.55555555555554%" stop-color="#f6dccd" stop-opacity="1"></stop></linearGradient></defs><defs><linearGradient id="grad1_4" x1="43.8%" y1="100%" x2="100%" y2="0%"><stop offset="14.444444444444446%" stop-color="#f2d0bd" stop-opacity="1"></stop><stop offset="85.55555555555554%" stop-color="#f6dccd" stop-opacity="1"></stop></linearGradient></defs><defs><linearGradient id="grad2_0" x1="0%" y1="100%" x2="56.3%" y2="0%"><stop offset="14.444444444444446%" stop-color="#ffffff" stop-opacity="1"></stop><stop offset="85.55555555555554%" stop-color="#ffffff" stop-opacity="1"></stop></linearGradient></defs><defs><linearGradient id="grad2_1" x1="0%" y1="100%" x2="56.3%" y2="0%"><stop offset="14.444444444444446%" stop-color="#fcf3ee" stop-opacity="1"></stop><stop offset="85.55555555555554%" stop-color="#ffffff" stop-opacity="1"></stop></linearGradient></defs><defs><linearGradient id="grad2_2" x1="0%" y1="100%" x2="56.3%" y2="0%"><stop offset="14.444444444444446%" stop-color="#fcf3ee" stop-opacity="1"></stop><stop offset="85.55555555555554%" stop-color="#f9e7de" stop-opacity="1"></stop></linearGradient></defs><defs><linearGradient id="grad2_3" x1="0%" y1="100%" x2="56.3%" y2="0%"><stop offset="14.444444444444446%" stop-color="#f6dccd" stop-opacity="1"></stop><stop offset="85.55555555555554%" stop-color="#f9e7de" stop-opacity="1"></stop></linearGradient></defs><defs><linearGradient id="grad2_4" x1="0%" y1="100%" x2="56.3%" y2="0%"><stop offset="14.444444444444446%" stop-color="#f6dccd" stop-opacity="1"></stop><stop offset="85.55555555555554%" stop-color="#f2d0bd" stop-opacity="1"></stop></linearGradient></defs><g transform="translate(960, 540)"><path d="M-297 0C-238.2 -22.2 -179.3 -44.3 -161.9 -93.5C-144.6 -142.7 -168.6 -218.8 -148.5 -257.2C-128.4 -295.6 -64.2 -296.3 0 -297L0 0Z" fill="#f4d6c5"></path><path d="M-237.6 0C-190.5 -17.7 -143.5 -35.5 -129.6 -74.8C-115.6 -114.1 -134.9 -175 -118.8 -205.8C-102.7 -236.5 -51.4 -237 0 -237.6L0 0Z" fill="#f8e1d5"></path><path d="M-178.2 0C-142.9 -13.3 -107.6 -26.6 -97.2 -56.1C-86.7 -85.6 -101.2 -131.3 -89.1 -154.3C-77 -177.4 -38.5 -177.8 0 -178.2L0 0Z" fill="#fbede6"></path><path d="M-118.8 0C-95.3 -8.9 -71.7 -17.7 -64.8 -37.4C-57.8 -57.1 -67.4 -87.5 -59.4 -102.9C-51.4 -118.2 -25.7 -118.5 0 -118.8L0 0Z" fill="#fef9f7"></path><path d="M-59.4 0C-47.6 -4.4 -35.9 -8.9 -32.4 -18.7C-28.9 -28.5 -33.7 -43.8 -29.7 -51.4C-25.7 -59.1 -12.8 -59.3 0 -59.4L0 0Z" fill="#ffffff"></path></g><g transform="translate(0, 0)"><path d="M297 0C294.3 60.7 291.6 121.5 257.2 148.5C222.8 175.5 156.7 168.8 108.5 187.9C60.3 207.1 30.2 252 0 297L0 0Z" fill="#f4d6c5"></path><path d="M237.6 0C235.4 48.6 233.3 97.2 205.8 118.8C178.2 140.4 125.3 135 86.8 150.3C48.3 165.6 24.1 201.6 0 237.6L0 0Z" fill="#f8e1d5"></path><path d="M178.2 0C176.6 36.4 175 72.9 154.3 89.1C133.7 105.3 94 101.3 65.1 112.8C36.2 124.2 18.1 151.2 0 178.2L0 0Z" fill="#fbede6"></path><path d="M118.8 0C117.7 24.3 116.6 48.6 102.9 59.4C89.1 70.2 62.7 67.5 43.4 75.2C24.1 82.8 12.1 100.8 0 118.8L0 0Z" fill="#fef9f7"></path><path d="M59.4 0C58.9 12.1 58.3 24.3 51.4 29.7C44.6 35.1 31.3 33.8 21.7 37.6C12.1 41.4 6 50.4 0 59.4L0 0Z" fill="#ffffff"></path></g></svg>