<svg id="Wedding_Arch" enable-background="new 0 0 64 64" height="512" viewBox="0 0 64 64" width="512" xmlns="http://www.w3.org/2000/svg"><path d="m9.50278 24.41827c0 .49092-.39797.88888-.88888.88888-.49092 0-.88888-.39797-.88888-.88888s.39797-.88889.88888-.88889.88888.39797.88888.88889zm7.11107-11.84121c-.49092 0-.88888.39797-.88888.88888s.39797.88888.88888.88888.88888-.39797.88888-.88888-.39796-.88888-.88888-.88888zm40.73613 8.35293c.10004.19.19.38.26001.58002-.04999-.21002-.14002-.40002-.26001-.58002zm-2.85232 3.48828c0 .49092.39797.88888.88889.88888s.88888-.39797.88888-.88888-.39796-.88889-.88888-.88889-.88889.39797-.88889.88889zm-7.99995-10.95232c0 .49092.39796.88888.88888.88888s.88889-.39797.88889-.88888-.39797-.88888-.88889-.88888-.88888.39796-.88888.88888zm17.18698 46.34307v1.51215c0 1.47742-1.20135 2.67883-2.67877 2.67883h-58.01184c-1.47742 0-2.67877-1.20142-2.67877-2.67883v-1.51215c0-1.47742 1.20135-2.67877 2.67877-2.67877h.91589v-24.11029c0-1.65399.15582-3.26886.4317-4.84265-.24609-.45459-.3988-.96686-.3988-1.5191 0-.16754.01385-.33685.04077-.50525-.59723-.58679-.93921-1.39844-.93921-2.27252 0-1.60071 1.1745-2.93231 2.7066-3.17706.38593-.74658 1.05511-1.30548 1.84595-1.57019 1.03833-1.80835 2.2782-3.48389 3.6767-5.01483-.14661-.37128-.22931-.77258-.22931-1.19012 0-1.60071 1.1745-2.93225 2.7066-3.17706.5434-1.05121 1.64319-1.74304 2.86285-1.74304.62317 0 1.21332.18298 1.71527.50061 1.41821-.79645 2.91351-1.4707 4.47357-2.01239-.21289-1.25165-.0802-2.42511.41089-3.45001.72137-1.51215 1.96185-2.54254 3.43146-2.90533 1.39929-.3429 2.86023-.05212 4.01471.80029.55903.41056.99653.82291 1.34028 1.19706.3446-.375.7821-.78735 1.3429-1.19879 1.15277-.85242 2.61456-1.14233 4.01385-.79773 1.46875.36285 2.70831 1.39233 3.401 2.8255.0191.04077.05383.12933.06775.17358.46429.95642.58905 2.11029.37439 3.35626 1.55908.54156 3.05341 1.21552 4.47083 2.01147.50208-.31757 1.09235-.50055 1.71545-.50055 1.224 0 2.3299.69788 2.86981 1.7569 1.56598.27869 2.69965 1.59119 2.69965 3.16321 0 .41772-.0827.81897-.22925 1.19025 1.39844 1.53088 2.63837 3.20642 3.67664 5.01477.79572.26636 1.46881.83057 1.85291 1.58398 1.56598.27869 2.69965 1.59113 2.69965 3.16321 0 .87408-.34198 1.68488-.9375 2.27167.02606.16925.03992.33765.03992.5061 0 .55286-.15289 1.06561-.39941 1.52057.2757 1.5733.43146 3.18774.43146 4.84119v24.11029h.91589c1.4774 0 2.67875 1.20135 2.67875 2.67877zm-5.37469-2.67877v-24.11029c0-1.1507-.0943-2.27747-.23651-3.39142-.38.15833-.79578.2475-1.23248.2475-.51044 0-1.01215-.12152-1.46008-.35071-.18292.09509-.37994.15979-.57904.2168.15546 1.07318.25812 2.16284.25812 3.27783v24.11029zm-45.02429-30.47205c0 1.44678-.96606 2.65918-2.28241 3.06281-.16962 1.07654-.28333 2.17169-.28333 3.29895v6.12006h5.81006c.26996 0 .52997.03998.76996.10999 7.17426-6.75 11.41156-15.87665 13.03259-23.8009-1.23126-.47632-2.78522-1.39838-4.20581-2.85687-1.49689.42871-2.9353 1.005-4.27911 1.73999-.15472.31824-.35034.61639-.60278.8703.02692.16754.04077.33508.04077.50348 0 1.77344-1.44354 3.21698-3.21783 3.21698-.51129 0-1.00781-.12152-1.44794-.34979-.104.05292-.21857.07953-.3277.12079-.97845 1.07104-1.84747 2.24512-2.59076 3.49841.30347.49152.48187 1.06848.48187 1.68805 0 .86285-.3429 1.67529-.93842 2.27429.02692.16753.04084.33501.04084.50346zm-2.56574 14.26178v2.19h5.81006c.31 0 .59998-.13.78998-.34998.19-.20001.29999-.46002.29999-.75 0-.19-.04999-.37-.14001-.52002-.17999-.34003-.53998-.57001-.94995-.57001h-5.81007zm0 3.97003v12.24023h11.58099c-.77338-3.5426-2.46924-8.3974-5.51099-12.25024-.07996.01001-.16998.01001-.25995.01001zm29.17993 12.24024c.75909-3.66443 2.48853-8.81207 5.64008-12.98029-.57996-.53998-.94-1.29999-.94-2.13995 0-.66003.22003-1.27002.60004-1.75-7.17999-6.89001-11.46002-16.07001-13.19-24.12-1.72999 8.04999-6.02003 17.22999-13.20002 24.12.37.47998.59003 1.08997.59003 1.75 0 .83997-.36005 1.59998-.94 2.13995 3.16083 4.16821 4.89093 9.31586 5.65796 12.98029zm2.81446-41.42426c0-.1684.01385-.33508.04169-.50348-.25659-.25732-.45508-.55975-.6106-.88293-1.34131-.73065-2.77692-1.30127-4.27063-1.72772-1.41699 1.45453-2.9671 2.37616-4.19714 2.8537 1.62896 7.92444 5.85699 17.04382 13.03234 23.80444.23999-.07001.5-.10999.75995-.10999h5.82001v-6.12006c0-1.12207-.11401-2.2182-.28436-3.29645-1.32068-.40106-2.29132-1.61554-2.29132-3.06531 0-.16846.01392-.33508.04169-.50348-.59723-.599-.93927-1.41144-.93927-2.27429 0-.62518.18262-1.20624.49133-1.70056-.7478-1.25073-1.6181-2.41705-2.59711-3.48505-.10986-.04144-.2254-.06836-.32996-.12164-.44098.22827-.9375.34979-1.44788.34979-1.77429.00001-3.21874-1.44353-3.21874-3.21697zm10.57562 25.21399h-5.82001c-.40997 0-.75995.22998-.93994.56-.10004.15002-.15003.34003-.15003.53003 0 .29999.10999.56.29999.75995.20001.21002.47998.34003.78998.34003h5.82001zm-11.57294 16.21027h11.57294v-12.24024h-5.82001c-.07996 0-.15997 0-.23999-.01001-3.05096 3.85285-4.74738 8.70765-5.51294 12.25025zm12.28198-35.33313c-.06427.23608-.22223.43488-.4375.55029-.21704.11462-.47052.13721-.70142.05908-.625.03381-1.26563.67963-1.26563 1.47394 0 .48694.24481.93835.65283 1.20917.34198.22571.48608.6571.34717 1.0434-.0694.19183-.10242.35852-.10242.52521 0 .79425.64581 1.44006 1.44098 1.44006.32465 0 .63019-.10938.86456-.30817.16492-.14148.37152-.21265.57642-.21265.19965 0 .39929.06683.5625.2005.24823.20398.57813.32031.90448.32031.7934 0 1.43921-.64581 1.43921-1.44006 0-.17279-.03296-.35248-.10065-.53302-.1441-.3941.0069-.83508.36108-1.05902.39929-.25085.63715-.69354.63715-1.18573 0-.79431-.64581-1.44012-1.43921-1.44012-.39929 0-.8559-.26648-.96179-.651-.17188-.6181-.74481-1.05035-1.39063-1.05035-.64756-.00001-1.21702.43487-1.38713 1.05816zm-1.96948-5.80884c-.10919 1.22974-.90015 2.26221-2.00317 2.70197.58112.73236 1.11639 1.50214 1.61444 2.29987.27802-.13458.57263-.24011.8877-.28937.37653-.72711 1.02185-1.2749 1.78564-1.547-.69135-1.10877-1.4408-2.17664-2.28461-3.16547zm-7.16937-4.534c-.625.03381-1.26563.67969-1.26563 1.47394 0 .487.24481.93835.65277 1.20917.34204.22571.48615.65717.34723 1.0434-.06946.19183-.10242.35852-.10242.52521 0 .7934.64581 1.43921 1.44098 1.43921.32465 0 .6319-.10938.86456-.30731.16492-.14148.37152-.21265.57635-.21265.19965 0 .39935.06683.5625.2005.24829.20313.57813.31946.90454.31946.7934 0 1.43921-.64581 1.43921-1.43921 0-.17273-.03296-.35242-.10071-.53302-.1441-.39404.00696-.83502.36115-1.05902.39929-.25085.63715-.69354.63715-1.18573 0-.79425-.64581-1.44012-1.43921-1.44012-.39935 0-.85596-.26648-.96185-.651-.17188-.61896-.74475-1.05121-1.39063-1.05121-.64581 0-1.21698.43573-1.38708 1.05902-.06427.23608-.22223.43488-.4375.55035-.21704.11541-.47052.13622-.70141.05901zm-5.73682-.35144c.9566.30994 1.88531.67944 2.78418 1.10468.27728-1.20453 1.22595-2.14471 2.42981-2.41101-1.15979-.62189-2.37354-1.15668-3.62775-1.59711-.43396 1.09802-.97882 2.06085-1.58624 2.90344zm-14.23877-3.69714c1.87152 4.92181 6.18311 6.66052 7.11542 6.66052.93317 0 5.2439-1.73871 7.11542-6.66052.36108-.95056.66669-2.3446.06769-3.59027-.49304-1.0434-1.28473-1.70831-2.25342-1.94794-.87848-.21527-1.80383-.03381-2.53302.50348-.86279.63458-1.36975 1.27173-1.67529 1.69617-.33508.46356-1.10767.46356-1.44275 0-.30554-.42444-.8125-1.06158-1.67358-1.69531-.52863-.39063-1.15796-.59375-1.80035-.59375-.24475 0-.49042.02954-.73346.08942-.96875.23871-1.76044.90454-2.22833 1.87329-.6241 1.32031-.31941 2.71526.04167 3.66491zm-5.22174 2.39069c1.20435.26581 2.15265 1.20642 2.42969 2.41107.89929-.42542 1.82837-.79498 2.78534-1.10498-.60724-.84265-1.15204-1.80566-1.58594-2.90363-1.2547.44055-2.46887.97547-3.62909 1.59754zm-6.8407 3.13183c0 .49219.23785.93488.63629 1.18573.35419.22308.50519.66321.362 1.05646-.06598.18317-.09985.36285-.09985.53558 0 .7934.64581 1.43921 1.43921 1.43921.32642 0 .6554-.11633.90369-.31946.16315-.13367.36285-.2005.5625-.2005.20483 0 .40967.07031.57635.21179.23352.19879.54083.30817.86548.30817.79425 0 1.44006-.64581 1.44006-1.43921 0-.1684-.0321-.33508-.10071-.52521-.13971-.38623.00348-.81683.34552-1.0434.40881-.27081.65277-.72217.65277-1.20917 0-.79425-.64063-1.44012-1.42798-1.44012-.22913.0816-.401.04254-.6189-.07373-.21704-.11462-.29169-.3316-.35675-.5686-.17365-.63367-.7309-1.05988-1.388-1.05988-.64673 0-1.2179.43225-1.38892 1.05035-.10675.38538-.45746.65186-.85675.65186-.90019.00001-1.54601.64588-1.54601 1.44013zm-3.13617 6.22565c.76355.27216 1.40845.81982 1.78552 1.54688.31525.04907.60992.15448.88794.289.49811-.79773 1.03326-1.56744 1.61444-2.2998-1.10382-.44055-1.89539-1.47479-2.00299-2.70618-.84142.99023-1.59295 2.06085-2.28491 3.1701zm-4.86377 4.72656c0 .49219.23785.93488.63629 1.18573.35413.22308.50519.66321.36194 1.05646-.06598.18311-.09979.36279-.09979.53558 0 .79425.64581 1.44006 1.43921 1.44006.3255 0 .65454-.11633.90363-.32031.16321-.13367.36285-.2005.5625-.2005.2049 0 .40973.07031.57642.21179.23352.19965.54163.30902.86542.30902.79431 0 1.44012-.64581 1.44012-1.44006 0-.16846-.0321-.33508-.10071-.52521-.13977-.38629.00348-.81683.34546-1.0434.40887-.27081.65283-.72223.65283-1.20917 0-.79431-.64063-1.44012-1.42798-1.44012-.2309.0799-.40015.04254-.6189-.07379-.21704-.11456-.29169-.3316-.35681-.56854-.17273-.63367-.7309-1.05902-1.388-1.05902-.64667 0-1.21783.4314-1.38885 1.04944-.10681.38544-.45746.65192-.85675.65192-.90021 0-1.54603.64581-1.54603 1.44012zm.8678 33.24982h3.25v-24.11029c0-1.11511.10272-2.20477.25818-3.27802-.19891-.05701-.39587-.12164-.57825-.21661-.44879.22833-.94965.35071-1.46008.35071-.43695 0-.85315-.08923-1.23334-.24786-.14227 1.11407-.23651 2.24096-.23651 3.39178zm56.21698 2.67877c0-.49652-.40454-.901-.90106-.901h-58.01184c-.49652 0-.90106.40448-.90106.901v1.51215c0 .49652.40454.90106.90106.90106h58.01184c.49652 0 .90106-.40454.90106-.90106z"/></svg>