<svg height="512" viewBox="0 0 512 512" width="512" xmlns="http://www.w3.org/2000/svg"><g id="_1_toucan" data-name="1 toucan"><path d="m382.107 177.923c13.1-10.328 23.108-20.871 30.393-32.008 6.816-10.417 10.671-21.083 11.459-31.7 1.62-21.815-10.659-41.052-29.859-46.773a36.431 36.431 0 0 0 -27.926 2.794 43.839 43.839 0 0 0 -12.574 10.443 43.9 43.9 0 0 0 -12.6-10.455 36.4 36.4 0 0 0 -27.9-2.782c-19.2 5.721-31.478 24.955-29.857 46.771.788 10.619 4.644 21.285 11.459 31.7 7.282 11.132 17.285 21.671 30.373 31.993a156.516 156.516 0 0 0 -27.026 7.465 175.822 175.822 0 0 0 -120.849-47.63c-97.707 0-177.2 79.493-177.2 177.202s79.493 177.2 177.2 177.2a176.505 176.505 0 0 0 90.882-25.065 157.291 157.291 0 0 0 85.518 25.068c87.342 0 158.4-71.058 158.4-158.4 0-77.61-56.109-142.359-129.893-155.823zm-70.6-43c-4.863-7.434-7.711-15.109-8.237-22.2-.75-10.085 3.8-22.536 15.569-26.042a16.469 16.469 0 0 1 12.6 1.192c5.355 2.911 10.006 8.824 12.759 16.223a10.039 10.039 0 0 0 9.408 6.538 10.037 10.037 0 0 0 9.408-6.538c2.755-7.4 7.4-13.312 12.738-16.211a16.46 16.46 0 0 1 12.621-1.2c11.766 3.5 16.318 15.956 15.568 26.041-.526 7.087-3.375 14.762-8.238 22.2-7.7 11.773-19.362 23.013-35.636 34.353-2.291 1.645-5.146 3.666-6.461 4.551-1.305-.879-4.166-2.9-6.45-4.543-16.29-11.35-27.95-22.587-35.656-34.364zm-291.429 180.02c0-86.638 70.486-157.123 157.124-157.123a155.991 155.991 0 0 1 111.412 46.35 157.024 157.024 0 0 1 26.072 34.676 157.211 157.211 0 0 1 -13.762 172.918 95.42 95.42 0 0 1 -18.108-15.962 133.118 133.118 0 0 0 10.821-145.225c-.009-.015-.018-.029-.026-.045-.028-.049-.057-.1-.086-.147a135.227 135.227 0 0 0 -30.144-36.785 133.059 133.059 0 0 0 -86.181-31.686c-73.352 0-133.029 59.677-133.029 133.029s59.679 133.03 133.029 133.03a133.455 133.455 0 0 0 55.39-12.055 158.561 158.561 0 0 0 17.882 18.018 156.547 156.547 0 0 1 -73.272 18.131c-86.636 0-157.122-70.485-157.122-157.124zm318.1-74.071a94.146 94.146 0 1 1 -19.243 180.417 177.245 177.245 0 0 0 19.245-180.417zm-48.037 74.071a112.907 112.907 0 0 1 -19.467 63.4 94.15 94.15 0 0 1 11.279-105.66 113.34 113.34 0 0 1 8.19 42.26zm-48.792-92.943a158.437 158.437 0 0 0 -21.04 197.362 112.966 112.966 0 1 1 21.04-197.362zm112.251 250.067a138.322 138.322 0 0 1 -96.748-237.177 109.8 109.8 0 0 1 15.248 18.835 114.209 114.209 0 0 0 -10.268 148.037l.039.051.067.089a115.2 115.2 0 0 0 36.048 31.623l.078.045c.058.032.114.066.172.1a114.213 114.213 0 1 0 30.057-211.323 176.973 176.973 0 0 0 -15.053-20.947 138.564 138.564 0 0 1 41.228-5.959c75.872.47 137.454 62.33 137.454 138.31 0 76.266-62.051 138.316-138.322 138.316z"/><path d="m223.849 88.594a10.039 10.039 0 0 0 10.039-10.039v-13.79h8.905a10.039 10.039 0 0 0 0-20.078h-8.905v-13.787a10.04 10.04 0 0 0 -20.079 0v13.79h-8.909a10.039 10.039 0 1 0 0 20.078h8.905v13.79a10.039 10.039 0 0 0 10.044 10.036z"/><path d="m501.961 137.741h-8.905v-13.79a10.04 10.04 0 0 0 -20.079 0v13.79h-8.9a10.04 10.04 0 0 0 0 20.079h8.9v13.79a10.04 10.04 0 0 0 20.079 0v-13.79h8.905a10.04 10.04 0 0 0 0-20.079z"/><circle cx="453.029" cy="51.367" r="11.043"/><circle cx="300.183" cy="30.897" r="11.043"/></g></svg>