<svg id="Layer_1" enable-background="new 0 0 63.999 63.999" height="512" viewBox="0 0 63.999 63.999" width="512" xmlns="http://www.w3.org/2000/svg"><g><path d="m56.916 29.999h-16.136l-1.811-7.243c-.111-.445-.511-.757-.97-.757h-12c-.459 0-.859.312-.97.757l-1.811 7.243h-6.219v-3c0-.552-.448-1-1-1h-6c-.552 0-1 .448-1 1v3h-1.916c-1.103 0-2 .897-2 2v30c0 1.103.897 2 2 2h49.832c1.103 0 2-.897 2-2v-30c.001-1.103-.896-2-1.999-2zm-30.136-6h10.438l1.5 6h-13.438zm-15.781 4h4v2h-4zm-3.916 34v-30h2.916 6 8 16 16.916l.001 30z"/><path d="m31.999 33.999c-7.168 0-13 5.832-13 13s5.832 13 13 13 13-5.832 13-13-5.831-13-13-13zm0 24c-6.065 0-11-4.935-11-11s4.935-11 11-11 11 4.935 11 11-4.934 11-11 11z"/><path d="m31.999 37.999c-4.962 0-9 4.038-9 9s4.038 9 9 9 9-4.038 9-9-4.037-9-9-9zm0 16c-3.86 0-7-3.14-7-7s3.14-7 7-7 7 3.14 7 7-3.14 7-7 7z"/><path d="m51.999 33.999h-6c-.552 0-1 .448-1 1v4c0 .552.448 1 1 1h6c.552 0 1-.448 1-1v-4c0-.552-.447-1-1-1zm-1 4h-4v-2h4z"/><path d="m31.697 15.952c.099.031.201.047.303.047s.204-.016.303-.047c.355-.113 8.705-2.851 8.697-10.255-.003-3.086-2.187-5.532-5.08-5.69 0 0 0 0-.001 0-1.47-.074-2.863.421-3.919 1.368-1.056-.948-2.449-1.442-3.921-1.368-2.893.158-5.076 2.604-5.079 5.69-.009 7.404 8.341 10.142 8.697 10.255zm-3.51-13.948c.064-.003.129-.005.193-.005 1.114 0 2.143.523 2.756 1.382.178.283.503.468.837.477.298-.014.666-.16.859-.431.679-.955 1.788-1.485 2.979-1.423 1.815.1 3.187 1.688 3.188 3.695.005 5.229-5.617 7.707-7 8.237-1.384-.53-7.006-3.008-7-8.237.002-2.007 1.373-3.596 3.188-3.695z"/><path d="m30.999 11.376c.144.072.296.105.446.105.365 0 .716-.201.893-.549.249-.492.051-1.092-.439-1.342-.021-.011-2.135-1.108-2.987-3.002-.227-.503-.818-.727-1.323-.501-.503.227-.728.819-.501 1.323 1.155 2.565 3.799 3.91 3.911 3.966z"/><path d="m43.999 14.999c.293 0 .584-.128.781-.375l4-5c.345-.431.275-1.061-.156-1.405-.43-.344-1.06-.275-1.405.156l-4 5c-.345.431-.275 1.061.156 1.405.184.147.405.219.624.219z"/><path d="m46.081 20.393c.162.379.531.606.919.606.131 0 .265-.026.394-.082l7-3c.507-.217.743-.805.525-1.313-.217-.507-.805-.743-1.313-.525l-7 3c-.508.218-.743.806-.525 1.314z"/><path d="m19.219 14.624c.197.247.488.375.781.375.219 0 .44-.072.624-.219.432-.345.501-.974.156-1.405l-4-5c-.345-.431-.975-.5-1.405-.156-.432.345-.501.974-.156 1.405z"/><path d="m9.605 17.918 7 3c.128.055.262.082.394.082.388 0 .757-.228.919-.606.218-.508-.018-1.096-.525-1.313l-7-3c-.508-.219-1.097.018-1.313.525-.217.507.018 1.095.525 1.312z"/></g></svg>