<svg enable-background="new 0 0 32 32" height="512" viewBox="0 0 32 32" width="512" xmlns="http://www.w3.org/2000/svg"><g id="Layer_24" fill="rgb(0,0,0)"><path d="m9.053 13.578c-.255-.232-.649-.216-.883.039-1.176 1.283-2.027 2.846-2.459 4.52-.086.334.114.675.449.762.052.014.105.02.157.02.278 0 .532-.187.604-.469.381-1.476 1.132-2.854 2.171-3.988.233-.255.216-.65-.039-.884z"/><path d="m30.726 20.442c-.116-.172-.311-.274-.518-.274h-1.115c-.295-6.209-4.911-11.292-10.909-12.303v-1.555c0-1.204-.98-2.185-2.185-2.185s-2.185.98-2.185 2.185v1.556c-5.996 1.01-10.613 6.093-10.908 12.302h-1.114c-.208 0-.401.103-.518.274-.116.173-.14.391-.063.583l1.07 2.667c.483 1.204 1.633 1.981 2.93 1.981h21.576c1.297 0 2.447-.777 2.93-1.981l1.07-2.667c.078-.192.055-.41-.061-.583zm-15.661-14.132c0-.516.419-.935.935-.935.515 0 .935.419.935.935v1.406c-.31-.023-.62-.048-.935-.048-.316 0-.625.025-.935.047zm.935 2.608c6.338 0 11.532 4.992 11.858 11.25h-23.717c.326-6.258 5.521-11.25 11.859-11.25zm12.558 14.31c-.291.727-.986 1.196-1.77 1.196h-21.576c-.784 0-1.479-.47-1.77-1.196l-.726-1.81h.784 25 .784z"/><path d="m18.699 11.899c-.821-.48-1.784-.411-2.699.181-.916-.591-1.88-.66-2.698-.181-1.038.609-1.619 1.99-1.38 3.282.304 1.648 1.904 2.979 3.98 3.312.033.005.065.008.099.008s.066-.003.099-.008c2.076-.333 3.676-1.663 3.979-3.312.238-1.291-.342-2.671-1.38-3.282zm.151 3.056c-.204 1.104-1.344 2.016-2.85 2.287-1.506-.272-2.645-1.183-2.849-2.287-.142-.768.203-1.637.784-1.978.174-.103.352-.145.526-.145.425 0 .835.25 1.141.503.231.191.565.191.797 0 .432-.356 1.071-.71 1.667-.358.58.341.925 1.211.784 1.978z"/></g></svg>