<?xml version="1.0" encoding="iso-8859-1"?>
<!-- Generator: Adobe Illustrator 21.0.0, SVG Export Plug-In . SVG Version: 6.00 Build 0)  -->
<svg version="1.1" id="Capa_1" xmlns="http://www.w3.org/2000/svg" xmlns:xlink="http://www.w3.org/1999/xlink" x="0px" y="0px"
	 viewBox="0 0 512.067 512.067" style="enable-background:new 0 0 512.067 512.067;" xml:space="preserve">
<g transform="translate(0 -1)">
	<g>
		<g>
			<path d="M501.115,171.767c-8.006-6.96-18.73-9.927-29.175-8.073c-7.456,1.249-14.341,4.782-19.703,10.112
				c-5.366-5.33-12.253-8.863-19.712-10.112c-9.091-1.522-18.415,0.587-25.967,5.871c-0.367-0.401-0.666-0.768-1.05-1.169
				l-2.321-2.398c-2.048-2.142-4.096-4.19-6.238-6.229c-0.154-0.154-0.316-0.299-0.478-0.435l-0.324-0.29
				c-2.492-2.398-5.069-4.693-7.543-6.75s-4.966-4.147-7.501-6.042l-2.082-1.57l-0.614-0.452c-2.415-1.869-4.907-3.644-7.364-5.316
				l-0.137-0.085c-26.662-18.195-57.296-29.735-89.335-33.655V60.8h17.067c14.138,0,25.6-11.461,25.6-25.6V9.6
				c0-4.713-3.82-8.533-8.533-8.533H196.236c-4.713,0-8.533,3.82-8.533,8.533v25.6c0,14.138,11.461,25.6,25.6,25.6h17.067v44.373
				c-32.079,3.921-62.749,15.486-89.429,33.724c-3.601,2.441-6.912,5.188-10.325,7.825c-1.054,0.498-1.995,1.207-2.765,2.082
				c-1.451,1.161-3.038,2.176-4.454,3.371c-16.79,14.231-31.162,31.089-42.556,49.92c-16.08,26.336-25.912,56.006-28.74,86.733
				c-0.113,0.717-0.153,1.443-0.119,2.167c-0.546,5.649-0.811,11.46-0.811,17.271c-0.005,17.455,2.237,34.838,6.673,51.721
				c0,0.111,0.077,0.213,0.102,0.333v0.102c22.924,87.307,100.413,149.232,190.626,152.337c2.449,0.196,4.915,0.307,7.398,0.307
				c2.483,0,4.949-0.111,7.398-0.307c90.367-3.116,167.944-65.244,190.729-152.747c0.051-0.179,0.088-0.362,0.111-0.546
				c4.37-16.715,6.575-33.923,6.562-51.2c0-5.811-0.265-11.622-0.768-16.469c0.018-0.855-0.022-1.71-0.12-2.56
				c-0.495-5.581-1.34-11.23-2.364-16.879c13.372-8.124,36.156-23.893,45.303-41.506
				C515.716,207.565,515.033,184.371,501.115,171.767z M400.848,229.086c0.273,0.521,0.469,1.041,0.759,1.562
				c9.482,14.951,22.302,27.499,37.453,36.659c1.336,5.917,2.373,11.898,3.106,17.92c-15.869,8.416-32.497,15.313-49.664,20.599
				c-0.125-23.484-3.052-46.868-8.721-69.658C389.755,233.975,395.387,231.595,400.848,229.086z M377.382,165.163l0.085,0.068
				c2.406,2.002,4.733,4.085,6.98,6.246c0.157,0.157,0.322,0.305,0.495,0.444l0.333,0.307c1.877,1.792,3.746,3.584,5.692,5.7
				l2.338,2.398c0.734,0.776,1.493,1.707,2.236,2.5c-3.772,9.72-4.165,20.425-1.118,30.396c-4.907,2.295-9.975,4.497-15.36,6.511
				c-5.049-15.906-11.792-31.223-20.113-45.688C365.403,171.774,371.584,168.795,377.382,165.163z M315.105,339.08
				c20.1-2.232,40.034-5.772,59.674-10.598c-1.495,23.018-5.94,45.749-13.227,67.635c-17.243,5.054-34.856,8.749-52.676,11.051
				C312.155,384.598,314.234,361.87,315.105,339.08z M304.72,185.95c12.734-1.428,25.357-3.708,37.786-6.827
				c8.623,14.473,15.497,29.918,20.48,46.012c-2.731,0.759-5.47,1.604-8.337,2.372v0.034c-13.97,3.745-28.164,6.595-42.496,8.533
				C310.352,218.334,307.886,201.421,304.72,185.95z M315.566,321.826c0.091-4.489,0.137-9.008,0.137-13.559
				c0-18.569-0.691-37.18-2.048-55.202c15.337-2.035,30.525-5.071,45.466-9.088c2.893-0.768,5.675-1.638,8.482-2.475
				c5.25,21.865,7.88,44.278,7.834,66.765c0,0.853,0,1.638-0.043,2.466C355.731,315.808,335.741,319.514,315.566,321.826z
				 M361.433,153.028c0.435,0.29,0.853,0.623,1.28,0.922c-4.271,2.087-8.682,3.874-13.201,5.35
				c-6.041-8.606-12.899-16.608-20.48-23.893C340.392,140.187,351.246,146.09,361.433,153.028z M332.343,164.053
				c-10.376,2.289-20.871,3.998-31.437,5.12c-3.484-14.98-8.876-29.451-16.043-43.059
				C303.854,134.194,320.272,147.314,332.343,164.053z M255.969,325.333c-14.362,0-28.544-0.606-42.453-1.707
				c-0.102-5.12-0.213-10.138-0.213-15.36c0-19.004,0.751-36.745,1.988-53.325c13.372,1.271,26.923,2.125,40.678,2.125
				c13.756,0,27.307-0.853,40.678-2.125c1.237,16.58,1.988,34.321,1.988,53.325c0,5.222-0.111,10.24-0.213,15.36
				C284.513,324.727,270.331,325.333,255.969,325.333z M297.868,340.753c-0.919,22.887-3.15,45.703-6.682,68.335
				c-11.529,0.998-23.27,1.579-35.217,1.579c-11.947,0-23.689-0.58-35.217-1.579c-3.532-22.632-5.763-45.448-6.682-68.335
				c13.739,1.084,27.759,1.647,41.899,1.647C270.109,342.4,284.129,341.837,297.868,340.753z M216.784,237.952
				c1.666-16.931,4.207-33.764,7.612-50.432c10.121,0.776,20.608,1.28,31.573,1.28c10.965,0,21.478-0.503,31.573-1.28
				c3.404,16.668,5.945,33.501,7.612,50.432c-12.86,1.195-25.924,2.048-39.185,2.048C242.709,240,229.644,239.147,216.784,237.952z
				 M213.303,43.733c-4.713,0-8.533-3.82-8.533-8.533V18.133h102.4V35.2c0,4.713-3.82,8.533-8.533,8.533H213.303z M264.503,60.8
				v42.982c-2.842-0.12-5.675-0.316-8.533-0.316c-2.859,0-5.692,0.196-8.533,0.316V60.8H264.503z M255.969,120.533
				c8.627,0,19.191,18.031,27.648,50.159c-18.411,1.237-36.885,1.237-55.296,0C236.778,138.564,247.342,120.533,255.969,120.533z
				 M227.076,126.114c-7.166,13.605-12.557,28.074-16.043,43.051c-10.566-1.124-21.061-2.833-31.437-5.12
				C191.668,147.308,208.086,134.192,227.076,126.114z M196.373,321.843c-20.175-2.312-40.165-6.018-59.827-11.093
				c-0.043-0.845-0.043-1.63-0.043-2.483c-0.044-22.475,2.582-44.876,7.825-66.731c2.782,0.853,5.572,1.655,8.422,2.423
				c14.963,4.024,30.174,7.066,45.534,9.105c-1.357,18.022-2.048,36.625-2.048,55.202
				C196.236,312.818,196.282,317.343,196.373,321.843z M196.876,339.08c0.872,22.79,2.951,45.518,6.229,68.088
				c-17.822-2.315-35.435-6.024-52.676-11.093c-7.283-21.872-11.728-44.589-13.227-67.593
				C156.842,333.308,176.776,336.849,196.876,339.08z M199.786,236.015c-14.351-1.928-28.563-4.778-42.547-8.533
				c-2.85-0.768-5.538-1.707-8.303-2.5c4.995-16.07,11.875-31.492,20.497-45.943v0.034c12.428,3.12,25.052,5.401,37.786,6.827
				C204.07,201.369,201.587,218.283,199.786,236.015z M150.566,153.003c10.161-6.917,20.986-12.803,32.316-17.57
				c-7.569,7.274-14.418,15.263-20.451,23.854c-4.501-1.463-8.894-3.24-13.145-5.32
				C149.729,153.668,150.139,153.301,150.566,153.003z M103.957,198.494c1.545-2.167,3.072-4.318,4.693-6.383
				c2.432-3.089,5.018-6.033,7.629-8.943c1.647-1.835,3.226-3.712,4.932-5.478c3.055-3.14,6.298-6.101,9.574-9.028
				c1.271-1.143,2.483-2.355,3.797-3.465c5.792,3.611,11.961,6.578,18.398,8.849c-8.297,14.421-15.026,29.688-20.07,45.542
				c-11.388-4.128-22.374-9.293-32.819-15.428C101.363,202.257,102.651,200.345,103.957,198.494z M91.08,218.598h0.017
				c11.79,7.014,24.222,12.886,37.129,17.536c-5.672,22.8-8.603,46.197-8.73,69.692c-17.203-5.277-33.867-12.174-49.766-20.599
				C72.545,261.862,79.792,239.248,91.08,218.598z M68.236,308.267c0-1.502,0.171-2.961,0.205-4.454
				c16.532,8.13,33.74,14.806,51.43,19.951c1.049,22.224,4.663,44.252,10.769,65.647c-21.437-7.321-40.866-19.55-56.738-35.712
				C70.153,338.845,68.25,323.586,68.236,308.267z M84.697,385.186c16.43,10.667,34.227,19.063,52.907,24.96
				c9.717,26.699,25.183,50.937,45.303,70.997C139.206,462.74,104.109,428.449,84.697,385.186z M158.246,416.051
				c15.732,3.963,31.706,6.89,47.821,8.764c3.561,22.825,10.649,44.957,21.009,65.604
				C198.83,479.326,174.544,452.437,158.246,416.051z M255.969,496c-10.24,0-23.125-25.387-32.06-69.444v-0.034
				c10.496,0.777,21.205,1.178,32.06,1.178c10.854,0,21.564-0.401,32.06-1.178C279.095,470.613,266.209,496,255.969,496z
				 M284.863,490.419v-0.034c10.36-20.647,17.448-42.78,21.009-65.604c16.103-1.875,32.066-4.803,47.787-8.764
				C337.395,452.48,313.143,479.351,284.863,490.419z M329.023,481.152c20.127-20.061,35.596-44.302,45.312-71.006
				c18.679-5.892,36.476-14.282,52.907-24.943C407.829,428.466,372.728,462.755,329.023,481.152z M438.045,353.758
				c-15.871,16.129-35.283,28.336-56.695,35.652c6.085-21.397,9.681-43.425,10.718-65.647h0.043
				c17.69-5.145,34.898-11.821,51.43-19.951c0,1.493,0.205,2.953,0.205,4.454C443.74,323.608,441.825,338.889,438.045,353.758z
				 M487.777,222.797h-0.034c-9.111,13.549-21.272,24.772-35.507,32.768c-0.358-0.222-0.683-0.461-1.041-0.691l-0.145-0.094
				c-13.836-7.906-25.637-18.93-34.466-32.196c-8.636-15.59-9.387-31.266-1.749-38.127c3.257-2.773,7.414-4.263,11.691-4.19
				c1.069-0.001,2.137,0.088,3.192,0.265c6.554,1.204,12.144,5.452,15.061,11.443c1.633,2.538,4.445,4.071,7.462,4.071
				c3.018,0,5.829-1.534,7.462-4.071c2.909-5.99,8.495-10.239,15.044-11.443c5.3-0.968,10.756,0.471,14.891,3.925
				C497.241,191.36,496.524,206.993,487.777,222.797z"/>
			<path d="M430.894,136.465c2.64,1.524,5.893,1.524,8.533,0c17.399-9.984,48.435-30.131,60.587-52.591
				c16.461-28.339,15.727-57.515-1.809-72.619c-10.216-8.408-23.615-11.894-36.634-9.532c-10.119,1.696-19.398,6.677-26.402,14.174
				c-7.005-7.492-16.279-12.472-26.394-14.174c-13.037-2.362-26.454,1.124-36.693,9.532c-17.527,15.104-18.261,44.279-1.929,72.397
				C382.459,106.342,413.495,126.481,430.894,136.465z M383.244,24.192c4.986-4.027,11.23-6.172,17.638-6.059
				c1.693-0.001,3.382,0.138,5.052,0.418c9.329,1.622,17.392,7.448,21.862,15.795c1.642,2.467,4.409,3.948,7.373,3.948
				s5.73-1.482,7.373-3.948c4.455-8.367,12.523-14.208,21.862-15.829c8.02-1.466,16.283,0.589,22.682,5.641
				c11.119,9.6,10.377,30.14-1.937,51.362c-7.117,13.124-25.233,28.894-49.98,43.665c-24.747-14.771-42.871-30.549-50.108-43.887
				C372.859,54.297,372.134,33.758,383.244,24.192z"/>
			<path d="M81.036,136.465c17.399-9.984,48.435-30.131,60.587-52.591c16.461-28.339,15.727-57.515-1.809-72.619
				c-10.22-8.408-23.621-11.894-36.642-9.532C93.053,3.419,83.774,8.401,76.769,15.897C69.764,8.406,60.49,3.425,50.376,1.724
				c-13.037-2.362-26.454,1.124-36.693,9.532C-3.819,26.359-4.553,55.535,11.78,83.652c12.305,22.69,43.341,42.854,60.723,52.813
				C75.143,137.989,78.396,137.989,81.036,136.465z M26.662,75.307c-12.186-21.009-12.928-41.549-1.818-51.115
				c4.986-4.027,11.23-6.172,17.638-6.059c1.693-0.001,3.382,0.138,5.052,0.418c9.329,1.622,17.393,7.448,21.862,15.795
				c1.642,2.467,4.409,3.948,7.373,3.948s5.73-1.482,7.373-3.948c4.455-8.367,12.523-14.208,21.862-15.829
				c8.02-1.468,16.284,0.587,22.682,5.641c11.119,9.6,10.377,30.14-1.937,51.362c-7.117,13.124-25.233,28.894-49.98,43.665
				C52.023,104.414,33.898,88.636,26.662,75.307z"/>
		</g>
	</g>
</g>
<g>
</g>
<g>
</g>
<g>
</g>
<g>
</g>
<g>
</g>
<g>
</g>
<g>
</g>
<g>
</g>
<g>
</g>
<g>
</g>
<g>
</g>
<g>
</g>
<g>
</g>
<g>
</g>
<g>
</g>
</svg>
