<svg id="Capa_1" enable-background="new 0 0 512 512" viewBox="0 0 512 512" xmlns="http://www.w3.org/2000/svg"><g><path d="m403.715 244.938c8.479 0 16.541-3.672 22.119-10.074 2.722-3.123 2.395-7.86-.728-10.582-3.123-2.721-7.86-2.396-10.581.727-2.729 3.132-6.67 4.928-10.811 4.928-4.14 0-8.08-1.796-10.81-4.929-2.723-3.123-7.46-3.448-10.582-.726-3.123 2.722-3.447 7.459-.727 10.581 5.582 6.404 13.643 10.075 22.12 10.075zm55.929 56.377c10.61-5.466 20.1-12.561 27.982-21.103 15.945-17.279 24.374-39.079 24.374-63.043 0-29.335-13.036-57.385-35.765-76.956-3.7-3.187-7.667-6.153-11.79-8.816-3.478-2.247-8.121-1.249-10.369 2.23-2.248 3.48-1.249 8.122 2.23 10.369 3.547 2.292 6.959 4.842 10.141 7.583 9.376 8.074 16.814 17.826 22.007 28.561-14.924-.663-31.271-6.669-46.24-17.249-3.174-2.243-6.921-3.429-10.836-3.429h-53.294c-3.915 0-7.662 1.186-10.837 3.43-4.619 3.265-9.43 6.125-14.351 8.543-5.044-5.017-9.666-10.017-14.935-15.155 1.625-1.63 3.312-3.202 5.053-4.701 16.959-14.603 38.877-22.645 61.717-22.645 6.567 0 13.121.663 19.479 1.969 4.06.831 8.022-1.779 8.856-5.837.834-4.057-1.779-8.022-5.837-8.856-7.349-1.51-14.918-2.276-22.498-2.276-26.431 0-51.824 9.332-71.504 26.277-2.253 1.941-4.423 3.991-6.509 6.119-2.858-2.233-5.846-4.329-9.018-6.21-7.147-4.237-14.606-6.964-22.436-8.195 1.203-3.895 1.839-7.968 1.839-12.12 0-22.665-18.438-41.104-41.103-41.104s-41.104 18.439-41.104 41.104c0 4.153.641 8.224 1.845 12.119-7.833 1.231-15.293 3.957-22.441 8.195-3.172 1.881-6.16 3.976-9.018 6.21-2.086-2.128-4.256-4.178-6.509-6.119-19.68-16.945-45.073-26.277-71.504-26.277s-51.824 9.332-71.503 26.278c-22.73 19.574-35.766 47.623-35.766 76.958 0 23.964 8.429 45.764 24.374 63.043 7.875 8.534 17.356 15.624 27.955 21.088-15.017 13.209-26.377 30.355-32.504 49.365-6.637 20.591 8.92 41.601 30.554 41.601h99.725c-6.164 20.389 9.245 41.03 30.72 41.03h22.131c4.143 0 7.5-3.358 7.5-7.5s-3.357-7.5-7.5-7.5h-22.131c-11.5 0-19.775-11.146-16.276-21.999 7.947-24.66 25.69-45.143 48.917-56.635 13.162 4.87 27.584 7.465 42.536 7.465s29.374-2.594 42.536-7.464c23.228 11.491 40.97 31.974 48.917 56.634 3.499 10.853-4.777 21.999-16.276 21.999h-91.911c-4.143 0-7.5 3.358-7.5 7.5s3.357 7.5 7.5 7.5h91.911c21.472 0 36.885-20.637 30.72-41.03h99.725c21.63 0 37.189-21.013 30.554-41.601-6.13-19.013-17.509-36.145-32.533-49.35zm-103.843-89.148c.947-.442 1.883-.892 2.799-1.356 10.827-5.48 13.547-19.483 5.931-28.539 3.882-2.147 7.685-4.524 11.374-7.131.629-.444 1.383-.679 2.18-.679h53.294c.797 0 1.551.235 2.179.679 18.416 13.017 38.983 20.1 57.761 20.099.923 0 1.839-.023 2.753-.057 1.923 7.125 2.929 14.507 2.929 21.987 0 20.128-7.054 38.41-20.397 52.87-17.116 18.548-43.312 29.186-71.871 29.186-17.784 0-34.603-4.049-49.067-11.754 5.01-11.538 7.604-24.135 7.604-37.399-.001-13.156-2.516-25.87-7.469-37.906zm-99.801-118.463c14.393 0 26.103 11.71 26.103 26.104 0 4.079-.947 8.038-2.741 11.632-7.442.657-15.213 2.502-23.362 5.541-8.149-3.039-15.92-4.884-23.362-5.541-1.794-3.593-2.742-7.553-2.742-11.632 0-14.394 11.71-26.104 26.104-26.104zm-54.05 59.32c9.339-5.537 24.814-11.67 51.253-1.042 1.795.722 3.799.722 5.594 0 26.439-10.627 41.913-4.495 51.253 1.042 9.458 5.607 17.7 14.108 25.671 22.328 5.372 5.54 10.927 11.269 16.837 16.09 2.041 1.666 1.595 4.808-.731 5.986-10.997 5.566-24.716 9.4-38.631 10.797-21.085 2.115-39.922-1.529-53.038-10.265-1.259-.838-2.708-1.258-4.157-1.258s-2.898.419-4.157 1.258c-13.117 8.737-31.956 12.382-53.038 10.265-13.915-1.397-27.634-5.232-38.631-10.798-2.323-1.175-2.776-4.316-.731-5.985 5.909-4.821 11.463-10.549 16.835-16.088 7.969-8.221 16.212-16.722 25.671-22.33zm-156.397-1.445c16.958-14.602 38.876-22.644 61.716-22.644s44.758 8.042 61.717 22.644c1.741 1.499 3.428 3.072 5.054 4.702-5.214 5.084-9.747 9.979-14.647 14.869-31.196 3.965-58.427-3.706-69.514-13.594-3.075-2.742-7.785-2.492-10.55.561-9.903 10.929-32.891 18.998-54.735 19.93 5.127-9.91 12.196-18.922 20.959-26.468zm-10.156 118.46c-13.343-14.459-20.397-32.742-20.397-52.87 0-8.206 1.211-16.296 3.516-24.056 27.597.527 53.257-8.94 66.89-20.156 14.043 9.249 36.025 14.437 59.108 14.202-3.597 8.792.04 19.176 8.886 23.652.918.465 1.857.916 2.807 1.36-4.956 12.033-7.476 24.745-7.476 37.901 0 13.264 2.594 25.861 7.604 37.399-14.464 7.705-31.283 11.754-49.067 11.754-28.558 0-54.754-10.638-71.871-29.186zm120.686 107.228h-105.704c-11.499 0-19.776-11.145-16.276-22 6.052-18.778 18.007-35.465 33.852-47.369 12.28 4.134 25.573 6.327 39.314 6.327 20.276 0 39.522-4.684 56.167-13.567 2.835 4.363 6.048 8.532 9.67 12.457 6.796 7.364 14.786 13.656 23.658 18.755-17.512 11.058-31.633 26.817-40.681 45.397zm99.917-45.14c-28.559 0-54.755-10.638-71.871-29.186-13.344-14.46-20.398-32.741-20.398-52.869 0-11.281 2.176-22.181 6.462-32.491 8.605 2.722 17.836 4.638 27.113 5.569 22.472 2.255 43.092-1.342 58.693-10.154 12.564 7.096 28.378 10.811 45.796 10.811 4.213 0 8.521-.217 12.897-.657 9.277-.931 18.508-2.847 27.113-5.569 4.286 10.311 6.462 21.21 6.462 32.49 0 20.128-7.054 38.41-20.397 52.869-17.115 18.549-43.311 29.187-71.87 29.187zm205.621 45.14h-105.705c-9.046-18.579-23.161-34.343-40.671-45.403 8.869-5.098 16.856-11.388 23.649-18.749 3.616-3.919 6.825-8.081 9.657-12.437 16.646 8.881 35.904 13.548 56.18 13.548 13.741 0 27.034-2.193 39.314-6.327 15.845 11.904 27.8 28.591 33.852 47.369 3.5 10.853-4.776 21.999-16.276 21.999zm4.543-139.473c4.143 0 7.5-3.358 7.5-7.5v-12c0-4.142-3.357-7.5-7.5-7.5s-7.5 3.358-7.5 7.5v12c0 4.142 3.358 7.5 7.5 7.5zm-272.613 2.887c-4.143 0-7.5 3.358-7.5 7.5v12c0 4.142 3.357 7.5 7.5 7.5s7.5-3.358 7.5-7.5v-12c0-4.142-3.358-7.5-7.5-7.5zm-63.148-5.816c2.721-3.122 2.396-7.86-.727-10.581-3.123-2.722-7.86-2.398-10.582.726-2.73 3.132-6.67 4.929-10.81 4.929-4.141 0-8.081-1.796-10.811-4.928-2.721-3.123-7.459-3.448-10.581-.727-3.123 2.721-3.449 7.458-.728 10.582 5.578 6.402 13.641 10.074 22.119 10.074 8.479-.002 16.54-3.673 22.12-10.075zm-84.567-24.071c-4.142 0-7.5 3.358-7.5 7.5v12c0 4.142 3.358 7.5 7.5 7.5 4.143 0 7.5-3.358 7.5-7.5v-12c0-4.142-3.357-7.5-7.5-7.5zm231.555 43.375c-3.123-2.721-7.86-2.396-10.581.727-2.729 3.132-6.669 4.928-10.81 4.928s-8.08-1.796-10.81-4.928c-2.721-3.123-7.459-3.448-10.581-.727-3.123 2.721-3.449 7.459-.728 10.582 5.578 6.402 13.641 10.074 22.118 10.074 8.478 0 16.54-3.672 22.118-10.074 2.723-3.124 2.397-7.861-.726-10.582zm41.057-13.488c-4.143 0-7.5 3.358-7.5 7.5v12c0 4.142 3.357 7.5 7.5 7.5s7.5-3.358 7.5-7.5v-12c0-4.142-3.357-7.5-7.5-7.5z"/></g><g/><g/><g/><g/><g/><g/><g/><g/><g/><g/><g/><g/><g/><g/><g/></svg>