<svg id="LINE" enable-background="new 0 0 24 24" height="512" viewBox="0 0 24 24" width="512" xmlns="http://www.w3.org/2000/svg"><path d="m22.51 9.34h-4.12c1.5-1.31 2.32-2.74 2.28-4.09-.04-1.21-.79-2.2-2.11-2.77-.42-.2-.86-.28-1.32-.26-.15.02-.31.05-.46.08-.15.04-.31.09-.47.16s-.31.16-.45.25c-.24.16-.47.34-.68.55-.21-.21-.42-.38-.65-.53-.17-.11-.31-.19-.45-.25-.18-.09-.34-.15-.49-.17-.15-.04-.29-.06-.46-.09-.46-.02-.89.06-1.33.25-1.32.58-2.07 1.57-2.11 2.78-.02.69.18 1.4.59 2.11l-1.14-.37c-.2-.06-.41.04-.48.24l-.7 2.11h-.11c-.01 0-.02 0-.03.01-.01-.13-.03-.25-.05-.37-.15-.87-.61-1.77-1.5-2.06-.88-.3-1.71.21-2.02 1.04-.3.8-.13 1.79.17 2.56.22.57.54 1.08.96 1.53-.4.26-.72.66-.88 1.14-.15.47-.15.97.01 1.43-.51.1-1.01.29-1.46.55-.72.41-1.43 1.04-1.77 1.81-.36.82-.16 1.84.71 2.23.91.41 1.87 0 2.56-.62.19-.17.37-.34.54-.53l-.79 2.4c-.07.2.04.41.24.48l2.43.8c.04.01.08.02.12.02.05 0 .11-.02.16-.04.09-.05.16-.13.19-.22l.76-2.3.17 2.23c.02.2.18.35.38.35h4.22 4.42 4.22c.2 0 .36-.15.38-.35l.9-11.69c.01-.1-.03-.21-.1-.28-.07-.08-.17-.12-.28-.12zm-17.45.76c-.23-.69-.44-1.83.21-2.36.32-.25.76-.18 1.07.05.36.26.55.69.65 1.11.23.92.22 1.91.13 2.85-.02-.02-.05-.02-.08-.02-.01-.02-.01-.04-.02-.07-.31-.71-.5-1.52-.56-2.28-.02-.2-.16-.38-.38-.37-.19 0-.39.16-.37.37.06.81.24 1.58.53 2.33-.05.01-.09.02-.13.04-.48-.46-.84-1.03-1.05-1.65zm.16 3.33c.12-.37.38-.67.72-.84.21-.11.43-.16.66-.16.03 0 .06 0 .09.01.08 0 .16.01.24.03.01 0 .01.01.01.01.04 0 .07.01.11.02.21.07.4.19.55.35.04.03.08.07.12.12l.01.15.12 1.5c-.14.24-.34.44-.6.56-.03.01-.05.03-.08.03l-.39.12c-.21.03-.43.01-.64-.06-.04-.01-.08-.03-.11-.05-.09-.03-.16-.07-.23-.12-.22-.14-.39-.33-.5-.56v-.01c-.18-.35-.2-.73-.08-1.1zm-.71 4.14c-.47.51-1.07 1.11-1.83 1.06-.7-.05-.99-.7-.73-1.32.26-.61.83-1.11 1.38-1.44.49-.29 1.04-.48 1.6-.55.02.03.05.06.09.09 0 0 .01.01.01.01-.67.42-1.28.92-1.8 1.51-.13.15-.16.39 0 .53.14.13.39.16.53 0 .27-.32.58-.62.9-.89.04-.03.08-.06.12-.1.02-.01.04-.03.05-.04-.05.04.01-.01.02-.01.09-.06.17-.13.26-.19.18-.12.36-.23.54-.34.01-.01.01-.01.02-.02.02.02.04.03.07.03-.35.6-.76 1.16-1.23 1.67zm2.34 3.34-1.72-.57 1.4-4.26c.02.01.05.01.07.01.19 0 .39-.03.58-.08.14-.04.28-.09.41-.16.12-.06.23-.13.33-.21l.05.63.08 1zm2.41-13.09 1.72.57-.31.95h-1.91zm3.71 2.3v10.91h-3.87l-.29-3.69-.06-.81-.09-1.12v-.01l-.05-.62v-.01l-.1-1.4-.06-.65-.01-.16-.14-1.83-.05-.64h.26 1.91.79 1.72.04zm-1.51-.78.12-.37c.13.13.26.25.4.37zm5.18 1.29v10.4h-2.92v-10.42-.52h.55 1.81.56zm.56-1.29h-4.05c-.51-.37-.96-.76-1.33-1.16-.14-.14-.26-.29-.38-.43-.68-.84-1.03-1.69-1.01-2.48.03-.93.6-1.66 1.67-2.12.28-.13.56-.2.85-.2h.03c.04 0 .08 0 .13.01.13.01.26.04.41.09.13.03.26.09.42.18.16.08.3.18.42.27.17.14.32.29.44.44.01.01.02.02.03.02.03.02.05.06.07.08l.17.2c.05.07.17.07.22 0l.16-.19c.03-.02.04-.05.06-.07.01-.01.02-.02.03-.04.18-.18.33-.33.49-.46.12-.09.25-.19.41-.27.12-.07.26-.12.42-.17.14-.04.28-.07.43-.08.03-.01.06-.01.1-.01.27 0 .56.06.87.2 1.06.46 1.64 1.19 1.67 2.12.04 1.29-.96 2.76-2.73 4.07zm4.06 11.69h-3.87v-10.9-.04h.06 4.66z"/></svg>