<?xml version="1.0"?>
<svg xmlns="http://www.w3.org/2000/svg" viewBox="0 0 64 64" width="512" height="512"><g id="_22_Wedding" data-name="22 Wedding"><path d="M23.306,51A9.438,9.438,0,0,0,28.5,49.444a9.492,9.492,0,1,0,7.579-17.129c.949-1.041,1.939-2.4,1.939-3.541a2.733,2.733,0,0,0-1.7-2.649,2.473,2.473,0,0,0-2.378.477,2.474,2.474,0,0,0-2.378-.477,2.733,2.733,0,0,0-1.7,2.649c0,1.1.945,2.4,1.87,3.429A9.441,9.441,0,0,0,28.5,33.556a9.44,9.44,0,0,0-3.309-1.366c.913-1.023,1.827-2.322,1.827-3.415a2.733,2.733,0,0,0-1.7-2.649,2.473,2.473,0,0,0-2.378.477,2.474,2.474,0,0,0-2.378-.477,2.733,2.733,0,0,0-1.7,2.649c0,1.147,1.009,2.519,1.965,3.562A9.494,9.494,0,0,0,23.306,51Zm2.889-9.5A7.473,7.473,0,0,1,28.5,36.1a7.471,7.471,0,0,1,0,10.8A7.473,7.473,0,0,1,26.194,41.5Zm15,0a7.567,7.567,0,0,1-11.067,6.6,9.561,9.561,0,0,0,0-13.192A7.567,7.567,0,0,1,41.194,41.5ZM32.3,28c.188,0,.5.186.861.631a1.034,1.034,0,0,0,1.562,0c.408-.51.759-.682.935-.619a.811.811,0,0,1,.357.763c0,.528-1,1.8-2.073,2.859-1.078-1.063-2.073-2.331-2.073-2.859C31.872,28.55,31.98,28,32.3,28Zm-11,0c.188,0,.5.186.861.631a1.034,1.034,0,0,0,1.562,0c.408-.51.759-.682.935-.619a.811.811,0,0,1,.357.763c0,.528-1,1.8-2.073,2.859-1.078-1.063-2.073-2.331-2.073-2.859C20.872,28.55,20.98,28,21.3,28Zm2,6a7.454,7.454,0,0,1,3.567.9,9.561,9.561,0,0,0,0,13.192A7.5,7.5,0,1,1,23.306,34ZM61.97,49.63,54.99,13.88l-.01-.07A2,2,0,0,0,53,12H45a2.006,2.006,0,0,0-2-2H42a2.006,2.006,0,0,0-2,2H31a2.006,2.006,0,0,0-2-2H28a2.006,2.006,0,0,0-2,2H17a2.006,2.006,0,0,0-2-2H14a2.006,2.006,0,0,0-2,2H4a2.006,2.006,0,0,0-2,2V52a2.006,2.006,0,0,0,2,2H53a2.006,2.006,0,0,0,2-2h5A2.031,2.031,0,0,0,61.97,49.63ZM42,12h1v5H42Zm0,7a4.048,4.048,0,0,0,1.93-.23,1.451,1.451,0,0,1-2.86,0A1.942,1.942,0,0,0,42,19ZM28,12h1v5H28Zm0,7a4.048,4.048,0,0,0,1.93-.23,1.451,1.451,0,0,1-2.86,0A1.942,1.942,0,0,0,28,19ZM14,12h1v5H14Zm0,7a4.039,4.039,0,0,0,1.93-.23,1.451,1.451,0,0,1-2.86,0A1.942,1.942,0,0,0,14,19ZM53,52H4V25H53Zm0-29H4V14h8v2.05C10.26,18.01,11.09,22,14.5,22s4.24-3.99,2.5-5.95V14h9v2.05C24.26,18.01,25.09,22,28.5,22s4.24-3.99,2.5-5.95V14h9v2.05C38.26,18.01,39.09,22,42.5,22s4.24-3.99,2.5-5.95V14h8Zm2,27V24.34L60,50Z"/></g></svg>
