<?xml version="1.0" encoding="iso-8859-1"?>
<!-- Generator: Adobe Illustrator 19.0.0, SVG Export Plug-In . SVG Version: 6.00 Build 0)  -->
<svg version="1.1" id="Layer_1" xmlns="http://www.w3.org/2000/svg" xmlns:xlink="http://www.w3.org/1999/xlink" x="0px" y="0px"
	 viewBox="0 0 512.001 512.001" style="enable-background:new 0 0 512.001 512.001;" xml:space="preserve">
<g>
	<g>
		<path d="M163.099,183.611c-3.216-2.608-7.939-2.117-10.549,1.101c-3.19,3.934-7.425,6.1-11.925,6.1s-8.735-2.166-11.925-6.1
			c-2.609-3.217-7.333-3.709-10.549-1.101c-3.217,2.609-3.71,7.333-1.101,10.55c6.005,7.404,14.598,11.65,23.575,11.65
			s17.57-4.247,23.575-11.65C166.809,190.945,166.316,186.221,163.099,183.611z"/>
	</g>
</g>
<g>
	<g>
		<path d="M105.125,137.562c-4.142,0-7.5,3.358-7.5,7.5v8.875c0,4.142,3.358,7.5,7.5,7.5c4.142,0,7.5-3.358,7.5-7.5v-8.875
			C112.625,140.919,109.267,137.562,105.125,137.562z"/>
	</g>
</g>
<g>
	<g>
		<path d="M176.125,137.562c-4.142,0-7.5,3.358-7.5,7.5v8.875c0,4.142,3.358,7.5,7.5,7.5c4.142,0,7.5-3.358,7.5-7.5v-8.875
			C183.625,140.919,180.267,137.562,176.125,137.562z"/>
	</g>
</g>
<g>
	<g>
		<path d="M51.875,341.686c-4.142,0-7.5,3.358-7.5,7.5v142c0,4.142,3.358,7.5,7.5,7.5c4.142,0,7.5-3.358,7.5-7.5v-142
			C59.375,345.044,56.017,341.686,51.875,341.686z"/>
	</g>
</g>
<g>
	<g>
		<path d="M229.375,341.686c-4.142,0-7.5,3.358-7.5,7.5v142c0,4.142,3.358,7.5,7.5,7.5c4.142,0,7.5-3.358,7.5-7.5v-142
			C236.875,345.044,233.517,341.686,229.375,341.686z"/>
	</g>
</g>
<g>
	<g>
		<path d="M402.724,227.986c-3.216-2.608-7.94-2.117-10.549,1.101c-3.19,3.934-7.425,6.1-11.925,6.1s-8.735-2.166-11.925-6.1
			c-2.609-3.217-7.333-3.709-10.549-1.101c-3.217,2.609-3.71,7.333-1.101,10.55c6.005,7.404,14.598,11.65,23.575,11.65
			s17.57-4.247,23.575-11.65C406.434,235.32,405.941,230.596,402.724,227.986z"/>
	</g>
</g>
<g>
	<g>
		<path d="M344.75,181.937c-4.142,0-7.5,3.358-7.5,7.5v8.875c0,4.142,3.358,7.5,7.5,7.5c4.142,0,7.5-3.358,7.5-7.5v-8.875
			C352.25,185.294,348.892,181.937,344.75,181.937z"/>
	</g>
</g>
<g>
	<g>
		<path d="M415.75,181.937c-4.142,0-7.5,3.358-7.5,7.5v8.875c0,4.142,3.358,7.5,7.5,7.5c4.142,0,7.5-3.358,7.5-7.5v-8.875
			C423.25,185.294,419.892,181.937,415.75,181.937z"/>
	</g>
</g>
<g>
	<g>
		<path d="M490.549,335.528l-6.239-2.496l-25.163-88.333c2.753-5.77,4.89-11.837,6.312-18.103
			c1.437-6.332,2.166-12.863,2.166-19.411c0-43.685-31.643-49.967-62.243-56.042c-19.57-3.885-39.806-7.902-55.947-20.814
			c-1.766-1.413-4.077-1.948-6.286-1.466c-2.209,0.482-4.085,1.939-5.103,3.959c-0.042,0.083-4.244,8.355-11.351,16.41
			c-6.019,6.822-15.472,14.954-26.321,14.954c-3.648,0-7.115,0.784-10.25,2.183v-12.433c0-18.784,5.926-37.127,16.766-52.328
			c5.644,4.131,12.594,6.578,20.109,6.578c17.069,0,31.25-12.598,33.737-28.983c3.235,1.51,6.839,2.358,10.638,2.358
			c10.854,0,20.128-6.884,23.691-16.515c19.751,3.269,37.87,13.023,51.57,27.935c15.309,16.663,23.739,38.311,23.739,60.955v17.75
			c0,4.142,3.358,7.5,7.5,7.5c4.142,0,7.5-3.358,7.5-7.5v-17.75c0-26.414-9.835-51.665-27.693-71.104
			c-16.369-17.817-38.154-29.33-61.861-32.854c-2.817-10.868-12.709-18.917-24.445-18.917c-10.671,0-19.81,6.657-23.5,16.033
			c-5.775-4.48-13.016-7.158-20.875-7.158c-18.816,0-34.125,15.309-34.125,34.125c0,5.748,1.434,11.164,3.955,15.921
			c-14.015,18.276-21.705,40.833-21.705,63.954v35.5c0,11.398,7.592,21.057,17.985,24.185c0.32,4.379,0.965,8.723,1.931,12.977
			c1.422,6.265,3.558,12.333,6.312,18.102l-25.163,88.333l-6.238,2.496c-13.031,5.212-21.451,17.649-21.451,31.684v44.104
			c0,1.99,0.791,3.898,2.198,5.305c1.407,1.406,3.314,2.195,5.302,2.195c0.001,0,0.002,0,0.003,0h1.372v72.372
			c0,4.142,3.358,7.5,7.5,7.5c4.142,0,7.5-3.358,7.5-7.5v-72.375h20.5v72.375c0,4.142,3.358,7.5,7.5,7.5c4.142,0,7.5-3.358,7.5-7.5
			v-93.19c0-10.684-5.103-20.89-13.65-27.3l-24.03-18.022c1.56-1.328,3.344-2.428,5.327-3.222l12.118-4.847
			c19.442,18.442,54.652,29.829,92.645,29.829c38.222,0,73.149-11.337,92.62-29.811l12.073,4.829
			c1.983,0.793,3.768,1.894,5.327,3.221l-24.03,18.023c-8.547,6.41-13.65,16.616-13.65,27.3v93.188c0,4.142,3.358,7.5,7.5,7.5
			c4.142,0,7.5-3.358,7.5-7.5v-72.375h20.5v72.375c0,4.142,3.358,7.5,7.5,7.5c4.142,0,7.5-3.358,7.5-7.5v-72.375h1.375
			c1.989,0,3.897-0.79,5.303-2.196c1.407-1.407,2.197-3.314,2.197-5.304v-44.1C512,353.177,503.58,340.741,490.549,335.528z
			 M371.375,46.062c5.652,0,10.25,4.598,10.25,10.25c0,5.652-4.598,10.25-10.25,10.25c-5.652,0-10.25-4.598-10.25-10.25
			C361.125,50.659,365.723,46.062,371.375,46.062z M327,54.937c10.545,0,19.125,8.579,19.125,19.125
			c0,10.546-8.58,19.125-19.125,19.125c-10.545,0-19.125-8.579-19.125-19.125C307.875,63.515,316.455,54.937,327,54.937z
			 M285.225,382.699c4.79,3.593,7.65,9.312,7.65,15.3v5.813l-29.375,0.001v-36.601c0-0.263,0.019-0.523,0.029-0.785L285.225,382.699
			z M300.375,199.687c-5.652,0-10.25-4.598-10.25-10.25c0-5.652,4.598-10.25,10.25-10.25c22.743,0,39.239-20.594,46.688-32.116
			c17.491,11.262,37.496,15.233,55.398,18.787c32.963,6.544,50.164,11.355,50.164,41.329c0,5.433-0.604,10.847-1.793,16.092
			c-3.57,15.733-12.492,30.02-25.121,40.228c-12.995,10.504-28.715,16.056-45.461,16.056c-16.746,0-32.466-5.552-45.461-16.056
			c-12.629-10.208-21.55-24.494-25.121-40.228c-1.19-5.245-1.793-10.659-1.793-16.092
			C307.875,203.044,304.517,199.687,300.375,199.687z M312.077,261.803c3.92,4.896,8.365,9.393,13.283,13.368
			c3.743,3.026,7.726,5.715,11.89,8.064v18.433c0,4.216-2.529,7.951-6.443,9.517l-37.015,14.806L312.077,261.803z M380.286,359.436
			c-30.889,0-59.341-7.954-76.892-21.129l32.985-13.194c9.642-3.857,15.872-13.06,15.872-23.444v-11.745
			c8.97,3.034,18.432,4.638,28,4.638s19.03-1.604,28-4.638v11.745c0,10.385,6.23,19.587,15.873,23.444l33.006,13.202
			C439.625,351.349,410.872,359.436,380.286,359.436z M429.694,311.186c-3.914-1.566-6.443-5.301-6.443-9.517v-18.433
			c4.164-2.35,8.147-5.039,11.89-8.064c4.919-3.976,9.363-8.472,13.283-13.368l18.285,64.188L429.694,311.186z M497,403.812h-29.375
			v-5.813c0-5.987,2.86-11.707,7.65-15.3l21.696-16.272c0.01,0.262,0.029,0.521,0.029,0.785V403.812z"/>
	</g>
</g>
<g>
	<g>
		<path d="M269.926,281.48c-3.765-3.383-8.137-5.838-12.995-7.295L192.5,254.856v-21.805c19.895-14.732,33.355-37.684,35.266-63.806
			c10.392-3.128,17.984-12.786,17.984-24.185c0-7.378-3.316-14.371-8.875-19.125V74.062c0-14.223-7.202-27.525-19.008-35.496
			C213.921,23.737,200.621,13.312,185,13.312h-71c-38.392,0-69.625,31.233-69.625,69.625v43c-5.559,4.754-8.875,11.747-8.875,19.125
			c0,11.398,7.592,21.057,17.984,24.185c1.911,26.122,15.37,49.073,35.266,63.806v21.805l-64.43,19.329
			C9.773,278.549,0,291.684,0,306.871v184.315c0,4.142,3.358,7.5,7.5,7.5s7.5-3.358,7.5-7.5V306.871
			c0-8.511,5.478-15.873,13.63-18.319l43.138-12.941c1.609,11.395,6.104,39.53,15.434,74.404
			c11.093,41.459,31.402,100.383,65.161,145.654c1.472,1.975,3.731,3.017,6.018,3.017c1.559,0,3.132-0.484,4.478-1.488
			c3.32-2.476,4.005-7.175,1.529-10.496c-6.318-8.473-12.153-17.477-17.553-26.808c47.464-66.055,60.245-159.957,62.839-184.227
			l42.948,12.884c2.723,0.817,5.172,2.191,7.28,4.085c1.433,1.288,3.225,1.921,5.01,1.921c2.054,0,4.1-0.839,5.581-2.487
			C273.26,288.99,273.007,284.249,269.926,281.48z M68.25,162.812c0-4.189-3.435-7.576-7.642-7.499
			c-3.387,0.063-6.655-1.428-8.394-4.335c-3.389-5.667-1.498-11.853,3.433-14.722c0.007-0.004,0.013-0.008,0.02-0.012
			c1.495-0.878,3.158-1.433,4.892-1.433H78.5c3.228,0,6.094-2.065,7.115-5.128l7.189-21.569
			c17.573-0.387,72.829-2.841,104.111-18.313c3.474-1.719,5.344-5.736,4.026-9.381c-1.556-4.307-6.447-6.178-10.421-4.191
			C157.03,92.973,88.066,93.187,87.374,93.187c-3.228,0.001-6.094,2.066-7.114,5.128l-7.166,21.497H59.375V82.937
			c0-30.168,24.457-54.625,54.625-54.625h71c9.471,0,17.42,6.871,18.825,16.31c0.329,2.21,1.771,4.081,3.716,5.18
			c8.842,4.998,14.333,14.291,14.333,24.26v55.712c0,2.7,1.476,5.149,3.799,6.524c4.839,2.865,6.704,8.942,3.441,14.546
			c-1.733,2.975-5.031,4.533-8.473,4.469c-4.207-0.078-7.642,3.309-7.642,7.499c0,39.908-32.467,72.375-72.375,72.375
			C100.716,235.187,68.25,202.719,68.25,162.812z M140.625,278.315L103.75,256.19v-14.186c11.211,5.241,23.704,8.182,36.875,8.182
			s25.664-2.94,36.875-8.182v14.186L140.625,278.315z M150.875,313.228v9.333c0,0.758-0.617,1.375-1.375,1.375h-17.75
			c-0.758,0-1.375-0.617-1.375-1.375v-9.333l10.25-13.667L150.875,313.228z M86.317,271.247l8.916-2.675l34.403,20.642
			l-17.379,23.171l-21.47-14.307C88.33,285.176,86.926,275.688,86.317,271.247z M115.461,390.462
			c-9.162-25.903-15.75-50.911-20.346-71.477l14.725,9.816c1.276,0.851,2.722,1.26,4.155,1.26c1.004,0,1.997-0.213,2.924-0.604
			c1.397,2.991,3.666,5.486,6.484,7.166L115.461,390.462z M138.79,445.159c-4.453-8.659-8.558-17.504-12.342-26.397l11.776-79.826
			h4.801l11.614,78.698C149.906,427.135,144.642,436.393,138.79,445.159z M166.017,391.987l-8.17-55.363
			c2.819-1.68,5.088-4.175,6.484-7.166c0.927,0.391,1.92,0.604,2.924,0.604c1.433,0,2.879-0.41,4.155-1.26l16.217-10.811
			C183.176,339.537,176.334,365.827,166.017,391.987z M191.45,297.443l-22.457,14.943l-17.379-23.171l34.404-20.642l9.013,2.703
			C194.6,275.522,193.537,284.835,191.45,297.443z"/>
	</g>
</g>
<g>
</g>
<g>
</g>
<g>
</g>
<g>
</g>
<g>
</g>
<g>
</g>
<g>
</g>
<g>
</g>
<g>
</g>
<g>
</g>
<g>
</g>
<g>
</g>
<g>
</g>
<g>
</g>
<g>
</g>
</svg>
